G04 #@! TF.GenerationSoftware,KiCad,Pcbnew,5.0.2+dfsg1-1*
G04 #@! TF.CreationDate,2019-04-19T11:24:35+12:00*
G04 #@! TF.ProjectId,esp32,65737033-322e-46b6-9963-61645f706362,rev?*
G04 #@! TF.SameCoordinates,Original*
G04 #@! TF.FileFunction,Soldermask,Top*
G04 #@! TF.FilePolarity,Negative*
%FSLAX46Y46*%
G04 Gerber Fmt 4.6, Leading zero omitted, Abs format (unit mm)*
G04 Created by KiCad (PCBNEW 5.0.2+dfsg1-1) date Fri 19 Apr 2019 11:24:35 NZST*
%MOMM*%
%LPD*%
G01*
G04 APERTURE LIST*
%ADD10C,0.100000*%
G04 APERTURE END LIST*
D10*
G36*
X140852172Y-104151796D02*
X141571025Y-104449555D01*
X142217981Y-104881837D01*
X142768163Y-105432019D01*
X143200445Y-106078975D01*
X143498204Y-106797828D01*
X143650000Y-107560958D01*
X143650000Y-108339042D01*
X143498204Y-109102172D01*
X143200445Y-109821025D01*
X142768163Y-110467981D01*
X142217981Y-111018163D01*
X141571025Y-111450445D01*
X140852172Y-111748204D01*
X140089042Y-111900000D01*
X139310958Y-111900000D01*
X138547828Y-111748204D01*
X137828975Y-111450445D01*
X137182019Y-111018163D01*
X136631837Y-110467981D01*
X136199555Y-109821025D01*
X135901796Y-109102172D01*
X135750000Y-108339042D01*
X135750000Y-107560958D01*
X135901796Y-106797828D01*
X136199555Y-106078975D01*
X136631837Y-105432019D01*
X137182019Y-104881837D01*
X137828975Y-104449555D01*
X138547828Y-104151796D01*
X139310958Y-104000000D01*
X140089042Y-104000000D01*
X140852172Y-104151796D01*
X140852172Y-104151796D01*
G37*
G36*
X90052172Y-104151796D02*
X90771025Y-104449555D01*
X91417981Y-104881837D01*
X91968163Y-105432019D01*
X92400445Y-106078975D01*
X92698204Y-106797828D01*
X92850000Y-107560958D01*
X92850000Y-108339042D01*
X92698204Y-109102172D01*
X92400445Y-109821025D01*
X91968163Y-110467981D01*
X91417981Y-111018163D01*
X90771025Y-111450445D01*
X90052172Y-111748204D01*
X89289042Y-111900000D01*
X88510958Y-111900000D01*
X87747828Y-111748204D01*
X87028975Y-111450445D01*
X86382019Y-111018163D01*
X85831837Y-110467981D01*
X85399555Y-109821025D01*
X85101796Y-109102172D01*
X84950000Y-108339042D01*
X84950000Y-107560958D01*
X85101796Y-106797828D01*
X85399555Y-106078975D01*
X85831837Y-105432019D01*
X86382019Y-104881837D01*
X87028975Y-104449555D01*
X87747828Y-104151796D01*
X88510958Y-104000000D01*
X89289042Y-104000000D01*
X90052172Y-104151796D01*
X90052172Y-104151796D01*
G37*
G36*
X131925639Y-106865916D02*
X132132986Y-106928815D01*
X132132988Y-106928816D01*
X132324084Y-107030958D01*
X132491581Y-107168419D01*
X132629042Y-107335916D01*
X132731184Y-107527012D01*
X132731185Y-107527014D01*
X132777968Y-107681234D01*
X132794084Y-107734362D01*
X132815322Y-107950000D01*
X132794084Y-108165638D01*
X132731184Y-108372988D01*
X132629042Y-108564084D01*
X132491581Y-108731581D01*
X132324084Y-108869042D01*
X132132988Y-108971184D01*
X132132986Y-108971185D01*
X131925639Y-109034084D01*
X131764038Y-109050000D01*
X129855962Y-109050000D01*
X129694361Y-109034084D01*
X129487014Y-108971185D01*
X129487012Y-108971184D01*
X129295916Y-108869042D01*
X129128419Y-108731581D01*
X128990958Y-108564084D01*
X128888816Y-108372988D01*
X128825916Y-108165638D01*
X128804678Y-107950000D01*
X128825916Y-107734362D01*
X128842032Y-107681234D01*
X128888815Y-107527014D01*
X128888816Y-107527012D01*
X128990958Y-107335916D01*
X129128419Y-107168419D01*
X129295916Y-107030958D01*
X129487012Y-106928816D01*
X129487014Y-106928815D01*
X129694361Y-106865916D01*
X129855962Y-106850000D01*
X131764038Y-106850000D01*
X131925639Y-106865916D01*
X131925639Y-106865916D01*
G37*
G36*
X99340603Y-106008968D02*
X99340606Y-106008969D01*
X99340605Y-106008969D01*
X99515678Y-106081486D01*
X99515679Y-106081487D01*
X99673241Y-106186767D01*
X99807233Y-106320759D01*
X99807234Y-106320761D01*
X99912514Y-106478322D01*
X99956805Y-106585250D01*
X99985032Y-106653397D01*
X100022000Y-106839250D01*
X100022000Y-107028750D01*
X99985032Y-107214603D01*
X99985031Y-107214605D01*
X99912514Y-107389678D01*
X99860232Y-107467923D01*
X99807233Y-107547241D01*
X99673241Y-107681233D01*
X99593923Y-107734232D01*
X99515678Y-107786514D01*
X99380266Y-107842603D01*
X99340603Y-107859032D01*
X99154750Y-107896000D01*
X98965250Y-107896000D01*
X98779397Y-107859032D01*
X98739734Y-107842603D01*
X98604322Y-107786514D01*
X98526077Y-107734232D01*
X98446759Y-107681233D01*
X98312767Y-107547241D01*
X98259768Y-107467923D01*
X98207486Y-107389678D01*
X98134969Y-107214605D01*
X98134968Y-107214603D01*
X98098000Y-107028750D01*
X98098000Y-106839250D01*
X98134968Y-106653397D01*
X98163195Y-106585250D01*
X98207486Y-106478322D01*
X98312766Y-106320761D01*
X98312767Y-106320759D01*
X98446759Y-106186767D01*
X98604321Y-106081487D01*
X98604322Y-106081486D01*
X98779395Y-106008969D01*
X98779394Y-106008969D01*
X98779397Y-106008968D01*
X98965250Y-105972000D01*
X99154750Y-105972000D01*
X99340603Y-106008968D01*
X99340603Y-106008968D01*
G37*
G36*
X124740603Y-105754968D02*
X124740606Y-105754969D01*
X124740605Y-105754969D01*
X124915678Y-105827486D01*
X124915679Y-105827487D01*
X125073241Y-105932767D01*
X125207233Y-106066759D01*
X125217073Y-106081486D01*
X125312514Y-106224322D01*
X125352459Y-106320759D01*
X125385032Y-106399397D01*
X125422000Y-106585250D01*
X125422000Y-106774750D01*
X125385032Y-106960603D01*
X125385031Y-106960605D01*
X125312514Y-107135678D01*
X125312513Y-107135679D01*
X125207233Y-107293241D01*
X125073241Y-107427233D01*
X124993923Y-107480232D01*
X124915678Y-107532514D01*
X124780266Y-107588603D01*
X124740603Y-107605032D01*
X124554750Y-107642000D01*
X124365250Y-107642000D01*
X124179397Y-107605032D01*
X124139734Y-107588603D01*
X124004322Y-107532514D01*
X123926077Y-107480232D01*
X123846759Y-107427233D01*
X123712767Y-107293241D01*
X123607487Y-107135679D01*
X123607486Y-107135678D01*
X123534969Y-106960605D01*
X123534968Y-106960603D01*
X123498000Y-106774750D01*
X123498000Y-106585250D01*
X123534968Y-106399397D01*
X123567541Y-106320759D01*
X123607486Y-106224322D01*
X123702927Y-106081486D01*
X123712767Y-106066759D01*
X123846759Y-105932767D01*
X124004321Y-105827487D01*
X124004322Y-105827486D01*
X124179395Y-105754969D01*
X124179394Y-105754969D01*
X124179397Y-105754968D01*
X124365250Y-105718000D01*
X124554750Y-105718000D01*
X124740603Y-105754968D01*
X124740603Y-105754968D01*
G37*
G36*
X99340603Y-103468968D02*
X99340606Y-103468969D01*
X99340605Y-103468969D01*
X99515678Y-103541486D01*
X99515679Y-103541487D01*
X99673241Y-103646767D01*
X99807233Y-103780759D01*
X99859776Y-103859395D01*
X99912514Y-103938322D01*
X99956805Y-104045250D01*
X99985032Y-104113397D01*
X100022000Y-104299250D01*
X100022000Y-104488750D01*
X99985032Y-104674603D01*
X99985031Y-104674605D01*
X99912514Y-104849678D01*
X99860232Y-104927923D01*
X99807233Y-105007241D01*
X99673241Y-105141233D01*
X99593923Y-105194232D01*
X99515678Y-105246514D01*
X99380266Y-105302603D01*
X99340603Y-105319032D01*
X99154750Y-105356000D01*
X98965250Y-105356000D01*
X98779397Y-105319032D01*
X98739734Y-105302603D01*
X98604322Y-105246514D01*
X98526077Y-105194232D01*
X98446759Y-105141233D01*
X98312767Y-105007241D01*
X98259768Y-104927923D01*
X98207486Y-104849678D01*
X98134969Y-104674605D01*
X98134968Y-104674603D01*
X98098000Y-104488750D01*
X98098000Y-104299250D01*
X98134968Y-104113397D01*
X98163195Y-104045250D01*
X98207486Y-103938322D01*
X98260224Y-103859395D01*
X98312767Y-103780759D01*
X98446759Y-103646767D01*
X98604321Y-103541487D01*
X98604322Y-103541486D01*
X98779395Y-103468969D01*
X98779394Y-103468969D01*
X98779397Y-103468968D01*
X98965250Y-103432000D01*
X99154750Y-103432000D01*
X99340603Y-103468968D01*
X99340603Y-103468968D01*
G37*
G36*
X124740603Y-103214968D02*
X124740606Y-103214969D01*
X124740605Y-103214969D01*
X124915678Y-103287486D01*
X124915679Y-103287487D01*
X125073241Y-103392767D01*
X125207233Y-103526759D01*
X125207234Y-103526761D01*
X125312514Y-103684322D01*
X125352459Y-103780759D01*
X125385032Y-103859397D01*
X125422000Y-104045250D01*
X125422000Y-104234750D01*
X125385032Y-104420603D01*
X125385031Y-104420605D01*
X125312514Y-104595678D01*
X125312513Y-104595679D01*
X125207233Y-104753241D01*
X125073241Y-104887233D01*
X124993923Y-104940232D01*
X124915678Y-104992514D01*
X124780266Y-105048603D01*
X124740603Y-105065032D01*
X124554750Y-105102000D01*
X124365250Y-105102000D01*
X124179397Y-105065032D01*
X124139734Y-105048603D01*
X124004322Y-104992514D01*
X123926077Y-104940232D01*
X123846759Y-104887233D01*
X123712767Y-104753241D01*
X123607487Y-104595679D01*
X123607486Y-104595678D01*
X123534969Y-104420605D01*
X123534968Y-104420603D01*
X123498000Y-104234750D01*
X123498000Y-104045250D01*
X123534968Y-103859397D01*
X123567541Y-103780759D01*
X123607486Y-103684322D01*
X123712766Y-103526761D01*
X123712767Y-103526759D01*
X123846759Y-103392767D01*
X124004321Y-103287487D01*
X124004322Y-103287486D01*
X124179395Y-103214969D01*
X124179394Y-103214969D01*
X124179397Y-103214968D01*
X124365250Y-103178000D01*
X124554750Y-103178000D01*
X124740603Y-103214968D01*
X124740603Y-103214968D01*
G37*
G36*
X131925639Y-101785916D02*
X132132986Y-101848815D01*
X132132988Y-101848816D01*
X132324084Y-101950958D01*
X132491581Y-102088419D01*
X132629042Y-102255916D01*
X132731184Y-102447012D01*
X132731185Y-102447014D01*
X132794084Y-102654361D01*
X132815322Y-102870000D01*
X132794084Y-103085639D01*
X132754852Y-103214969D01*
X132731184Y-103292988D01*
X132629042Y-103484084D01*
X132491581Y-103651581D01*
X132324084Y-103789042D01*
X132132988Y-103891184D01*
X132132986Y-103891185D01*
X131925639Y-103954084D01*
X131764038Y-103970000D01*
X129855962Y-103970000D01*
X129694361Y-103954084D01*
X129487014Y-103891185D01*
X129487012Y-103891184D01*
X129295916Y-103789042D01*
X129128419Y-103651581D01*
X128990958Y-103484084D01*
X128888816Y-103292988D01*
X128865149Y-103214969D01*
X128825916Y-103085639D01*
X128804678Y-102870000D01*
X128825916Y-102654361D01*
X128888815Y-102447014D01*
X128888816Y-102447012D01*
X128990958Y-102255916D01*
X129128419Y-102088419D01*
X129295916Y-101950958D01*
X129487012Y-101848816D01*
X129487014Y-101848815D01*
X129694361Y-101785916D01*
X129855962Y-101770000D01*
X131764038Y-101770000D01*
X131925639Y-101785916D01*
X131925639Y-101785916D01*
G37*
G36*
X99340603Y-100928968D02*
X99340606Y-100928969D01*
X99340605Y-100928969D01*
X99515678Y-101001486D01*
X99515679Y-101001487D01*
X99673241Y-101106767D01*
X99807233Y-101240759D01*
X99807234Y-101240761D01*
X99912514Y-101398322D01*
X99925635Y-101430000D01*
X99985032Y-101573397D01*
X100022000Y-101759250D01*
X100022000Y-101948750D01*
X99985032Y-102134603D01*
X99985031Y-102134605D01*
X99912514Y-102309678D01*
X99860232Y-102387923D01*
X99807233Y-102467241D01*
X99673241Y-102601233D01*
X99593923Y-102654232D01*
X99515678Y-102706514D01*
X99380266Y-102762603D01*
X99340603Y-102779032D01*
X99154750Y-102816000D01*
X98965250Y-102816000D01*
X98779397Y-102779032D01*
X98739734Y-102762603D01*
X98604322Y-102706514D01*
X98526077Y-102654232D01*
X98446759Y-102601233D01*
X98312767Y-102467241D01*
X98259768Y-102387923D01*
X98207486Y-102309678D01*
X98134969Y-102134605D01*
X98134968Y-102134603D01*
X98098000Y-101948750D01*
X98098000Y-101759250D01*
X98134968Y-101573397D01*
X98194365Y-101430000D01*
X98207486Y-101398322D01*
X98312766Y-101240761D01*
X98312767Y-101240759D01*
X98446759Y-101106767D01*
X98604321Y-101001487D01*
X98604322Y-101001486D01*
X98779395Y-100928969D01*
X98779394Y-100928969D01*
X98779397Y-100928968D01*
X98965250Y-100892000D01*
X99154750Y-100892000D01*
X99340603Y-100928968D01*
X99340603Y-100928968D01*
G37*
G36*
X124740603Y-100674968D02*
X124740606Y-100674969D01*
X124740605Y-100674969D01*
X124915678Y-100747486D01*
X124915679Y-100747487D01*
X125073241Y-100852767D01*
X125207233Y-100986759D01*
X125207234Y-100986761D01*
X125312514Y-101144322D01*
X125352459Y-101240759D01*
X125385032Y-101319397D01*
X125422000Y-101505250D01*
X125422000Y-101694750D01*
X125385032Y-101880603D01*
X125385031Y-101880605D01*
X125312514Y-102055678D01*
X125312513Y-102055679D01*
X125207233Y-102213241D01*
X125073241Y-102347233D01*
X124993923Y-102400232D01*
X124915678Y-102452514D01*
X124780266Y-102508603D01*
X124740603Y-102525032D01*
X124554750Y-102562000D01*
X124365250Y-102562000D01*
X124179397Y-102525032D01*
X124139734Y-102508603D01*
X124004322Y-102452514D01*
X123926077Y-102400232D01*
X123846759Y-102347233D01*
X123712767Y-102213241D01*
X123607487Y-102055679D01*
X123607486Y-102055678D01*
X123534969Y-101880605D01*
X123534968Y-101880603D01*
X123498000Y-101694750D01*
X123498000Y-101505250D01*
X123534968Y-101319397D01*
X123567541Y-101240759D01*
X123607486Y-101144322D01*
X123712766Y-100986761D01*
X123712767Y-100986759D01*
X123846759Y-100852767D01*
X124004321Y-100747487D01*
X124004322Y-100747486D01*
X124179395Y-100674969D01*
X124179394Y-100674969D01*
X124179397Y-100674968D01*
X124365250Y-100638000D01*
X124554750Y-100638000D01*
X124740603Y-100674968D01*
X124740603Y-100674968D01*
G37*
G36*
X94710000Y-101430000D02*
X90710000Y-101430000D01*
X90710000Y-99230000D01*
X94710000Y-99230000D01*
X94710000Y-101430000D01*
X94710000Y-101430000D01*
G37*
G36*
X99340603Y-98388968D02*
X99340606Y-98388969D01*
X99340605Y-98388969D01*
X99515678Y-98461486D01*
X99515679Y-98461487D01*
X99673241Y-98566767D01*
X99807233Y-98700759D01*
X99859776Y-98779395D01*
X99912514Y-98858322D01*
X99925635Y-98890000D01*
X99985032Y-99033397D01*
X100022000Y-99219250D01*
X100022000Y-99408750D01*
X99985032Y-99594603D01*
X99985031Y-99594605D01*
X99912514Y-99769678D01*
X99860232Y-99847923D01*
X99807233Y-99927241D01*
X99673241Y-100061233D01*
X99593923Y-100114232D01*
X99515678Y-100166514D01*
X99380266Y-100222603D01*
X99340603Y-100239032D01*
X99154750Y-100276000D01*
X98965250Y-100276000D01*
X98779397Y-100239032D01*
X98739734Y-100222603D01*
X98604322Y-100166514D01*
X98526077Y-100114232D01*
X98446759Y-100061233D01*
X98312767Y-99927241D01*
X98259768Y-99847923D01*
X98207486Y-99769678D01*
X98134969Y-99594605D01*
X98134968Y-99594603D01*
X98098000Y-99408750D01*
X98098000Y-99219250D01*
X98134968Y-99033397D01*
X98194365Y-98890000D01*
X98207486Y-98858322D01*
X98260224Y-98779395D01*
X98312767Y-98700759D01*
X98446759Y-98566767D01*
X98604321Y-98461487D01*
X98604322Y-98461486D01*
X98779395Y-98388969D01*
X98779394Y-98388969D01*
X98779397Y-98388968D01*
X98965250Y-98352000D01*
X99154750Y-98352000D01*
X99340603Y-98388968D01*
X99340603Y-98388968D01*
G37*
G36*
X124740603Y-98134968D02*
X124740606Y-98134969D01*
X124740605Y-98134969D01*
X124915678Y-98207486D01*
X124915679Y-98207487D01*
X125073241Y-98312767D01*
X125207233Y-98446759D01*
X125207234Y-98446761D01*
X125312514Y-98604322D01*
X125352459Y-98700759D01*
X125385032Y-98779397D01*
X125422000Y-98965250D01*
X125422000Y-99154750D01*
X125385032Y-99340603D01*
X125385031Y-99340605D01*
X125312514Y-99515678D01*
X125312513Y-99515679D01*
X125207233Y-99673241D01*
X125073241Y-99807233D01*
X124993923Y-99860232D01*
X124915678Y-99912514D01*
X124780266Y-99968603D01*
X124740603Y-99985032D01*
X124554750Y-100022000D01*
X124365250Y-100022000D01*
X124179397Y-99985032D01*
X124139734Y-99968603D01*
X124004322Y-99912514D01*
X123926077Y-99860232D01*
X123846759Y-99807233D01*
X123712767Y-99673241D01*
X123607487Y-99515679D01*
X123607486Y-99515678D01*
X123534969Y-99340605D01*
X123534968Y-99340603D01*
X123498000Y-99154750D01*
X123498000Y-98965250D01*
X123534968Y-98779397D01*
X123567541Y-98700759D01*
X123607486Y-98604322D01*
X123712766Y-98446761D01*
X123712767Y-98446759D01*
X123846759Y-98312767D01*
X124004321Y-98207487D01*
X124004322Y-98207486D01*
X124179395Y-98134969D01*
X124179394Y-98134969D01*
X124179397Y-98134968D01*
X124365250Y-98098000D01*
X124554750Y-98098000D01*
X124740603Y-98134968D01*
X124740603Y-98134968D01*
G37*
G36*
X131925639Y-96705916D02*
X132132986Y-96768815D01*
X132132988Y-96768816D01*
X132324084Y-96870958D01*
X132491581Y-97008419D01*
X132629042Y-97175916D01*
X132731184Y-97367012D01*
X132731185Y-97367014D01*
X132794084Y-97574361D01*
X132815322Y-97790000D01*
X132794084Y-98005639D01*
X132754852Y-98134969D01*
X132731184Y-98212988D01*
X132629042Y-98404084D01*
X132491581Y-98571581D01*
X132324084Y-98709042D01*
X132132988Y-98811184D01*
X132132986Y-98811185D01*
X131925639Y-98874084D01*
X131764038Y-98890000D01*
X129855962Y-98890000D01*
X129694361Y-98874084D01*
X129487014Y-98811185D01*
X129487012Y-98811184D01*
X129295916Y-98709042D01*
X129128419Y-98571581D01*
X128990958Y-98404084D01*
X128888816Y-98212988D01*
X128865149Y-98134969D01*
X128825916Y-98005639D01*
X128804678Y-97790000D01*
X128825916Y-97574361D01*
X128888815Y-97367014D01*
X128888816Y-97367012D01*
X128990958Y-97175916D01*
X129128419Y-97008419D01*
X129295916Y-96870958D01*
X129487012Y-96768816D01*
X129487014Y-96768815D01*
X129694361Y-96705916D01*
X129855962Y-96690000D01*
X131764038Y-96690000D01*
X131925639Y-96705916D01*
X131925639Y-96705916D01*
G37*
G36*
X99340603Y-95848968D02*
X99340606Y-95848969D01*
X99340605Y-95848969D01*
X99515678Y-95921486D01*
X99515679Y-95921487D01*
X99673241Y-96026767D01*
X99807233Y-96160759D01*
X99859776Y-96239395D01*
X99912514Y-96318322D01*
X99925635Y-96350000D01*
X99985032Y-96493397D01*
X100022000Y-96679250D01*
X100022000Y-96868750D01*
X99985032Y-97054603D01*
X99985031Y-97054605D01*
X99912514Y-97229678D01*
X99860232Y-97307923D01*
X99807233Y-97387241D01*
X99673241Y-97521233D01*
X99593923Y-97574232D01*
X99515678Y-97626514D01*
X99380266Y-97682603D01*
X99340603Y-97699032D01*
X99154750Y-97736000D01*
X98965250Y-97736000D01*
X98779397Y-97699032D01*
X98739734Y-97682603D01*
X98604322Y-97626514D01*
X98526077Y-97574232D01*
X98446759Y-97521233D01*
X98312767Y-97387241D01*
X98259768Y-97307923D01*
X98207486Y-97229678D01*
X98134969Y-97054605D01*
X98134968Y-97054603D01*
X98098000Y-96868750D01*
X98098000Y-96679250D01*
X98134968Y-96493397D01*
X98194365Y-96350000D01*
X98207486Y-96318322D01*
X98260224Y-96239395D01*
X98312767Y-96160759D01*
X98446759Y-96026767D01*
X98604321Y-95921487D01*
X98604322Y-95921486D01*
X98779395Y-95848969D01*
X98779394Y-95848969D01*
X98779397Y-95848968D01*
X98965250Y-95812000D01*
X99154750Y-95812000D01*
X99340603Y-95848968D01*
X99340603Y-95848968D01*
G37*
G36*
X124740603Y-95594968D02*
X124740606Y-95594969D01*
X124740605Y-95594969D01*
X124915678Y-95667486D01*
X124915679Y-95667487D01*
X125073241Y-95772767D01*
X125207233Y-95906759D01*
X125207234Y-95906761D01*
X125312514Y-96064322D01*
X125352459Y-96160759D01*
X125385032Y-96239397D01*
X125422000Y-96425250D01*
X125422000Y-96614750D01*
X125385032Y-96800603D01*
X125385031Y-96800605D01*
X125312514Y-96975678D01*
X125312513Y-96975679D01*
X125207233Y-97133241D01*
X125073241Y-97267233D01*
X124993923Y-97320232D01*
X124915678Y-97372514D01*
X124780266Y-97428603D01*
X124740603Y-97445032D01*
X124554750Y-97482000D01*
X124365250Y-97482000D01*
X124179397Y-97445032D01*
X124139734Y-97428603D01*
X124004322Y-97372514D01*
X123926077Y-97320232D01*
X123846759Y-97267233D01*
X123712767Y-97133241D01*
X123607487Y-96975679D01*
X123607486Y-96975678D01*
X123534969Y-96800605D01*
X123534968Y-96800603D01*
X123498000Y-96614750D01*
X123498000Y-96425250D01*
X123534968Y-96239397D01*
X123567541Y-96160759D01*
X123607486Y-96064322D01*
X123712766Y-95906761D01*
X123712767Y-95906759D01*
X123846759Y-95772767D01*
X124004321Y-95667487D01*
X124004322Y-95667486D01*
X124179395Y-95594969D01*
X124179394Y-95594969D01*
X124179397Y-95594968D01*
X124365250Y-95558000D01*
X124554750Y-95558000D01*
X124740603Y-95594968D01*
X124740603Y-95594968D01*
G37*
G36*
X93825639Y-94165916D02*
X94032986Y-94228815D01*
X94032988Y-94228816D01*
X94224084Y-94330958D01*
X94391581Y-94468419D01*
X94529042Y-94635916D01*
X94631184Y-94827012D01*
X94631185Y-94827014D01*
X94694084Y-95034361D01*
X94715322Y-95250000D01*
X94694084Y-95465639D01*
X94654852Y-95594969D01*
X94631184Y-95672988D01*
X94529042Y-95864084D01*
X94391581Y-96031581D01*
X94224084Y-96169042D01*
X94032988Y-96271184D01*
X94032986Y-96271185D01*
X93825639Y-96334084D01*
X93664038Y-96350000D01*
X91755962Y-96350000D01*
X91594361Y-96334084D01*
X91387014Y-96271185D01*
X91387012Y-96271184D01*
X91195916Y-96169042D01*
X91028419Y-96031581D01*
X90890958Y-95864084D01*
X90788816Y-95672988D01*
X90765149Y-95594969D01*
X90725916Y-95465639D01*
X90704678Y-95250000D01*
X90725916Y-95034361D01*
X90788815Y-94827014D01*
X90788816Y-94827012D01*
X90890958Y-94635916D01*
X91028419Y-94468419D01*
X91195916Y-94330958D01*
X91387012Y-94228816D01*
X91387014Y-94228815D01*
X91594361Y-94165916D01*
X91755962Y-94150000D01*
X93664038Y-94150000D01*
X93825639Y-94165916D01*
X93825639Y-94165916D01*
G37*
G36*
X99340603Y-93308968D02*
X99340606Y-93308969D01*
X99340605Y-93308969D01*
X99515678Y-93381486D01*
X99515679Y-93381487D01*
X99673241Y-93486767D01*
X99807233Y-93620759D01*
X99859776Y-93699395D01*
X99912514Y-93778322D01*
X99925635Y-93810000D01*
X99985032Y-93953397D01*
X100022000Y-94139250D01*
X100022000Y-94328750D01*
X99985032Y-94514603D01*
X99985031Y-94514605D01*
X99912514Y-94689678D01*
X99860232Y-94767923D01*
X99807233Y-94847241D01*
X99673241Y-94981233D01*
X99593923Y-95034232D01*
X99515678Y-95086514D01*
X99380266Y-95142603D01*
X99340603Y-95159032D01*
X99154750Y-95196000D01*
X98965250Y-95196000D01*
X98779397Y-95159032D01*
X98739734Y-95142603D01*
X98604322Y-95086514D01*
X98526077Y-95034232D01*
X98446759Y-94981233D01*
X98312767Y-94847241D01*
X98259768Y-94767923D01*
X98207486Y-94689678D01*
X98134969Y-94514605D01*
X98134968Y-94514603D01*
X98098000Y-94328750D01*
X98098000Y-94139250D01*
X98134968Y-93953397D01*
X98194365Y-93810000D01*
X98207486Y-93778322D01*
X98260224Y-93699395D01*
X98312767Y-93620759D01*
X98446759Y-93486767D01*
X98604321Y-93381487D01*
X98604322Y-93381486D01*
X98779395Y-93308969D01*
X98779394Y-93308969D01*
X98779397Y-93308968D01*
X98965250Y-93272000D01*
X99154750Y-93272000D01*
X99340603Y-93308968D01*
X99340603Y-93308968D01*
G37*
G36*
X124740603Y-93054968D02*
X124740606Y-93054969D01*
X124740605Y-93054969D01*
X124915678Y-93127486D01*
X124915679Y-93127487D01*
X125073241Y-93232767D01*
X125207233Y-93366759D01*
X125207234Y-93366761D01*
X125312514Y-93524322D01*
X125352459Y-93620759D01*
X125385032Y-93699397D01*
X125422000Y-93885250D01*
X125422000Y-94074750D01*
X125385032Y-94260603D01*
X125385031Y-94260605D01*
X125312514Y-94435678D01*
X125312513Y-94435679D01*
X125207233Y-94593241D01*
X125073241Y-94727233D01*
X124993923Y-94780232D01*
X124915678Y-94832514D01*
X124780266Y-94888603D01*
X124740603Y-94905032D01*
X124554750Y-94942000D01*
X124365250Y-94942000D01*
X124179397Y-94905032D01*
X124139734Y-94888603D01*
X124004322Y-94832514D01*
X123926077Y-94780232D01*
X123846759Y-94727233D01*
X123712767Y-94593241D01*
X123607487Y-94435679D01*
X123607486Y-94435678D01*
X123534969Y-94260605D01*
X123534968Y-94260603D01*
X123498000Y-94074750D01*
X123498000Y-93885250D01*
X123534968Y-93699397D01*
X123567541Y-93620759D01*
X123607486Y-93524322D01*
X123712766Y-93366761D01*
X123712767Y-93366759D01*
X123846759Y-93232767D01*
X124004321Y-93127487D01*
X124004322Y-93127486D01*
X124179395Y-93054969D01*
X124179394Y-93054969D01*
X124179397Y-93054968D01*
X124365250Y-93018000D01*
X124554750Y-93018000D01*
X124740603Y-93054968D01*
X124740603Y-93054968D01*
G37*
G36*
X131925639Y-91625916D02*
X132132986Y-91688815D01*
X132132988Y-91688816D01*
X132324084Y-91790958D01*
X132491581Y-91928419D01*
X132629042Y-92095916D01*
X132731184Y-92287012D01*
X132731185Y-92287014D01*
X132794084Y-92494361D01*
X132815322Y-92710000D01*
X132794084Y-92925639D01*
X132754852Y-93054969D01*
X132731184Y-93132988D01*
X132629042Y-93324084D01*
X132491581Y-93491581D01*
X132324084Y-93629042D01*
X132132988Y-93731184D01*
X132132986Y-93731185D01*
X131925639Y-93794084D01*
X131764038Y-93810000D01*
X129855962Y-93810000D01*
X129694361Y-93794084D01*
X129487014Y-93731185D01*
X129487012Y-93731184D01*
X129295916Y-93629042D01*
X129128419Y-93491581D01*
X128990958Y-93324084D01*
X128888816Y-93132988D01*
X128865149Y-93054969D01*
X128825916Y-92925639D01*
X128804678Y-92710000D01*
X128825916Y-92494361D01*
X128888815Y-92287014D01*
X128888816Y-92287012D01*
X128990958Y-92095916D01*
X129128419Y-91928419D01*
X129295916Y-91790958D01*
X129487012Y-91688816D01*
X129487014Y-91688815D01*
X129694361Y-91625916D01*
X129855962Y-91610000D01*
X131764038Y-91610000D01*
X131925639Y-91625916D01*
X131925639Y-91625916D01*
G37*
G36*
X99340603Y-90768968D02*
X99340606Y-90768969D01*
X99340605Y-90768969D01*
X99515678Y-90841486D01*
X99515679Y-90841487D01*
X99673241Y-90946767D01*
X99807233Y-91080759D01*
X99859776Y-91159395D01*
X99912514Y-91238322D01*
X99925635Y-91270000D01*
X99985032Y-91413397D01*
X100022000Y-91599250D01*
X100022000Y-91788750D01*
X99985032Y-91974603D01*
X99985031Y-91974605D01*
X99912514Y-92149678D01*
X99860232Y-92227923D01*
X99807233Y-92307241D01*
X99673241Y-92441233D01*
X99593923Y-92494232D01*
X99515678Y-92546514D01*
X99380266Y-92602603D01*
X99340603Y-92619032D01*
X99154750Y-92656000D01*
X98965250Y-92656000D01*
X98779397Y-92619032D01*
X98739734Y-92602603D01*
X98604322Y-92546514D01*
X98526077Y-92494232D01*
X98446759Y-92441233D01*
X98312767Y-92307241D01*
X98259768Y-92227923D01*
X98207486Y-92149678D01*
X98134969Y-91974605D01*
X98134968Y-91974603D01*
X98098000Y-91788750D01*
X98098000Y-91599250D01*
X98134968Y-91413397D01*
X98194365Y-91270000D01*
X98207486Y-91238322D01*
X98260224Y-91159395D01*
X98312767Y-91080759D01*
X98446759Y-90946767D01*
X98604321Y-90841487D01*
X98604322Y-90841486D01*
X98779395Y-90768969D01*
X98779394Y-90768969D01*
X98779397Y-90768968D01*
X98965250Y-90732000D01*
X99154750Y-90732000D01*
X99340603Y-90768968D01*
X99340603Y-90768968D01*
G37*
G36*
X124740603Y-90514968D02*
X124740606Y-90514969D01*
X124740605Y-90514969D01*
X124915678Y-90587486D01*
X124915679Y-90587487D01*
X125073241Y-90692767D01*
X125207233Y-90826759D01*
X125207234Y-90826761D01*
X125312514Y-90984322D01*
X125352459Y-91080759D01*
X125385032Y-91159397D01*
X125422000Y-91345250D01*
X125422000Y-91534750D01*
X125385032Y-91720603D01*
X125385031Y-91720605D01*
X125312514Y-91895678D01*
X125312513Y-91895679D01*
X125207233Y-92053241D01*
X125073241Y-92187233D01*
X124993923Y-92240232D01*
X124915678Y-92292514D01*
X124780266Y-92348603D01*
X124740603Y-92365032D01*
X124554750Y-92402000D01*
X124365250Y-92402000D01*
X124179397Y-92365032D01*
X124139734Y-92348603D01*
X124004322Y-92292514D01*
X123926077Y-92240232D01*
X123846759Y-92187233D01*
X123712767Y-92053241D01*
X123607487Y-91895679D01*
X123607486Y-91895678D01*
X123534969Y-91720605D01*
X123534968Y-91720603D01*
X123498000Y-91534750D01*
X123498000Y-91345250D01*
X123534968Y-91159397D01*
X123567541Y-91080759D01*
X123607486Y-90984322D01*
X123712766Y-90826761D01*
X123712767Y-90826759D01*
X123846759Y-90692767D01*
X124004321Y-90587487D01*
X124004322Y-90587486D01*
X124179395Y-90514969D01*
X124179394Y-90514969D01*
X124179397Y-90514968D01*
X124365250Y-90478000D01*
X124554750Y-90478000D01*
X124740603Y-90514968D01*
X124740603Y-90514968D01*
G37*
G36*
X93825639Y-89085916D02*
X94032986Y-89148815D01*
X94032988Y-89148816D01*
X94224084Y-89250958D01*
X94391581Y-89388419D01*
X94529042Y-89555916D01*
X94631184Y-89747012D01*
X94631185Y-89747014D01*
X94694084Y-89954361D01*
X94715322Y-90170000D01*
X94694084Y-90385639D01*
X94654852Y-90514969D01*
X94631184Y-90592988D01*
X94529042Y-90784084D01*
X94391581Y-90951581D01*
X94224084Y-91089042D01*
X94032988Y-91191184D01*
X94032986Y-91191185D01*
X93825639Y-91254084D01*
X93664038Y-91270000D01*
X91755962Y-91270000D01*
X91594361Y-91254084D01*
X91387014Y-91191185D01*
X91387012Y-91191184D01*
X91195916Y-91089042D01*
X91028419Y-90951581D01*
X90890958Y-90784084D01*
X90788816Y-90592988D01*
X90765149Y-90514969D01*
X90725916Y-90385639D01*
X90704678Y-90170000D01*
X90725916Y-89954361D01*
X90788815Y-89747014D01*
X90788816Y-89747012D01*
X90890958Y-89555916D01*
X91028419Y-89388419D01*
X91195916Y-89250958D01*
X91387012Y-89148816D01*
X91387014Y-89148815D01*
X91594361Y-89085916D01*
X91755962Y-89070000D01*
X93664038Y-89070000D01*
X93825639Y-89085916D01*
X93825639Y-89085916D01*
G37*
G36*
X99340603Y-88228968D02*
X99340606Y-88228969D01*
X99340605Y-88228969D01*
X99515678Y-88301486D01*
X99515679Y-88301487D01*
X99673241Y-88406767D01*
X99807233Y-88540759D01*
X99859776Y-88619395D01*
X99912514Y-88698322D01*
X99925635Y-88730000D01*
X99985032Y-88873397D01*
X100022000Y-89059250D01*
X100022000Y-89248750D01*
X99985032Y-89434603D01*
X99985031Y-89434605D01*
X99912514Y-89609678D01*
X99860232Y-89687923D01*
X99807233Y-89767241D01*
X99673241Y-89901233D01*
X99593923Y-89954232D01*
X99515678Y-90006514D01*
X99380266Y-90062603D01*
X99340603Y-90079032D01*
X99154750Y-90116000D01*
X98965250Y-90116000D01*
X98779397Y-90079032D01*
X98739734Y-90062603D01*
X98604322Y-90006514D01*
X98526077Y-89954232D01*
X98446759Y-89901233D01*
X98312767Y-89767241D01*
X98259768Y-89687923D01*
X98207486Y-89609678D01*
X98134969Y-89434605D01*
X98134968Y-89434603D01*
X98098000Y-89248750D01*
X98098000Y-89059250D01*
X98134968Y-88873397D01*
X98194365Y-88730000D01*
X98207486Y-88698322D01*
X98260224Y-88619395D01*
X98312767Y-88540759D01*
X98446759Y-88406767D01*
X98604321Y-88301487D01*
X98604322Y-88301486D01*
X98779395Y-88228969D01*
X98779394Y-88228969D01*
X98779397Y-88228968D01*
X98965250Y-88192000D01*
X99154750Y-88192000D01*
X99340603Y-88228968D01*
X99340603Y-88228968D01*
G37*
G36*
X124740603Y-87974968D02*
X124740606Y-87974969D01*
X124740605Y-87974969D01*
X124915678Y-88047486D01*
X124915679Y-88047487D01*
X125073241Y-88152767D01*
X125207233Y-88286759D01*
X125207234Y-88286761D01*
X125312514Y-88444322D01*
X125352459Y-88540759D01*
X125385032Y-88619397D01*
X125422000Y-88805250D01*
X125422000Y-88994750D01*
X125385032Y-89180603D01*
X125385031Y-89180605D01*
X125312514Y-89355678D01*
X125312513Y-89355679D01*
X125207233Y-89513241D01*
X125073241Y-89647233D01*
X124993923Y-89700232D01*
X124915678Y-89752514D01*
X124780266Y-89808603D01*
X124740603Y-89825032D01*
X124554750Y-89862000D01*
X124365250Y-89862000D01*
X124179397Y-89825032D01*
X124139734Y-89808603D01*
X124004322Y-89752514D01*
X123926077Y-89700232D01*
X123846759Y-89647233D01*
X123712767Y-89513241D01*
X123607487Y-89355679D01*
X123607486Y-89355678D01*
X123534969Y-89180605D01*
X123534968Y-89180603D01*
X123498000Y-88994750D01*
X123498000Y-88805250D01*
X123534968Y-88619397D01*
X123567541Y-88540759D01*
X123607486Y-88444322D01*
X123712766Y-88286761D01*
X123712767Y-88286759D01*
X123846759Y-88152767D01*
X124004321Y-88047487D01*
X124004322Y-88047486D01*
X124179395Y-87974969D01*
X124179394Y-87974969D01*
X124179397Y-87974968D01*
X124365250Y-87938000D01*
X124554750Y-87938000D01*
X124740603Y-87974968D01*
X124740603Y-87974968D01*
G37*
G36*
X131925639Y-86545916D02*
X132132986Y-86608815D01*
X132132988Y-86608816D01*
X132324084Y-86710958D01*
X132491581Y-86848419D01*
X132629042Y-87015916D01*
X132731184Y-87207012D01*
X132731185Y-87207014D01*
X132794084Y-87414361D01*
X132815322Y-87630000D01*
X132794084Y-87845639D01*
X132754852Y-87974969D01*
X132731184Y-88052988D01*
X132629042Y-88244084D01*
X132491581Y-88411581D01*
X132324084Y-88549042D01*
X132132988Y-88651184D01*
X132132986Y-88651185D01*
X131925639Y-88714084D01*
X131764038Y-88730000D01*
X129855962Y-88730000D01*
X129694361Y-88714084D01*
X129487014Y-88651185D01*
X129487012Y-88651184D01*
X129295916Y-88549042D01*
X129128419Y-88411581D01*
X128990958Y-88244084D01*
X128888816Y-88052988D01*
X128865149Y-87974969D01*
X128825916Y-87845639D01*
X128804678Y-87630000D01*
X128825916Y-87414361D01*
X128888815Y-87207014D01*
X128888816Y-87207012D01*
X128990958Y-87015916D01*
X129128419Y-86848419D01*
X129295916Y-86710958D01*
X129487012Y-86608816D01*
X129487014Y-86608815D01*
X129694361Y-86545916D01*
X129855962Y-86530000D01*
X131764038Y-86530000D01*
X131925639Y-86545916D01*
X131925639Y-86545916D01*
G37*
G36*
X99340603Y-85688968D02*
X99340606Y-85688969D01*
X99340605Y-85688969D01*
X99515678Y-85761486D01*
X99515679Y-85761487D01*
X99673241Y-85866767D01*
X99807233Y-86000759D01*
X99859776Y-86079395D01*
X99912514Y-86158322D01*
X99925635Y-86190000D01*
X99985032Y-86333397D01*
X100022000Y-86519250D01*
X100022000Y-86708750D01*
X99985032Y-86894603D01*
X99985031Y-86894605D01*
X99912514Y-87069678D01*
X99860232Y-87147923D01*
X99807233Y-87227241D01*
X99673241Y-87361233D01*
X99593923Y-87414232D01*
X99515678Y-87466514D01*
X99380266Y-87522603D01*
X99340603Y-87539032D01*
X99154750Y-87576000D01*
X98965250Y-87576000D01*
X98779397Y-87539032D01*
X98739734Y-87522603D01*
X98604322Y-87466514D01*
X98526077Y-87414232D01*
X98446759Y-87361233D01*
X98312767Y-87227241D01*
X98259768Y-87147923D01*
X98207486Y-87069678D01*
X98134969Y-86894605D01*
X98134968Y-86894603D01*
X98098000Y-86708750D01*
X98098000Y-86519250D01*
X98134968Y-86333397D01*
X98194365Y-86190000D01*
X98207486Y-86158322D01*
X98260224Y-86079395D01*
X98312767Y-86000759D01*
X98446759Y-85866767D01*
X98604321Y-85761487D01*
X98604322Y-85761486D01*
X98779395Y-85688969D01*
X98779394Y-85688969D01*
X98779397Y-85688968D01*
X98965250Y-85652000D01*
X99154750Y-85652000D01*
X99340603Y-85688968D01*
X99340603Y-85688968D01*
G37*
G36*
X124740603Y-85434968D02*
X124740606Y-85434969D01*
X124740605Y-85434969D01*
X124915678Y-85507486D01*
X124915679Y-85507487D01*
X125073241Y-85612767D01*
X125207233Y-85746759D01*
X125207234Y-85746761D01*
X125312514Y-85904322D01*
X125352459Y-86000759D01*
X125385032Y-86079397D01*
X125422000Y-86265250D01*
X125422000Y-86454750D01*
X125385032Y-86640603D01*
X125385031Y-86640605D01*
X125312514Y-86815678D01*
X125312513Y-86815679D01*
X125207233Y-86973241D01*
X125073241Y-87107233D01*
X124993923Y-87160232D01*
X124915678Y-87212514D01*
X124780266Y-87268603D01*
X124740603Y-87285032D01*
X124554750Y-87322000D01*
X124365250Y-87322000D01*
X124179397Y-87285032D01*
X124139734Y-87268603D01*
X124004322Y-87212514D01*
X123926077Y-87160232D01*
X123846759Y-87107233D01*
X123712767Y-86973241D01*
X123607487Y-86815679D01*
X123607486Y-86815678D01*
X123534969Y-86640605D01*
X123534968Y-86640603D01*
X123498000Y-86454750D01*
X123498000Y-86265250D01*
X123534968Y-86079397D01*
X123567541Y-86000759D01*
X123607486Y-85904322D01*
X123712766Y-85746761D01*
X123712767Y-85746759D01*
X123846759Y-85612767D01*
X124004321Y-85507487D01*
X124004322Y-85507486D01*
X124179395Y-85434969D01*
X124179394Y-85434969D01*
X124179397Y-85434968D01*
X124365250Y-85398000D01*
X124554750Y-85398000D01*
X124740603Y-85434968D01*
X124740603Y-85434968D01*
G37*
G36*
X93825639Y-84005916D02*
X94032986Y-84068815D01*
X94032988Y-84068816D01*
X94224084Y-84170958D01*
X94391581Y-84308419D01*
X94529042Y-84475916D01*
X94631184Y-84667012D01*
X94631185Y-84667014D01*
X94694084Y-84874361D01*
X94715322Y-85090000D01*
X94694084Y-85305639D01*
X94654852Y-85434969D01*
X94631184Y-85512988D01*
X94529042Y-85704084D01*
X94391581Y-85871581D01*
X94224084Y-86009042D01*
X94032988Y-86111184D01*
X94032986Y-86111185D01*
X93825639Y-86174084D01*
X93664038Y-86190000D01*
X91755962Y-86190000D01*
X91594361Y-86174084D01*
X91387014Y-86111185D01*
X91387012Y-86111184D01*
X91195916Y-86009042D01*
X91028419Y-85871581D01*
X90890958Y-85704084D01*
X90788816Y-85512988D01*
X90765149Y-85434969D01*
X90725916Y-85305639D01*
X90704678Y-85090000D01*
X90725916Y-84874361D01*
X90788815Y-84667014D01*
X90788816Y-84667012D01*
X90890958Y-84475916D01*
X91028419Y-84308419D01*
X91195916Y-84170958D01*
X91387012Y-84068816D01*
X91387014Y-84068815D01*
X91594361Y-84005916D01*
X91755962Y-83990000D01*
X93664038Y-83990000D01*
X93825639Y-84005916D01*
X93825639Y-84005916D01*
G37*
G36*
X99340603Y-83148968D02*
X99340606Y-83148969D01*
X99340605Y-83148969D01*
X99515678Y-83221486D01*
X99515679Y-83221487D01*
X99673241Y-83326767D01*
X99807233Y-83460759D01*
X99859776Y-83539395D01*
X99912514Y-83618322D01*
X99925635Y-83650000D01*
X99985032Y-83793397D01*
X100022000Y-83979250D01*
X100022000Y-84168750D01*
X99985032Y-84354603D01*
X99985031Y-84354605D01*
X99912514Y-84529678D01*
X99860232Y-84607923D01*
X99807233Y-84687241D01*
X99673241Y-84821233D01*
X99593923Y-84874232D01*
X99515678Y-84926514D01*
X99380266Y-84982603D01*
X99340603Y-84999032D01*
X99154750Y-85036000D01*
X98965250Y-85036000D01*
X98779397Y-84999032D01*
X98739734Y-84982603D01*
X98604322Y-84926514D01*
X98526077Y-84874232D01*
X98446759Y-84821233D01*
X98312767Y-84687241D01*
X98259768Y-84607923D01*
X98207486Y-84529678D01*
X98134969Y-84354605D01*
X98134968Y-84354603D01*
X98098000Y-84168750D01*
X98098000Y-83979250D01*
X98134968Y-83793397D01*
X98194365Y-83650000D01*
X98207486Y-83618322D01*
X98260224Y-83539395D01*
X98312767Y-83460759D01*
X98446759Y-83326767D01*
X98604321Y-83221487D01*
X98604322Y-83221486D01*
X98779395Y-83148969D01*
X98779394Y-83148969D01*
X98779397Y-83148968D01*
X98965250Y-83112000D01*
X99154750Y-83112000D01*
X99340603Y-83148968D01*
X99340603Y-83148968D01*
G37*
G36*
X124740603Y-82894968D02*
X124740606Y-82894969D01*
X124740605Y-82894969D01*
X124915678Y-82967486D01*
X124915679Y-82967487D01*
X125073241Y-83072767D01*
X125207233Y-83206759D01*
X125207234Y-83206761D01*
X125312514Y-83364322D01*
X125352459Y-83460759D01*
X125385032Y-83539397D01*
X125422000Y-83725250D01*
X125422000Y-83914750D01*
X125385032Y-84100603D01*
X125385031Y-84100605D01*
X125312514Y-84275678D01*
X125312513Y-84275679D01*
X125207233Y-84433241D01*
X125073241Y-84567233D01*
X124993923Y-84620232D01*
X124915678Y-84672514D01*
X124780266Y-84728603D01*
X124740603Y-84745032D01*
X124554750Y-84782000D01*
X124365250Y-84782000D01*
X124179397Y-84745032D01*
X124139734Y-84728603D01*
X124004322Y-84672514D01*
X123926077Y-84620232D01*
X123846759Y-84567233D01*
X123712767Y-84433241D01*
X123607487Y-84275679D01*
X123607486Y-84275678D01*
X123534969Y-84100605D01*
X123534968Y-84100603D01*
X123498000Y-83914750D01*
X123498000Y-83725250D01*
X123534968Y-83539397D01*
X123567541Y-83460759D01*
X123607486Y-83364322D01*
X123712766Y-83206761D01*
X123712767Y-83206759D01*
X123846759Y-83072767D01*
X124004321Y-82967487D01*
X124004322Y-82967486D01*
X124179395Y-82894969D01*
X124179394Y-82894969D01*
X124179397Y-82894968D01*
X124365250Y-82858000D01*
X124554750Y-82858000D01*
X124740603Y-82894968D01*
X124740603Y-82894968D01*
G37*
G36*
X131925639Y-81465916D02*
X132132986Y-81528815D01*
X132132988Y-81528816D01*
X132324084Y-81630958D01*
X132491581Y-81768419D01*
X132629042Y-81935916D01*
X132731184Y-82127012D01*
X132731185Y-82127014D01*
X132794084Y-82334361D01*
X132815322Y-82550000D01*
X132794084Y-82765639D01*
X132754852Y-82894969D01*
X132731184Y-82972988D01*
X132629042Y-83164084D01*
X132491581Y-83331581D01*
X132324084Y-83469042D01*
X132132988Y-83571184D01*
X132132986Y-83571185D01*
X131925639Y-83634084D01*
X131764038Y-83650000D01*
X129855962Y-83650000D01*
X129694361Y-83634084D01*
X129487014Y-83571185D01*
X129487012Y-83571184D01*
X129295916Y-83469042D01*
X129128419Y-83331581D01*
X128990958Y-83164084D01*
X128888816Y-82972988D01*
X128865149Y-82894969D01*
X128825916Y-82765639D01*
X128804678Y-82550000D01*
X128825916Y-82334361D01*
X128888815Y-82127014D01*
X128888816Y-82127012D01*
X128990958Y-81935916D01*
X129128419Y-81768419D01*
X129295916Y-81630958D01*
X129487012Y-81528816D01*
X129487014Y-81528815D01*
X129694361Y-81465916D01*
X129855962Y-81450000D01*
X131764038Y-81450000D01*
X131925639Y-81465916D01*
X131925639Y-81465916D01*
G37*
G36*
X99340603Y-80608968D02*
X99340606Y-80608969D01*
X99340605Y-80608969D01*
X99515678Y-80681486D01*
X99515679Y-80681487D01*
X99673241Y-80786767D01*
X99807233Y-80920759D01*
X99859776Y-80999395D01*
X99912514Y-81078322D01*
X99925635Y-81110000D01*
X99985032Y-81253397D01*
X100022000Y-81439250D01*
X100022000Y-81628750D01*
X99985032Y-81814603D01*
X99985031Y-81814605D01*
X99912514Y-81989678D01*
X99860232Y-82067923D01*
X99807233Y-82147241D01*
X99673241Y-82281233D01*
X99593923Y-82334232D01*
X99515678Y-82386514D01*
X99380266Y-82442603D01*
X99340603Y-82459032D01*
X99154750Y-82496000D01*
X98965250Y-82496000D01*
X98779397Y-82459032D01*
X98739734Y-82442603D01*
X98604322Y-82386514D01*
X98526077Y-82334232D01*
X98446759Y-82281233D01*
X98312767Y-82147241D01*
X98259768Y-82067923D01*
X98207486Y-81989678D01*
X98134969Y-81814605D01*
X98134968Y-81814603D01*
X98098000Y-81628750D01*
X98098000Y-81439250D01*
X98134968Y-81253397D01*
X98194365Y-81110000D01*
X98207486Y-81078322D01*
X98260224Y-80999395D01*
X98312767Y-80920759D01*
X98446759Y-80786767D01*
X98604321Y-80681487D01*
X98604322Y-80681486D01*
X98779395Y-80608969D01*
X98779394Y-80608969D01*
X98779397Y-80608968D01*
X98965250Y-80572000D01*
X99154750Y-80572000D01*
X99340603Y-80608968D01*
X99340603Y-80608968D01*
G37*
G36*
X124740603Y-80354968D02*
X124740606Y-80354969D01*
X124740605Y-80354969D01*
X124915678Y-80427486D01*
X124915679Y-80427487D01*
X125073241Y-80532767D01*
X125207233Y-80666759D01*
X125207234Y-80666761D01*
X125312514Y-80824322D01*
X125352459Y-80920759D01*
X125385032Y-80999397D01*
X125422000Y-81185250D01*
X125422000Y-81374750D01*
X125385032Y-81560603D01*
X125385031Y-81560605D01*
X125312514Y-81735678D01*
X125312513Y-81735679D01*
X125207233Y-81893241D01*
X125073241Y-82027233D01*
X124993923Y-82080232D01*
X124915678Y-82132514D01*
X124780266Y-82188603D01*
X124740603Y-82205032D01*
X124554750Y-82242000D01*
X124365250Y-82242000D01*
X124179397Y-82205032D01*
X124139734Y-82188603D01*
X124004322Y-82132514D01*
X123926077Y-82080232D01*
X123846759Y-82027233D01*
X123712767Y-81893241D01*
X123607487Y-81735679D01*
X123607486Y-81735678D01*
X123534969Y-81560605D01*
X123534968Y-81560603D01*
X123498000Y-81374750D01*
X123498000Y-81185250D01*
X123534968Y-80999397D01*
X123567541Y-80920759D01*
X123607486Y-80824322D01*
X123712766Y-80666761D01*
X123712767Y-80666759D01*
X123846759Y-80532767D01*
X124004321Y-80427487D01*
X124004322Y-80427486D01*
X124179395Y-80354969D01*
X124179394Y-80354969D01*
X124179397Y-80354968D01*
X124365250Y-80318000D01*
X124554750Y-80318000D01*
X124740603Y-80354968D01*
X124740603Y-80354968D01*
G37*
G36*
X93825639Y-78925916D02*
X94032986Y-78988815D01*
X94032988Y-78988816D01*
X94224084Y-79090958D01*
X94391581Y-79228419D01*
X94529042Y-79395916D01*
X94631184Y-79587012D01*
X94631185Y-79587014D01*
X94694084Y-79794361D01*
X94715322Y-80010000D01*
X94694084Y-80225639D01*
X94654852Y-80354969D01*
X94631184Y-80432988D01*
X94529042Y-80624084D01*
X94391581Y-80791581D01*
X94224084Y-80929042D01*
X94032988Y-81031184D01*
X94032986Y-81031185D01*
X93825639Y-81094084D01*
X93664038Y-81110000D01*
X91755962Y-81110000D01*
X91594361Y-81094084D01*
X91387014Y-81031185D01*
X91387012Y-81031184D01*
X91195916Y-80929042D01*
X91028419Y-80791581D01*
X90890958Y-80624084D01*
X90788816Y-80432988D01*
X90765149Y-80354969D01*
X90725916Y-80225639D01*
X90704678Y-80010000D01*
X90725916Y-79794361D01*
X90788815Y-79587014D01*
X90788816Y-79587012D01*
X90890958Y-79395916D01*
X91028419Y-79228419D01*
X91195916Y-79090958D01*
X91387012Y-78988816D01*
X91387014Y-78988815D01*
X91594361Y-78925916D01*
X91755962Y-78910000D01*
X93664038Y-78910000D01*
X93825639Y-78925916D01*
X93825639Y-78925916D01*
G37*
G36*
X99340603Y-78068968D02*
X99340606Y-78068969D01*
X99340605Y-78068969D01*
X99515678Y-78141486D01*
X99515679Y-78141487D01*
X99673241Y-78246767D01*
X99807233Y-78380759D01*
X99859776Y-78459395D01*
X99912514Y-78538322D01*
X99925635Y-78570000D01*
X99985032Y-78713397D01*
X100022000Y-78899250D01*
X100022000Y-79088750D01*
X99985032Y-79274603D01*
X99985031Y-79274605D01*
X99912514Y-79449678D01*
X99860232Y-79527923D01*
X99807233Y-79607241D01*
X99673241Y-79741233D01*
X99593923Y-79794232D01*
X99515678Y-79846514D01*
X99380266Y-79902603D01*
X99340603Y-79919032D01*
X99154750Y-79956000D01*
X98965250Y-79956000D01*
X98779397Y-79919032D01*
X98739734Y-79902603D01*
X98604322Y-79846514D01*
X98526077Y-79794232D01*
X98446759Y-79741233D01*
X98312767Y-79607241D01*
X98259768Y-79527923D01*
X98207486Y-79449678D01*
X98134969Y-79274605D01*
X98134968Y-79274603D01*
X98098000Y-79088750D01*
X98098000Y-78899250D01*
X98134968Y-78713397D01*
X98194365Y-78570000D01*
X98207486Y-78538322D01*
X98260224Y-78459395D01*
X98312767Y-78380759D01*
X98446759Y-78246767D01*
X98604321Y-78141487D01*
X98604322Y-78141486D01*
X98779395Y-78068969D01*
X98779394Y-78068969D01*
X98779397Y-78068968D01*
X98965250Y-78032000D01*
X99154750Y-78032000D01*
X99340603Y-78068968D01*
X99340603Y-78068968D01*
G37*
G36*
X124740603Y-77814968D02*
X124740606Y-77814969D01*
X124740605Y-77814969D01*
X124915678Y-77887486D01*
X124915679Y-77887487D01*
X125073241Y-77992767D01*
X125207233Y-78126759D01*
X125207234Y-78126761D01*
X125312514Y-78284322D01*
X125352459Y-78380759D01*
X125385032Y-78459397D01*
X125422000Y-78645250D01*
X125422000Y-78834750D01*
X125385032Y-79020603D01*
X125385031Y-79020605D01*
X125312514Y-79195678D01*
X125312513Y-79195679D01*
X125207233Y-79353241D01*
X125073241Y-79487233D01*
X124993923Y-79540232D01*
X124915678Y-79592514D01*
X124780266Y-79648603D01*
X124740603Y-79665032D01*
X124554750Y-79702000D01*
X124365250Y-79702000D01*
X124179397Y-79665032D01*
X124139734Y-79648603D01*
X124004322Y-79592514D01*
X123926077Y-79540232D01*
X123846759Y-79487233D01*
X123712767Y-79353241D01*
X123607487Y-79195679D01*
X123607486Y-79195678D01*
X123534969Y-79020605D01*
X123534968Y-79020603D01*
X123498000Y-78834750D01*
X123498000Y-78645250D01*
X123534968Y-78459397D01*
X123567541Y-78380759D01*
X123607486Y-78284322D01*
X123712766Y-78126761D01*
X123712767Y-78126759D01*
X123846759Y-77992767D01*
X124004321Y-77887487D01*
X124004322Y-77887486D01*
X124179395Y-77814969D01*
X124179394Y-77814969D01*
X124179397Y-77814968D01*
X124365250Y-77778000D01*
X124554750Y-77778000D01*
X124740603Y-77814968D01*
X124740603Y-77814968D01*
G37*
G36*
X131925639Y-76385916D02*
X132132986Y-76448815D01*
X132132988Y-76448816D01*
X132324084Y-76550958D01*
X132491581Y-76688419D01*
X132629042Y-76855916D01*
X132731184Y-77047012D01*
X132731185Y-77047014D01*
X132794084Y-77254361D01*
X132815322Y-77470000D01*
X132794084Y-77685639D01*
X132754852Y-77814969D01*
X132731184Y-77892988D01*
X132629042Y-78084084D01*
X132491581Y-78251581D01*
X132324084Y-78389042D01*
X132132988Y-78491184D01*
X132132986Y-78491185D01*
X131925639Y-78554084D01*
X131764038Y-78570000D01*
X129855962Y-78570000D01*
X129694361Y-78554084D01*
X129487014Y-78491185D01*
X129487012Y-78491184D01*
X129295916Y-78389042D01*
X129128419Y-78251581D01*
X128990958Y-78084084D01*
X128888816Y-77892988D01*
X128865149Y-77814969D01*
X128825916Y-77685639D01*
X128804678Y-77470000D01*
X128825916Y-77254361D01*
X128888815Y-77047014D01*
X128888816Y-77047012D01*
X128990958Y-76855916D01*
X129128419Y-76688419D01*
X129295916Y-76550958D01*
X129487012Y-76448816D01*
X129487014Y-76448815D01*
X129694361Y-76385916D01*
X129855962Y-76370000D01*
X131764038Y-76370000D01*
X131925639Y-76385916D01*
X131925639Y-76385916D01*
G37*
G36*
X99340603Y-75528968D02*
X99340606Y-75528969D01*
X99340605Y-75528969D01*
X99515678Y-75601486D01*
X99515679Y-75601487D01*
X99673241Y-75706767D01*
X99807233Y-75840759D01*
X99859776Y-75919395D01*
X99912514Y-75998322D01*
X99925635Y-76030000D01*
X99985032Y-76173397D01*
X100022000Y-76359250D01*
X100022000Y-76548750D01*
X99985032Y-76734603D01*
X99985031Y-76734605D01*
X99912514Y-76909678D01*
X99860232Y-76987923D01*
X99807233Y-77067241D01*
X99673241Y-77201233D01*
X99593923Y-77254232D01*
X99515678Y-77306514D01*
X99380266Y-77362603D01*
X99340603Y-77379032D01*
X99154750Y-77416000D01*
X98965250Y-77416000D01*
X98779397Y-77379032D01*
X98739734Y-77362603D01*
X98604322Y-77306514D01*
X98526077Y-77254232D01*
X98446759Y-77201233D01*
X98312767Y-77067241D01*
X98259768Y-76987923D01*
X98207486Y-76909678D01*
X98134969Y-76734605D01*
X98134968Y-76734603D01*
X98098000Y-76548750D01*
X98098000Y-76359250D01*
X98134968Y-76173397D01*
X98194365Y-76030000D01*
X98207486Y-75998322D01*
X98260224Y-75919395D01*
X98312767Y-75840759D01*
X98446759Y-75706767D01*
X98604321Y-75601487D01*
X98604322Y-75601486D01*
X98779395Y-75528969D01*
X98779394Y-75528969D01*
X98779397Y-75528968D01*
X98965250Y-75492000D01*
X99154750Y-75492000D01*
X99340603Y-75528968D01*
X99340603Y-75528968D01*
G37*
G36*
X124740603Y-75274968D02*
X124740606Y-75274969D01*
X124740605Y-75274969D01*
X124915678Y-75347486D01*
X124915679Y-75347487D01*
X125073241Y-75452767D01*
X125207233Y-75586759D01*
X125207234Y-75586761D01*
X125312514Y-75744322D01*
X125352459Y-75840759D01*
X125385032Y-75919397D01*
X125422000Y-76105250D01*
X125422000Y-76294750D01*
X125385032Y-76480603D01*
X125385031Y-76480605D01*
X125312514Y-76655678D01*
X125312513Y-76655679D01*
X125207233Y-76813241D01*
X125073241Y-76947233D01*
X124993923Y-77000232D01*
X124915678Y-77052514D01*
X124780266Y-77108603D01*
X124740603Y-77125032D01*
X124554750Y-77162000D01*
X124365250Y-77162000D01*
X124179397Y-77125032D01*
X124139734Y-77108603D01*
X124004322Y-77052514D01*
X123926077Y-77000232D01*
X123846759Y-76947233D01*
X123712767Y-76813241D01*
X123607487Y-76655679D01*
X123607486Y-76655678D01*
X123534969Y-76480605D01*
X123534968Y-76480603D01*
X123498000Y-76294750D01*
X123498000Y-76105250D01*
X123534968Y-75919397D01*
X123567541Y-75840759D01*
X123607486Y-75744322D01*
X123712766Y-75586761D01*
X123712767Y-75586759D01*
X123846759Y-75452767D01*
X124004321Y-75347487D01*
X124004322Y-75347486D01*
X124179395Y-75274969D01*
X124179394Y-75274969D01*
X124179397Y-75274968D01*
X124365250Y-75238000D01*
X124554750Y-75238000D01*
X124740603Y-75274968D01*
X124740603Y-75274968D01*
G37*
G36*
X93825639Y-73845916D02*
X94032986Y-73908815D01*
X94032988Y-73908816D01*
X94224084Y-74010958D01*
X94391581Y-74148419D01*
X94529042Y-74315916D01*
X94631184Y-74507012D01*
X94631185Y-74507014D01*
X94694084Y-74714361D01*
X94715322Y-74930000D01*
X94694084Y-75145639D01*
X94654852Y-75274969D01*
X94631184Y-75352988D01*
X94529042Y-75544084D01*
X94391581Y-75711581D01*
X94224084Y-75849042D01*
X94032988Y-75951184D01*
X94032986Y-75951185D01*
X93825639Y-76014084D01*
X93664038Y-76030000D01*
X91755962Y-76030000D01*
X91594361Y-76014084D01*
X91387014Y-75951185D01*
X91387012Y-75951184D01*
X91195916Y-75849042D01*
X91028419Y-75711581D01*
X90890958Y-75544084D01*
X90788816Y-75352988D01*
X90765149Y-75274969D01*
X90725916Y-75145639D01*
X90704678Y-74930000D01*
X90725916Y-74714361D01*
X90788815Y-74507014D01*
X90788816Y-74507012D01*
X90890958Y-74315916D01*
X91028419Y-74148419D01*
X91195916Y-74010958D01*
X91387012Y-73908816D01*
X91387014Y-73908815D01*
X91594361Y-73845916D01*
X91755962Y-73830000D01*
X93664038Y-73830000D01*
X93825639Y-73845916D01*
X93825639Y-73845916D01*
G37*
G36*
X99340603Y-72988968D02*
X99340606Y-72988969D01*
X99340605Y-72988969D01*
X99515678Y-73061486D01*
X99515679Y-73061487D01*
X99673241Y-73166767D01*
X99807233Y-73300759D01*
X99807234Y-73300761D01*
X99912514Y-73458322D01*
X99925635Y-73490000D01*
X99985032Y-73633397D01*
X100022000Y-73819250D01*
X100022000Y-74008750D01*
X99985032Y-74194603D01*
X99985031Y-74194605D01*
X99912514Y-74369678D01*
X99860232Y-74447923D01*
X99807233Y-74527241D01*
X99673241Y-74661233D01*
X99593923Y-74714232D01*
X99515678Y-74766514D01*
X99380266Y-74822603D01*
X99340603Y-74839032D01*
X99154750Y-74876000D01*
X98965250Y-74876000D01*
X98779397Y-74839032D01*
X98739734Y-74822603D01*
X98604322Y-74766514D01*
X98526077Y-74714232D01*
X98446759Y-74661233D01*
X98312767Y-74527241D01*
X98259768Y-74447923D01*
X98207486Y-74369678D01*
X98134969Y-74194605D01*
X98134968Y-74194603D01*
X98098000Y-74008750D01*
X98098000Y-73819250D01*
X98134968Y-73633397D01*
X98194365Y-73490000D01*
X98207486Y-73458322D01*
X98312766Y-73300761D01*
X98312767Y-73300759D01*
X98446759Y-73166767D01*
X98604321Y-73061487D01*
X98604322Y-73061486D01*
X98779395Y-72988969D01*
X98779394Y-72988969D01*
X98779397Y-72988968D01*
X98965250Y-72952000D01*
X99154750Y-72952000D01*
X99340603Y-72988968D01*
X99340603Y-72988968D01*
G37*
G36*
X124740603Y-72734968D02*
X124740606Y-72734969D01*
X124740605Y-72734969D01*
X124915678Y-72807486D01*
X124915679Y-72807487D01*
X125073241Y-72912767D01*
X125207233Y-73046759D01*
X125207234Y-73046761D01*
X125312514Y-73204322D01*
X125352459Y-73300759D01*
X125385032Y-73379397D01*
X125422000Y-73565250D01*
X125422000Y-73754750D01*
X125385032Y-73940603D01*
X125385031Y-73940605D01*
X125312514Y-74115678D01*
X125312513Y-74115679D01*
X125207233Y-74273241D01*
X125073241Y-74407233D01*
X124993923Y-74460232D01*
X124915678Y-74512514D01*
X124780266Y-74568603D01*
X124740603Y-74585032D01*
X124554750Y-74622000D01*
X124365250Y-74622000D01*
X124179397Y-74585032D01*
X124139734Y-74568603D01*
X124004322Y-74512514D01*
X123926077Y-74460232D01*
X123846759Y-74407233D01*
X123712767Y-74273241D01*
X123607487Y-74115679D01*
X123607486Y-74115678D01*
X123534969Y-73940605D01*
X123534968Y-73940603D01*
X123498000Y-73754750D01*
X123498000Y-73565250D01*
X123534968Y-73379397D01*
X123567541Y-73300759D01*
X123607486Y-73204322D01*
X123712766Y-73046761D01*
X123712767Y-73046759D01*
X123846759Y-72912767D01*
X124004321Y-72807487D01*
X124004322Y-72807486D01*
X124179395Y-72734969D01*
X124179394Y-72734969D01*
X124179397Y-72734968D01*
X124365250Y-72698000D01*
X124554750Y-72698000D01*
X124740603Y-72734968D01*
X124740603Y-72734968D01*
G37*
G36*
X132810000Y-73490000D02*
X128810000Y-73490000D01*
X128810000Y-71290000D01*
X132810000Y-71290000D01*
X132810000Y-73490000D01*
X132810000Y-73490000D01*
G37*
G36*
X99340603Y-70448968D02*
X99340606Y-70448969D01*
X99340605Y-70448969D01*
X99515678Y-70521486D01*
X99515679Y-70521487D01*
X99673241Y-70626767D01*
X99807233Y-70760759D01*
X99859776Y-70839395D01*
X99912514Y-70918322D01*
X99925635Y-70950000D01*
X99985032Y-71093397D01*
X100022000Y-71279250D01*
X100022000Y-71468750D01*
X99985032Y-71654603D01*
X99985031Y-71654605D01*
X99912514Y-71829678D01*
X99860232Y-71907923D01*
X99807233Y-71987241D01*
X99673241Y-72121233D01*
X99593923Y-72174232D01*
X99515678Y-72226514D01*
X99380266Y-72282603D01*
X99340603Y-72299032D01*
X99154750Y-72336000D01*
X98965250Y-72336000D01*
X98779397Y-72299032D01*
X98739734Y-72282603D01*
X98604322Y-72226514D01*
X98526077Y-72174232D01*
X98446759Y-72121233D01*
X98312767Y-71987241D01*
X98259768Y-71907923D01*
X98207486Y-71829678D01*
X98134969Y-71654605D01*
X98134968Y-71654603D01*
X98098000Y-71468750D01*
X98098000Y-71279250D01*
X98134968Y-71093397D01*
X98194365Y-70950000D01*
X98207486Y-70918322D01*
X98260224Y-70839395D01*
X98312767Y-70760759D01*
X98446759Y-70626767D01*
X98604321Y-70521487D01*
X98604322Y-70521486D01*
X98779395Y-70448969D01*
X98779394Y-70448969D01*
X98779397Y-70448968D01*
X98965250Y-70412000D01*
X99154750Y-70412000D01*
X99340603Y-70448968D01*
X99340603Y-70448968D01*
G37*
G36*
X124740603Y-70194968D02*
X124740606Y-70194969D01*
X124740605Y-70194969D01*
X124915678Y-70267486D01*
X124915679Y-70267487D01*
X125073241Y-70372767D01*
X125207233Y-70506759D01*
X125207234Y-70506761D01*
X125312514Y-70664322D01*
X125352459Y-70760759D01*
X125385032Y-70839397D01*
X125422000Y-71025250D01*
X125422000Y-71214750D01*
X125385032Y-71400603D01*
X125385031Y-71400605D01*
X125312514Y-71575678D01*
X125312513Y-71575679D01*
X125207233Y-71733241D01*
X125073241Y-71867233D01*
X124993923Y-71920232D01*
X124915678Y-71972514D01*
X124780266Y-72028603D01*
X124740603Y-72045032D01*
X124554750Y-72082000D01*
X124365250Y-72082000D01*
X124179397Y-72045032D01*
X124139734Y-72028603D01*
X124004322Y-71972514D01*
X123926077Y-71920232D01*
X123846759Y-71867233D01*
X123712767Y-71733241D01*
X123607487Y-71575679D01*
X123607486Y-71575678D01*
X123534969Y-71400605D01*
X123534968Y-71400603D01*
X123498000Y-71214750D01*
X123498000Y-71025250D01*
X123534968Y-70839397D01*
X123567541Y-70760759D01*
X123607486Y-70664322D01*
X123712766Y-70506761D01*
X123712767Y-70506759D01*
X123846759Y-70372767D01*
X124004321Y-70267487D01*
X124004322Y-70267486D01*
X124179395Y-70194969D01*
X124179394Y-70194969D01*
X124179397Y-70194968D01*
X124365250Y-70158000D01*
X124554750Y-70158000D01*
X124740603Y-70194968D01*
X124740603Y-70194968D01*
G37*
G36*
X93825639Y-68765916D02*
X94032986Y-68828815D01*
X94032988Y-68828816D01*
X94224084Y-68930958D01*
X94391581Y-69068419D01*
X94529042Y-69235916D01*
X94631184Y-69427012D01*
X94631185Y-69427014D01*
X94694084Y-69634361D01*
X94715322Y-69850000D01*
X94694084Y-70065639D01*
X94654852Y-70194969D01*
X94631184Y-70272988D01*
X94529042Y-70464084D01*
X94391581Y-70631581D01*
X94224084Y-70769042D01*
X94032988Y-70871184D01*
X94032986Y-70871185D01*
X93825639Y-70934084D01*
X93664038Y-70950000D01*
X91755962Y-70950000D01*
X91594361Y-70934084D01*
X91387014Y-70871185D01*
X91387012Y-70871184D01*
X91195916Y-70769042D01*
X91028419Y-70631581D01*
X90890958Y-70464084D01*
X90788816Y-70272988D01*
X90765149Y-70194969D01*
X90725916Y-70065639D01*
X90704678Y-69850000D01*
X90725916Y-69634361D01*
X90788815Y-69427014D01*
X90788816Y-69427012D01*
X90890958Y-69235916D01*
X91028419Y-69068419D01*
X91195916Y-68930958D01*
X91387012Y-68828816D01*
X91387014Y-68828815D01*
X91594361Y-68765916D01*
X91755962Y-68750000D01*
X93664038Y-68750000D01*
X93825639Y-68765916D01*
X93825639Y-68765916D01*
G37*
G36*
X99340603Y-67908968D02*
X99340606Y-67908969D01*
X99340605Y-67908969D01*
X99515678Y-67981486D01*
X99515679Y-67981487D01*
X99673241Y-68086767D01*
X99807233Y-68220759D01*
X99807234Y-68220761D01*
X99912514Y-68378322D01*
X99956805Y-68485250D01*
X99985032Y-68553397D01*
X100022000Y-68739250D01*
X100022000Y-68928750D01*
X99985032Y-69114603D01*
X99985031Y-69114605D01*
X99912514Y-69289678D01*
X99860232Y-69367923D01*
X99807233Y-69447241D01*
X99673241Y-69581233D01*
X99593923Y-69634232D01*
X99515678Y-69686514D01*
X99380266Y-69742603D01*
X99340603Y-69759032D01*
X99154750Y-69796000D01*
X98965250Y-69796000D01*
X98779397Y-69759032D01*
X98739734Y-69742603D01*
X98604322Y-69686514D01*
X98526077Y-69634232D01*
X98446759Y-69581233D01*
X98312767Y-69447241D01*
X98259768Y-69367923D01*
X98207486Y-69289678D01*
X98134969Y-69114605D01*
X98134968Y-69114603D01*
X98098000Y-68928750D01*
X98098000Y-68739250D01*
X98134968Y-68553397D01*
X98163195Y-68485250D01*
X98207486Y-68378322D01*
X98312766Y-68220761D01*
X98312767Y-68220759D01*
X98446759Y-68086767D01*
X98604321Y-67981487D01*
X98604322Y-67981486D01*
X98779395Y-67908969D01*
X98779394Y-67908969D01*
X98779397Y-67908968D01*
X98965250Y-67872000D01*
X99154750Y-67872000D01*
X99340603Y-67908968D01*
X99340603Y-67908968D01*
G37*
G36*
X124740603Y-67654968D02*
X124740606Y-67654969D01*
X124740605Y-67654969D01*
X124915678Y-67727486D01*
X124915679Y-67727487D01*
X125073241Y-67832767D01*
X125207233Y-67966759D01*
X125207234Y-67966761D01*
X125312514Y-68124322D01*
X125352459Y-68220759D01*
X125385032Y-68299397D01*
X125422000Y-68485250D01*
X125422000Y-68674750D01*
X125385032Y-68860603D01*
X125385031Y-68860605D01*
X125312514Y-69035678D01*
X125312513Y-69035679D01*
X125207233Y-69193241D01*
X125073241Y-69327233D01*
X124993923Y-69380232D01*
X124915678Y-69432514D01*
X124780266Y-69488603D01*
X124740603Y-69505032D01*
X124554750Y-69542000D01*
X124365250Y-69542000D01*
X124179397Y-69505032D01*
X124139734Y-69488603D01*
X124004322Y-69432514D01*
X123926077Y-69380232D01*
X123846759Y-69327233D01*
X123712767Y-69193241D01*
X123607487Y-69035679D01*
X123607486Y-69035678D01*
X123534969Y-68860605D01*
X123534968Y-68860603D01*
X123498000Y-68674750D01*
X123498000Y-68485250D01*
X123534968Y-68299397D01*
X123567541Y-68220759D01*
X123607486Y-68124322D01*
X123712766Y-67966761D01*
X123712767Y-67966759D01*
X123846759Y-67832767D01*
X124004321Y-67727487D01*
X124004322Y-67727486D01*
X124179395Y-67654969D01*
X124179394Y-67654969D01*
X124179397Y-67654968D01*
X124365250Y-67618000D01*
X124554750Y-67618000D01*
X124740603Y-67654968D01*
X124740603Y-67654968D01*
G37*
G36*
X99340603Y-65368968D02*
X99340606Y-65368969D01*
X99340605Y-65368969D01*
X99515678Y-65441486D01*
X99515679Y-65441487D01*
X99673241Y-65546767D01*
X99807233Y-65680759D01*
X99859776Y-65759395D01*
X99912514Y-65838322D01*
X99925635Y-65870000D01*
X99985032Y-66013397D01*
X100022000Y-66199250D01*
X100022000Y-66388750D01*
X99985032Y-66574603D01*
X99985031Y-66574605D01*
X99912514Y-66749678D01*
X99860232Y-66827923D01*
X99807233Y-66907241D01*
X99673241Y-67041233D01*
X99593923Y-67094232D01*
X99515678Y-67146514D01*
X99380266Y-67202603D01*
X99340603Y-67219032D01*
X99154750Y-67256000D01*
X98965250Y-67256000D01*
X98779397Y-67219032D01*
X98739734Y-67202603D01*
X98604322Y-67146514D01*
X98526077Y-67094232D01*
X98446759Y-67041233D01*
X98312767Y-66907241D01*
X98259768Y-66827923D01*
X98207486Y-66749678D01*
X98134969Y-66574605D01*
X98134968Y-66574603D01*
X98098000Y-66388750D01*
X98098000Y-66199250D01*
X98134968Y-66013397D01*
X98194365Y-65870000D01*
X98207486Y-65838322D01*
X98260224Y-65759395D01*
X98312767Y-65680759D01*
X98446759Y-65546767D01*
X98604321Y-65441487D01*
X98604322Y-65441486D01*
X98779395Y-65368969D01*
X98779394Y-65368969D01*
X98779397Y-65368968D01*
X98965250Y-65332000D01*
X99154750Y-65332000D01*
X99340603Y-65368968D01*
X99340603Y-65368968D01*
G37*
G36*
X124740603Y-65114968D02*
X124740606Y-65114969D01*
X124740605Y-65114969D01*
X124915678Y-65187486D01*
X124915679Y-65187487D01*
X125073241Y-65292767D01*
X125207233Y-65426759D01*
X125207234Y-65426761D01*
X125312514Y-65584322D01*
X125352459Y-65680759D01*
X125385032Y-65759397D01*
X125422000Y-65945250D01*
X125422000Y-66134750D01*
X125385032Y-66320603D01*
X125385031Y-66320605D01*
X125312514Y-66495678D01*
X125312513Y-66495679D01*
X125207233Y-66653241D01*
X125073241Y-66787233D01*
X124993923Y-66840232D01*
X124915678Y-66892514D01*
X124780266Y-66948603D01*
X124740603Y-66965032D01*
X124554750Y-67002000D01*
X124365250Y-67002000D01*
X124179397Y-66965032D01*
X124139734Y-66948603D01*
X124004322Y-66892514D01*
X123926077Y-66840232D01*
X123846759Y-66787233D01*
X123712767Y-66653241D01*
X123607487Y-66495679D01*
X123607486Y-66495678D01*
X123534969Y-66320605D01*
X123534968Y-66320603D01*
X123498000Y-66134750D01*
X123498000Y-65945250D01*
X123534968Y-65759397D01*
X123567541Y-65680759D01*
X123607486Y-65584322D01*
X123712766Y-65426761D01*
X123712767Y-65426759D01*
X123846759Y-65292767D01*
X124004321Y-65187487D01*
X124004322Y-65187486D01*
X124179395Y-65114969D01*
X124179394Y-65114969D01*
X124179397Y-65114968D01*
X124365250Y-65078000D01*
X124554750Y-65078000D01*
X124740603Y-65114968D01*
X124740603Y-65114968D01*
G37*
G36*
X131925639Y-63685916D02*
X132132986Y-63748815D01*
X132132988Y-63748816D01*
X132324084Y-63850958D01*
X132491581Y-63988419D01*
X132629042Y-64155916D01*
X132731184Y-64347012D01*
X132731185Y-64347014D01*
X132794084Y-64554361D01*
X132815322Y-64770000D01*
X132794084Y-64985639D01*
X132754852Y-65114969D01*
X132731184Y-65192988D01*
X132629042Y-65384084D01*
X132491581Y-65551581D01*
X132324084Y-65689042D01*
X132132988Y-65791184D01*
X132132986Y-65791185D01*
X131925639Y-65854084D01*
X131764038Y-65870000D01*
X129855962Y-65870000D01*
X129694361Y-65854084D01*
X129487014Y-65791185D01*
X129487012Y-65791184D01*
X129295916Y-65689042D01*
X129128419Y-65551581D01*
X128990958Y-65384084D01*
X128888816Y-65192988D01*
X128865149Y-65114969D01*
X128825916Y-64985639D01*
X128804678Y-64770000D01*
X128825916Y-64554361D01*
X128888815Y-64347014D01*
X128888816Y-64347012D01*
X128990958Y-64155916D01*
X129128419Y-63988419D01*
X129295916Y-63850958D01*
X129487012Y-63748816D01*
X129487014Y-63748815D01*
X129694361Y-63685916D01*
X129855962Y-63670000D01*
X131764038Y-63670000D01*
X131925639Y-63685916D01*
X131925639Y-63685916D01*
G37*
G36*
X93825639Y-63685916D02*
X94032986Y-63748815D01*
X94032988Y-63748816D01*
X94224084Y-63850958D01*
X94391581Y-63988419D01*
X94529042Y-64155916D01*
X94631184Y-64347012D01*
X94631185Y-64347014D01*
X94694084Y-64554361D01*
X94715322Y-64770000D01*
X94694084Y-64985639D01*
X94654852Y-65114969D01*
X94631184Y-65192988D01*
X94529042Y-65384084D01*
X94391581Y-65551581D01*
X94224084Y-65689042D01*
X94032988Y-65791184D01*
X94032986Y-65791185D01*
X93825639Y-65854084D01*
X93664038Y-65870000D01*
X91755962Y-65870000D01*
X91594361Y-65854084D01*
X91387014Y-65791185D01*
X91387012Y-65791184D01*
X91195916Y-65689042D01*
X91028419Y-65551581D01*
X90890958Y-65384084D01*
X90788816Y-65192988D01*
X90765149Y-65114969D01*
X90725916Y-64985639D01*
X90704678Y-64770000D01*
X90725916Y-64554361D01*
X90788815Y-64347014D01*
X90788816Y-64347012D01*
X90890958Y-64155916D01*
X91028419Y-63988419D01*
X91195916Y-63850958D01*
X91387012Y-63748816D01*
X91387014Y-63748815D01*
X91594361Y-63685916D01*
X91755962Y-63670000D01*
X93664038Y-63670000D01*
X93825639Y-63685916D01*
X93825639Y-63685916D01*
G37*
G36*
X99340603Y-62828968D02*
X99340606Y-62828969D01*
X99340605Y-62828969D01*
X99515678Y-62901486D01*
X99515679Y-62901487D01*
X99673241Y-63006767D01*
X99807233Y-63140759D01*
X99807234Y-63140761D01*
X99912514Y-63298322D01*
X99956805Y-63405250D01*
X99985032Y-63473397D01*
X100022000Y-63659250D01*
X100022000Y-63848750D01*
X99985032Y-64034603D01*
X99985031Y-64034605D01*
X99912514Y-64209678D01*
X99860232Y-64287923D01*
X99807233Y-64367241D01*
X99673241Y-64501233D01*
X99593923Y-64554232D01*
X99515678Y-64606514D01*
X99380266Y-64662603D01*
X99340603Y-64679032D01*
X99154750Y-64716000D01*
X98965250Y-64716000D01*
X98779397Y-64679032D01*
X98739734Y-64662603D01*
X98604322Y-64606514D01*
X98526077Y-64554232D01*
X98446759Y-64501233D01*
X98312767Y-64367241D01*
X98259768Y-64287923D01*
X98207486Y-64209678D01*
X98134969Y-64034605D01*
X98134968Y-64034603D01*
X98098000Y-63848750D01*
X98098000Y-63659250D01*
X98134968Y-63473397D01*
X98163195Y-63405250D01*
X98207486Y-63298322D01*
X98312766Y-63140761D01*
X98312767Y-63140759D01*
X98446759Y-63006767D01*
X98604321Y-62901487D01*
X98604322Y-62901486D01*
X98779395Y-62828969D01*
X98779394Y-62828969D01*
X98779397Y-62828968D01*
X98965250Y-62792000D01*
X99154750Y-62792000D01*
X99340603Y-62828968D01*
X99340603Y-62828968D01*
G37*
G36*
X124740603Y-62574968D02*
X124740606Y-62574969D01*
X124740605Y-62574969D01*
X124915678Y-62647486D01*
X124915679Y-62647487D01*
X125073241Y-62752767D01*
X125207233Y-62886759D01*
X125207234Y-62886761D01*
X125312514Y-63044322D01*
X125352459Y-63140759D01*
X125385032Y-63219397D01*
X125422000Y-63405250D01*
X125422000Y-63594750D01*
X125385032Y-63780603D01*
X125385031Y-63780605D01*
X125312514Y-63955678D01*
X125312513Y-63955679D01*
X125207233Y-64113241D01*
X125073241Y-64247233D01*
X124993923Y-64300232D01*
X124915678Y-64352514D01*
X124780266Y-64408603D01*
X124740603Y-64425032D01*
X124554750Y-64462000D01*
X124365250Y-64462000D01*
X124179397Y-64425032D01*
X124139734Y-64408603D01*
X124004322Y-64352514D01*
X123926077Y-64300232D01*
X123846759Y-64247233D01*
X123712767Y-64113241D01*
X123607487Y-63955679D01*
X123607486Y-63955678D01*
X123534969Y-63780605D01*
X123534968Y-63780603D01*
X123498000Y-63594750D01*
X123498000Y-63405250D01*
X123534968Y-63219397D01*
X123567541Y-63140759D01*
X123607486Y-63044322D01*
X123712766Y-62886761D01*
X123712767Y-62886759D01*
X123846759Y-62752767D01*
X124004321Y-62647487D01*
X124004322Y-62647486D01*
X124179395Y-62574969D01*
X124179394Y-62574969D01*
X124179397Y-62574968D01*
X124365250Y-62538000D01*
X124554750Y-62538000D01*
X124740603Y-62574968D01*
X124740603Y-62574968D01*
G37*
G36*
X124740603Y-60288968D02*
X124740606Y-60288969D01*
X124740605Y-60288969D01*
X124915678Y-60361486D01*
X124915679Y-60361487D01*
X125073241Y-60466767D01*
X125207233Y-60600759D01*
X125260232Y-60680077D01*
X125312514Y-60758322D01*
X125325635Y-60790000D01*
X125385032Y-60933397D01*
X125422000Y-61119250D01*
X125422000Y-61308750D01*
X125385032Y-61494603D01*
X125385031Y-61494605D01*
X125312514Y-61669678D01*
X125312513Y-61669679D01*
X125207233Y-61827241D01*
X125073241Y-61961233D01*
X124993923Y-62014232D01*
X124915678Y-62066514D01*
X124780266Y-62122603D01*
X124740603Y-62139032D01*
X124554750Y-62176000D01*
X124365250Y-62176000D01*
X124179397Y-62139032D01*
X124139734Y-62122603D01*
X124004322Y-62066514D01*
X123926077Y-62014232D01*
X123846759Y-61961233D01*
X123712767Y-61827241D01*
X123607487Y-61669679D01*
X123607486Y-61669678D01*
X123534969Y-61494605D01*
X123534968Y-61494603D01*
X123498000Y-61308750D01*
X123498000Y-61119250D01*
X123534968Y-60933397D01*
X123594365Y-60790000D01*
X123607486Y-60758322D01*
X123659768Y-60680077D01*
X123712767Y-60600759D01*
X123846759Y-60466767D01*
X124004321Y-60361487D01*
X124004322Y-60361486D01*
X124179395Y-60288969D01*
X124179394Y-60288969D01*
X124179397Y-60288968D01*
X124365250Y-60252000D01*
X124554750Y-60252000D01*
X124740603Y-60288968D01*
X124740603Y-60288968D01*
G37*
G36*
X99340603Y-60288968D02*
X99340606Y-60288969D01*
X99340605Y-60288969D01*
X99515678Y-60361486D01*
X99515679Y-60361487D01*
X99673241Y-60466767D01*
X99807233Y-60600759D01*
X99860232Y-60680077D01*
X99912514Y-60758322D01*
X99925635Y-60790000D01*
X99985032Y-60933397D01*
X100022000Y-61119250D01*
X100022000Y-61308750D01*
X99985032Y-61494603D01*
X99985031Y-61494605D01*
X99912514Y-61669678D01*
X99912513Y-61669679D01*
X99807233Y-61827241D01*
X99673241Y-61961233D01*
X99593923Y-62014232D01*
X99515678Y-62066514D01*
X99380266Y-62122603D01*
X99340603Y-62139032D01*
X99154750Y-62176000D01*
X98965250Y-62176000D01*
X98779397Y-62139032D01*
X98739734Y-62122603D01*
X98604322Y-62066514D01*
X98526077Y-62014232D01*
X98446759Y-61961233D01*
X98312767Y-61827241D01*
X98207487Y-61669679D01*
X98207486Y-61669678D01*
X98134969Y-61494605D01*
X98134968Y-61494603D01*
X98098000Y-61308750D01*
X98098000Y-61119250D01*
X98134968Y-60933397D01*
X98194365Y-60790000D01*
X98207486Y-60758322D01*
X98259768Y-60680077D01*
X98312767Y-60600759D01*
X98446759Y-60466767D01*
X98604321Y-60361487D01*
X98604322Y-60361486D01*
X98779395Y-60288969D01*
X98779394Y-60288969D01*
X98779397Y-60288968D01*
X98965250Y-60252000D01*
X99154750Y-60252000D01*
X99340603Y-60288968D01*
X99340603Y-60288968D01*
G37*
G36*
X131925639Y-58605916D02*
X132132986Y-58668815D01*
X132132988Y-58668816D01*
X132324084Y-58770958D01*
X132491581Y-58908419D01*
X132629042Y-59075916D01*
X132731184Y-59267012D01*
X132794084Y-59474362D01*
X132815322Y-59690000D01*
X132794084Y-59905638D01*
X132731184Y-60112988D01*
X132629042Y-60304084D01*
X132491581Y-60471581D01*
X132324084Y-60609042D01*
X132132988Y-60711184D01*
X132132986Y-60711185D01*
X131925639Y-60774084D01*
X131764038Y-60790000D01*
X129855962Y-60790000D01*
X129694361Y-60774084D01*
X129487014Y-60711185D01*
X129487012Y-60711184D01*
X129295916Y-60609042D01*
X129128419Y-60471581D01*
X128990958Y-60304084D01*
X128888816Y-60112988D01*
X128825916Y-59905638D01*
X128804678Y-59690000D01*
X128825916Y-59474362D01*
X128888816Y-59267012D01*
X128990958Y-59075916D01*
X129128419Y-58908419D01*
X129295916Y-58770958D01*
X129487012Y-58668816D01*
X129487014Y-58668815D01*
X129694361Y-58605916D01*
X129855962Y-58590000D01*
X131764038Y-58590000D01*
X131925639Y-58605916D01*
X131925639Y-58605916D01*
G37*
G36*
X94710000Y-56980000D02*
X90710000Y-56980000D01*
X90710000Y-54780000D01*
X94710000Y-54780000D01*
X94710000Y-56980000D01*
X94710000Y-56980000D01*
G37*
G36*
X131925639Y-53525916D02*
X132132986Y-53588815D01*
X132132988Y-53588816D01*
X132324084Y-53690958D01*
X132491581Y-53828419D01*
X132629042Y-53995916D01*
X132731184Y-54187012D01*
X132794084Y-54394362D01*
X132815322Y-54610000D01*
X132794084Y-54825638D01*
X132731184Y-55032988D01*
X132629042Y-55224084D01*
X132491581Y-55391581D01*
X132324084Y-55529042D01*
X132132988Y-55631184D01*
X132132986Y-55631185D01*
X131925639Y-55694084D01*
X131764038Y-55710000D01*
X129855962Y-55710000D01*
X129694361Y-55694084D01*
X129487014Y-55631185D01*
X129487012Y-55631184D01*
X129295916Y-55529042D01*
X129128419Y-55391581D01*
X128990958Y-55224084D01*
X128888816Y-55032988D01*
X128825916Y-54825638D01*
X128804678Y-54610000D01*
X128825916Y-54394362D01*
X128888816Y-54187012D01*
X128990958Y-53995916D01*
X129128419Y-53828419D01*
X129295916Y-53690958D01*
X129487012Y-53588816D01*
X129487014Y-53588815D01*
X129694361Y-53525916D01*
X129855962Y-53510000D01*
X131764038Y-53510000D01*
X131925639Y-53525916D01*
X131925639Y-53525916D01*
G37*
G36*
X110770603Y-51144968D02*
X110770606Y-51144969D01*
X110770605Y-51144969D01*
X110945678Y-51217486D01*
X110945679Y-51217487D01*
X111103241Y-51322767D01*
X111237233Y-51456759D01*
X111237234Y-51456761D01*
X111342514Y-51614322D01*
X111385890Y-51719042D01*
X111415032Y-51789397D01*
X111452000Y-51975250D01*
X111452000Y-52164750D01*
X111415032Y-52350603D01*
X111415031Y-52350605D01*
X111342514Y-52525678D01*
X111342513Y-52525679D01*
X111237233Y-52683241D01*
X111103241Y-52817233D01*
X111023923Y-52870232D01*
X110945678Y-52922514D01*
X110810266Y-52978603D01*
X110770603Y-52995032D01*
X110584750Y-53032000D01*
X110395250Y-53032000D01*
X110209397Y-52995032D01*
X110169734Y-52978603D01*
X110034322Y-52922514D01*
X109956077Y-52870232D01*
X109876759Y-52817233D01*
X109742767Y-52683241D01*
X109637487Y-52525679D01*
X109637486Y-52525678D01*
X109564969Y-52350605D01*
X109564968Y-52350603D01*
X109528000Y-52164750D01*
X109528000Y-51975250D01*
X109564968Y-51789397D01*
X109594110Y-51719042D01*
X109637486Y-51614322D01*
X109742766Y-51456761D01*
X109742767Y-51456759D01*
X109876759Y-51322767D01*
X110034321Y-51217487D01*
X110034322Y-51217486D01*
X110209395Y-51144969D01*
X110209394Y-51144969D01*
X110209397Y-51144968D01*
X110395250Y-51108000D01*
X110584750Y-51108000D01*
X110770603Y-51144968D01*
X110770603Y-51144968D01*
G37*
G36*
X113310603Y-51144968D02*
X113310606Y-51144969D01*
X113310605Y-51144969D01*
X113485678Y-51217486D01*
X113485679Y-51217487D01*
X113643241Y-51322767D01*
X113777233Y-51456759D01*
X113777234Y-51456761D01*
X113882514Y-51614322D01*
X113925890Y-51719042D01*
X113955032Y-51789397D01*
X113992000Y-51975250D01*
X113992000Y-52164750D01*
X113955032Y-52350603D01*
X113955031Y-52350605D01*
X113882514Y-52525678D01*
X113882513Y-52525679D01*
X113777233Y-52683241D01*
X113643241Y-52817233D01*
X113563923Y-52870232D01*
X113485678Y-52922514D01*
X113350266Y-52978603D01*
X113310603Y-52995032D01*
X113124750Y-53032000D01*
X112935250Y-53032000D01*
X112749397Y-52995032D01*
X112709734Y-52978603D01*
X112574322Y-52922514D01*
X112496077Y-52870232D01*
X112416759Y-52817233D01*
X112282767Y-52683241D01*
X112177487Y-52525679D01*
X112177486Y-52525678D01*
X112104969Y-52350605D01*
X112104968Y-52350603D01*
X112068000Y-52164750D01*
X112068000Y-51975250D01*
X112104968Y-51789397D01*
X112134110Y-51719042D01*
X112177486Y-51614322D01*
X112282766Y-51456761D01*
X112282767Y-51456759D01*
X112416759Y-51322767D01*
X112574321Y-51217487D01*
X112574322Y-51217486D01*
X112749395Y-51144969D01*
X112749394Y-51144969D01*
X112749397Y-51144968D01*
X112935250Y-51108000D01*
X113124750Y-51108000D01*
X113310603Y-51144968D01*
X113310603Y-51144968D01*
G37*
G36*
X115850603Y-51144968D02*
X115850606Y-51144969D01*
X115850605Y-51144969D01*
X116025678Y-51217486D01*
X116025679Y-51217487D01*
X116183241Y-51322767D01*
X116317233Y-51456759D01*
X116317234Y-51456761D01*
X116422514Y-51614322D01*
X116465890Y-51719042D01*
X116495032Y-51789397D01*
X116532000Y-51975250D01*
X116532000Y-52164750D01*
X116495032Y-52350603D01*
X116495031Y-52350605D01*
X116422514Y-52525678D01*
X116422513Y-52525679D01*
X116317233Y-52683241D01*
X116183241Y-52817233D01*
X116103923Y-52870232D01*
X116025678Y-52922514D01*
X115890266Y-52978603D01*
X115850603Y-52995032D01*
X115664750Y-53032000D01*
X115475250Y-53032000D01*
X115289397Y-52995032D01*
X115249734Y-52978603D01*
X115114322Y-52922514D01*
X115036077Y-52870232D01*
X114956759Y-52817233D01*
X114822767Y-52683241D01*
X114717487Y-52525679D01*
X114717486Y-52525678D01*
X114644969Y-52350605D01*
X114644968Y-52350603D01*
X114608000Y-52164750D01*
X114608000Y-51975250D01*
X114644968Y-51789397D01*
X114674110Y-51719042D01*
X114717486Y-51614322D01*
X114822766Y-51456761D01*
X114822767Y-51456759D01*
X114956759Y-51322767D01*
X115114321Y-51217487D01*
X115114322Y-51217486D01*
X115289395Y-51144969D01*
X115289394Y-51144969D01*
X115289397Y-51144968D01*
X115475250Y-51108000D01*
X115664750Y-51108000D01*
X115850603Y-51144968D01*
X115850603Y-51144968D01*
G37*
G36*
X108230603Y-51144968D02*
X108230606Y-51144969D01*
X108230605Y-51144969D01*
X108405678Y-51217486D01*
X108405679Y-51217487D01*
X108563241Y-51322767D01*
X108697233Y-51456759D01*
X108697234Y-51456761D01*
X108802514Y-51614322D01*
X108845890Y-51719042D01*
X108875032Y-51789397D01*
X108912000Y-51975250D01*
X108912000Y-52164750D01*
X108875032Y-52350603D01*
X108875031Y-52350605D01*
X108802514Y-52525678D01*
X108802513Y-52525679D01*
X108697233Y-52683241D01*
X108563241Y-52817233D01*
X108483923Y-52870232D01*
X108405678Y-52922514D01*
X108270266Y-52978603D01*
X108230603Y-52995032D01*
X108044750Y-53032000D01*
X107855250Y-53032000D01*
X107669397Y-52995032D01*
X107629734Y-52978603D01*
X107494322Y-52922514D01*
X107416077Y-52870232D01*
X107336759Y-52817233D01*
X107202767Y-52683241D01*
X107097487Y-52525679D01*
X107097486Y-52525678D01*
X107024969Y-52350605D01*
X107024968Y-52350603D01*
X106988000Y-52164750D01*
X106988000Y-51975250D01*
X107024968Y-51789397D01*
X107054110Y-51719042D01*
X107097486Y-51614322D01*
X107202766Y-51456761D01*
X107202767Y-51456759D01*
X107336759Y-51322767D01*
X107494321Y-51217487D01*
X107494322Y-51217486D01*
X107669395Y-51144969D01*
X107669394Y-51144969D01*
X107669397Y-51144968D01*
X107855250Y-51108000D01*
X108044750Y-51108000D01*
X108230603Y-51144968D01*
X108230603Y-51144968D01*
G37*
G36*
X105690603Y-51144968D02*
X105690606Y-51144969D01*
X105690605Y-51144969D01*
X105865678Y-51217486D01*
X105865679Y-51217487D01*
X106023241Y-51322767D01*
X106157233Y-51456759D01*
X106157234Y-51456761D01*
X106262514Y-51614322D01*
X106305890Y-51719042D01*
X106335032Y-51789397D01*
X106372000Y-51975250D01*
X106372000Y-52164750D01*
X106335032Y-52350603D01*
X106335031Y-52350605D01*
X106262514Y-52525678D01*
X106262513Y-52525679D01*
X106157233Y-52683241D01*
X106023241Y-52817233D01*
X105943923Y-52870232D01*
X105865678Y-52922514D01*
X105730266Y-52978603D01*
X105690603Y-52995032D01*
X105504750Y-53032000D01*
X105315250Y-53032000D01*
X105129397Y-52995032D01*
X105089734Y-52978603D01*
X104954322Y-52922514D01*
X104876077Y-52870232D01*
X104796759Y-52817233D01*
X104662767Y-52683241D01*
X104557487Y-52525679D01*
X104557486Y-52525678D01*
X104484969Y-52350605D01*
X104484968Y-52350603D01*
X104448000Y-52164750D01*
X104448000Y-51975250D01*
X104484968Y-51789397D01*
X104514110Y-51719042D01*
X104557486Y-51614322D01*
X104662766Y-51456761D01*
X104662767Y-51456759D01*
X104796759Y-51322767D01*
X104954321Y-51217487D01*
X104954322Y-51217486D01*
X105129395Y-51144969D01*
X105129394Y-51144969D01*
X105129397Y-51144968D01*
X105315250Y-51108000D01*
X105504750Y-51108000D01*
X105690603Y-51144968D01*
X105690603Y-51144968D01*
G37*
G36*
X118390603Y-51144968D02*
X118390606Y-51144969D01*
X118390605Y-51144969D01*
X118565678Y-51217486D01*
X118565679Y-51217487D01*
X118723241Y-51322767D01*
X118857233Y-51456759D01*
X118857234Y-51456761D01*
X118962514Y-51614322D01*
X119005890Y-51719042D01*
X119035032Y-51789397D01*
X119072000Y-51975250D01*
X119072000Y-52164750D01*
X119035032Y-52350603D01*
X119035031Y-52350605D01*
X118962514Y-52525678D01*
X118962513Y-52525679D01*
X118857233Y-52683241D01*
X118723241Y-52817233D01*
X118643923Y-52870232D01*
X118565678Y-52922514D01*
X118430266Y-52978603D01*
X118390603Y-52995032D01*
X118204750Y-53032000D01*
X118015250Y-53032000D01*
X117829397Y-52995032D01*
X117789734Y-52978603D01*
X117654322Y-52922514D01*
X117576077Y-52870232D01*
X117496759Y-52817233D01*
X117362767Y-52683241D01*
X117257487Y-52525679D01*
X117257486Y-52525678D01*
X117184969Y-52350605D01*
X117184968Y-52350603D01*
X117148000Y-52164750D01*
X117148000Y-51975250D01*
X117184968Y-51789397D01*
X117214110Y-51719042D01*
X117257486Y-51614322D01*
X117362766Y-51456761D01*
X117362767Y-51456759D01*
X117496759Y-51322767D01*
X117654321Y-51217487D01*
X117654322Y-51217486D01*
X117829395Y-51144969D01*
X117829394Y-51144969D01*
X117829397Y-51144968D01*
X118015250Y-51108000D01*
X118204750Y-51108000D01*
X118390603Y-51144968D01*
X118390603Y-51144968D01*
G37*
G36*
X120930603Y-51144968D02*
X120930606Y-51144969D01*
X120930605Y-51144969D01*
X121105678Y-51217486D01*
X121105679Y-51217487D01*
X121263241Y-51322767D01*
X121397233Y-51456759D01*
X121397234Y-51456761D01*
X121502514Y-51614322D01*
X121545890Y-51719042D01*
X121575032Y-51789397D01*
X121612000Y-51975250D01*
X121612000Y-52164750D01*
X121575032Y-52350603D01*
X121575031Y-52350605D01*
X121502514Y-52525678D01*
X121502513Y-52525679D01*
X121397233Y-52683241D01*
X121263241Y-52817233D01*
X121183923Y-52870232D01*
X121105678Y-52922514D01*
X120970266Y-52978603D01*
X120930603Y-52995032D01*
X120744750Y-53032000D01*
X120555250Y-53032000D01*
X120369397Y-52995032D01*
X120329734Y-52978603D01*
X120194322Y-52922514D01*
X120116077Y-52870232D01*
X120036759Y-52817233D01*
X119902767Y-52683241D01*
X119797487Y-52525679D01*
X119797486Y-52525678D01*
X119724969Y-52350605D01*
X119724968Y-52350603D01*
X119688000Y-52164750D01*
X119688000Y-51975250D01*
X119724968Y-51789397D01*
X119754110Y-51719042D01*
X119797486Y-51614322D01*
X119902766Y-51456761D01*
X119902767Y-51456759D01*
X120036759Y-51322767D01*
X120194321Y-51217487D01*
X120194322Y-51217486D01*
X120369395Y-51144969D01*
X120369394Y-51144969D01*
X120369397Y-51144968D01*
X120555250Y-51108000D01*
X120744750Y-51108000D01*
X120930603Y-51144968D01*
X120930603Y-51144968D01*
G37*
G36*
X123470603Y-51144968D02*
X123470606Y-51144969D01*
X123470605Y-51144969D01*
X123645678Y-51217486D01*
X123645679Y-51217487D01*
X123803241Y-51322767D01*
X123937233Y-51456759D01*
X123937234Y-51456761D01*
X124042514Y-51614322D01*
X124085890Y-51719042D01*
X124115032Y-51789397D01*
X124152000Y-51975250D01*
X124152000Y-52164750D01*
X124115032Y-52350603D01*
X124115031Y-52350605D01*
X124042514Y-52525678D01*
X124042513Y-52525679D01*
X123937233Y-52683241D01*
X123803241Y-52817233D01*
X123723923Y-52870232D01*
X123645678Y-52922514D01*
X123510266Y-52978603D01*
X123470603Y-52995032D01*
X123284750Y-53032000D01*
X123095250Y-53032000D01*
X122909397Y-52995032D01*
X122869734Y-52978603D01*
X122734322Y-52922514D01*
X122656077Y-52870232D01*
X122576759Y-52817233D01*
X122442767Y-52683241D01*
X122337487Y-52525679D01*
X122337486Y-52525678D01*
X122264969Y-52350605D01*
X122264968Y-52350603D01*
X122228000Y-52164750D01*
X122228000Y-51975250D01*
X122264968Y-51789397D01*
X122294110Y-51719042D01*
X122337486Y-51614322D01*
X122442766Y-51456761D01*
X122442767Y-51456759D01*
X122576759Y-51322767D01*
X122734321Y-51217487D01*
X122734322Y-51217486D01*
X122909395Y-51144969D01*
X122909394Y-51144969D01*
X122909397Y-51144968D01*
X123095250Y-51108000D01*
X123284750Y-51108000D01*
X123470603Y-51144968D01*
X123470603Y-51144968D01*
G37*
G36*
X103150603Y-51144968D02*
X103150606Y-51144969D01*
X103150605Y-51144969D01*
X103325678Y-51217486D01*
X103325679Y-51217487D01*
X103483241Y-51322767D01*
X103617233Y-51456759D01*
X103617234Y-51456761D01*
X103722514Y-51614322D01*
X103765890Y-51719042D01*
X103795032Y-51789397D01*
X103832000Y-51975250D01*
X103832000Y-52164750D01*
X103795032Y-52350603D01*
X103795031Y-52350605D01*
X103722514Y-52525678D01*
X103722513Y-52525679D01*
X103617233Y-52683241D01*
X103483241Y-52817233D01*
X103403923Y-52870232D01*
X103325678Y-52922514D01*
X103190266Y-52978603D01*
X103150603Y-52995032D01*
X102964750Y-53032000D01*
X102775250Y-53032000D01*
X102589397Y-52995032D01*
X102549734Y-52978603D01*
X102414322Y-52922514D01*
X102336077Y-52870232D01*
X102256759Y-52817233D01*
X102122767Y-52683241D01*
X102017487Y-52525679D01*
X102017486Y-52525678D01*
X101944969Y-52350605D01*
X101944968Y-52350603D01*
X101908000Y-52164750D01*
X101908000Y-51975250D01*
X101944968Y-51789397D01*
X101974110Y-51719042D01*
X102017486Y-51614322D01*
X102122766Y-51456761D01*
X102122767Y-51456759D01*
X102256759Y-51322767D01*
X102414321Y-51217487D01*
X102414322Y-51217486D01*
X102589395Y-51144969D01*
X102589394Y-51144969D01*
X102589397Y-51144968D01*
X102775250Y-51108000D01*
X102964750Y-51108000D01*
X103150603Y-51144968D01*
X103150603Y-51144968D01*
G37*
G36*
X100610603Y-51144968D02*
X100610606Y-51144969D01*
X100610605Y-51144969D01*
X100785678Y-51217486D01*
X100785679Y-51217487D01*
X100943241Y-51322767D01*
X101077233Y-51456759D01*
X101077234Y-51456761D01*
X101182514Y-51614322D01*
X101225890Y-51719042D01*
X101255032Y-51789397D01*
X101292000Y-51975250D01*
X101292000Y-52164750D01*
X101255032Y-52350603D01*
X101255031Y-52350605D01*
X101182514Y-52525678D01*
X101182513Y-52525679D01*
X101077233Y-52683241D01*
X100943241Y-52817233D01*
X100863923Y-52870232D01*
X100785678Y-52922514D01*
X100650266Y-52978603D01*
X100610603Y-52995032D01*
X100424750Y-53032000D01*
X100235250Y-53032000D01*
X100049397Y-52995032D01*
X100009734Y-52978603D01*
X99874322Y-52922514D01*
X99796077Y-52870232D01*
X99716759Y-52817233D01*
X99582767Y-52683241D01*
X99477487Y-52525679D01*
X99477486Y-52525678D01*
X99404969Y-52350605D01*
X99404968Y-52350603D01*
X99368000Y-52164750D01*
X99368000Y-51975250D01*
X99404968Y-51789397D01*
X99434110Y-51719042D01*
X99477486Y-51614322D01*
X99582766Y-51456761D01*
X99582767Y-51456759D01*
X99716759Y-51322767D01*
X99874321Y-51217487D01*
X99874322Y-51217486D01*
X100049395Y-51144969D01*
X100049394Y-51144969D01*
X100049397Y-51144968D01*
X100235250Y-51108000D01*
X100424750Y-51108000D01*
X100610603Y-51144968D01*
X100610603Y-51144968D01*
G37*
G36*
X93825639Y-49715916D02*
X94032986Y-49778815D01*
X94032988Y-49778816D01*
X94224084Y-49880958D01*
X94391581Y-50018419D01*
X94529042Y-50185916D01*
X94631184Y-50377012D01*
X94631185Y-50377014D01*
X94694084Y-50584361D01*
X94715322Y-50800000D01*
X94694084Y-51015639D01*
X94654852Y-51144969D01*
X94631184Y-51222988D01*
X94529042Y-51414084D01*
X94391581Y-51581581D01*
X94224084Y-51719042D01*
X94032988Y-51821184D01*
X94032986Y-51821185D01*
X93825639Y-51884084D01*
X93664038Y-51900000D01*
X91755962Y-51900000D01*
X91594361Y-51884084D01*
X91387014Y-51821185D01*
X91387012Y-51821184D01*
X91195916Y-51719042D01*
X91028419Y-51581581D01*
X90890958Y-51414084D01*
X90788816Y-51222988D01*
X90765149Y-51144969D01*
X90725916Y-51015639D01*
X90704678Y-50800000D01*
X90725916Y-50584361D01*
X90788815Y-50377014D01*
X90788816Y-50377012D01*
X90890958Y-50185916D01*
X91028419Y-50018419D01*
X91195916Y-49880958D01*
X91387012Y-49778816D01*
X91387014Y-49778815D01*
X91594361Y-49715916D01*
X91755962Y-49700000D01*
X93664038Y-49700000D01*
X93825639Y-49715916D01*
X93825639Y-49715916D01*
G37*
G36*
X131925639Y-48445916D02*
X132132986Y-48508815D01*
X132132988Y-48508816D01*
X132324084Y-48610958D01*
X132491581Y-48748419D01*
X132629042Y-48915916D01*
X132731184Y-49107012D01*
X132731185Y-49107014D01*
X132794084Y-49314361D01*
X132815322Y-49530000D01*
X132794084Y-49745639D01*
X132753035Y-49880958D01*
X132731184Y-49952988D01*
X132629042Y-50144084D01*
X132491581Y-50311581D01*
X132324084Y-50449042D01*
X132132988Y-50551184D01*
X132132986Y-50551185D01*
X131925639Y-50614084D01*
X131764038Y-50630000D01*
X129855962Y-50630000D01*
X129694361Y-50614084D01*
X129487014Y-50551185D01*
X129487012Y-50551184D01*
X129295916Y-50449042D01*
X129128419Y-50311581D01*
X128990958Y-50144084D01*
X128888816Y-49952988D01*
X128866966Y-49880958D01*
X128825916Y-49745639D01*
X128804678Y-49530000D01*
X128825916Y-49314361D01*
X128888815Y-49107014D01*
X128888816Y-49107012D01*
X128990958Y-48915916D01*
X129128419Y-48748419D01*
X129295916Y-48610958D01*
X129487012Y-48508816D01*
X129487014Y-48508815D01*
X129694361Y-48445916D01*
X129855962Y-48430000D01*
X131764038Y-48430000D01*
X131925639Y-48445916D01*
X131925639Y-48445916D01*
G37*
G36*
X93825639Y-44635916D02*
X94032986Y-44698815D01*
X94032988Y-44698816D01*
X94224084Y-44800958D01*
X94391581Y-44938419D01*
X94529042Y-45105916D01*
X94631184Y-45297012D01*
X94631185Y-45297014D01*
X94684020Y-45471185D01*
X94694084Y-45504362D01*
X94715322Y-45720000D01*
X94694084Y-45935638D01*
X94631184Y-46142988D01*
X94529042Y-46334084D01*
X94391581Y-46501581D01*
X94224084Y-46639042D01*
X94032988Y-46741184D01*
X94032986Y-46741185D01*
X93825639Y-46804084D01*
X93664038Y-46820000D01*
X91755962Y-46820000D01*
X91594361Y-46804084D01*
X91387014Y-46741185D01*
X91387012Y-46741184D01*
X91195916Y-46639042D01*
X91028419Y-46501581D01*
X90890958Y-46334084D01*
X90788816Y-46142988D01*
X90725916Y-45935638D01*
X90704678Y-45720000D01*
X90725916Y-45504362D01*
X90735980Y-45471185D01*
X90788815Y-45297014D01*
X90788816Y-45297012D01*
X90890958Y-45105916D01*
X91028419Y-44938419D01*
X91195916Y-44800958D01*
X91387012Y-44698816D01*
X91387014Y-44698815D01*
X91594361Y-44635916D01*
X91755962Y-44620000D01*
X93664038Y-44620000D01*
X93825639Y-44635916D01*
X93825639Y-44635916D01*
G37*
G36*
X131925639Y-43365916D02*
X132132986Y-43428815D01*
X132132988Y-43428816D01*
X132324084Y-43530958D01*
X132491581Y-43668419D01*
X132629042Y-43835916D01*
X132731184Y-44027012D01*
X132731185Y-44027014D01*
X132794084Y-44234361D01*
X132815322Y-44450000D01*
X132794084Y-44665639D01*
X132753035Y-44800958D01*
X132731184Y-44872988D01*
X132629042Y-45064084D01*
X132491581Y-45231581D01*
X132324084Y-45369042D01*
X132132988Y-45471184D01*
X132132986Y-45471185D01*
X131925639Y-45534084D01*
X131764038Y-45550000D01*
X129855962Y-45550000D01*
X129694361Y-45534084D01*
X129487014Y-45471185D01*
X129487012Y-45471184D01*
X129295916Y-45369042D01*
X129128419Y-45231581D01*
X128990958Y-45064084D01*
X128888816Y-44872988D01*
X128866966Y-44800958D01*
X128825916Y-44665639D01*
X128804678Y-44450000D01*
X128825916Y-44234361D01*
X128888815Y-44027014D01*
X128888816Y-44027012D01*
X128990958Y-43835916D01*
X129128419Y-43668419D01*
X129295916Y-43530958D01*
X129487012Y-43428816D01*
X129487014Y-43428815D01*
X129694361Y-43365916D01*
X129855962Y-43350000D01*
X131764038Y-43350000D01*
X131925639Y-43365916D01*
X131925639Y-43365916D01*
G37*
G36*
X140852172Y-34301796D02*
X141571025Y-34599555D01*
X142217981Y-35031837D01*
X142768163Y-35582019D01*
X143200445Y-36228975D01*
X143498204Y-36947828D01*
X143650000Y-37710958D01*
X143650000Y-38489042D01*
X143498204Y-39252172D01*
X143200445Y-39971025D01*
X142768163Y-40617981D01*
X142217981Y-41168163D01*
X141571025Y-41600445D01*
X140852172Y-41898204D01*
X140089042Y-42050000D01*
X139310958Y-42050000D01*
X138547828Y-41898204D01*
X137828975Y-41600445D01*
X137182019Y-41168163D01*
X136631837Y-40617981D01*
X136199555Y-39971025D01*
X135901796Y-39252172D01*
X135750000Y-38489042D01*
X135750000Y-37710958D01*
X135901796Y-36947828D01*
X136199555Y-36228975D01*
X136631837Y-35582019D01*
X137182019Y-35031837D01*
X137828975Y-34599555D01*
X138547828Y-34301796D01*
X139310958Y-34150000D01*
X140089042Y-34150000D01*
X140852172Y-34301796D01*
X140852172Y-34301796D01*
G37*
G36*
X90052172Y-34301796D02*
X90771025Y-34599555D01*
X91417981Y-35031837D01*
X91968163Y-35582019D01*
X92400445Y-36228975D01*
X92698204Y-36947828D01*
X92850000Y-37710958D01*
X92850000Y-38489042D01*
X92698204Y-39252172D01*
X92400445Y-39971025D01*
X91968163Y-40617981D01*
X91417981Y-41168163D01*
X90771025Y-41600445D01*
X90052172Y-41898204D01*
X89289042Y-42050000D01*
X88510958Y-42050000D01*
X87747828Y-41898204D01*
X87028975Y-41600445D01*
X86382019Y-41168163D01*
X85831837Y-40617981D01*
X85399555Y-39971025D01*
X85101796Y-39252172D01*
X84950000Y-38489042D01*
X84950000Y-37710958D01*
X85101796Y-36947828D01*
X85399555Y-36228975D01*
X85831837Y-35582019D01*
X86382019Y-35031837D01*
X87028975Y-34599555D01*
X87747828Y-34301796D01*
X88510958Y-34150000D01*
X89289042Y-34150000D01*
X90052172Y-34301796D01*
X90052172Y-34301796D01*
G37*
G36*
X132810000Y-40470000D02*
X128810000Y-40470000D01*
X128810000Y-38270000D01*
X132810000Y-38270000D01*
X132810000Y-40470000D01*
X132810000Y-40470000D01*
G37*
M02*
