M48
;DRILL file {KiCad 5.0.2+dfsg1-1} date Fri 19 Apr 2019 11:25:00 NZST
;FORMAT={-:-/ absolute / metric / decimal}
FMAT,2
METRIC,TZ
T1C0.762
T2C1.200
T3C4.300
%
G90
G05
T1
X100.33Y-52.07
X102.87Y-52.07
X105.41Y-52.07
X107.95Y-52.07
X110.49Y-52.07
X113.03Y-52.07
X115.57Y-52.07
X118.11Y-52.07
X120.65Y-52.07
X123.19Y-52.07
X99.06Y-61.214
X99.06Y-63.754
X99.06Y-66.294
X99.06Y-68.834
X99.06Y-71.374
X99.06Y-73.914
X99.06Y-76.454
X99.06Y-78.994
X99.06Y-81.534
X99.06Y-84.074
X99.06Y-86.614
X99.06Y-89.154
X99.06Y-91.694
X99.06Y-94.234
X99.06Y-96.774
X99.06Y-99.314
X99.06Y-101.854
X99.06Y-104.394
X99.06Y-106.934
X124.46Y-61.214
X124.46Y-63.5
X124.46Y-66.04
X124.46Y-68.58
X124.46Y-71.12
X124.46Y-73.66
X124.46Y-76.2
X124.46Y-78.74
X124.46Y-81.28
X124.46Y-83.82
X124.46Y-86.36
X124.46Y-88.9
X124.46Y-91.44
X124.46Y-93.98
X124.46Y-96.52
X124.46Y-99.06
X124.46Y-101.6
X124.46Y-104.14
X124.46Y-106.68
T2
X92.71Y-45.72
X92.71Y-50.8
X92.71Y-55.88
X130.81Y-39.37
X130.81Y-44.45
X130.81Y-49.53
X130.81Y-54.61
X130.81Y-59.69
X130.81Y-64.77
X130.81Y-72.39
X130.81Y-77.47
X130.81Y-82.55
X130.81Y-87.63
X130.81Y-92.71
X130.81Y-97.79
X130.81Y-102.87
X130.81Y-107.95
X92.71Y-64.77
X92.71Y-69.85
X92.71Y-74.93
X92.71Y-80.01
X92.71Y-85.09
X92.71Y-90.17
X92.71Y-95.25
X92.71Y-100.33
T3
X88.9Y-38.1
X139.7Y-107.95
X88.9Y-107.95
X139.7Y-38.1
T0
M30
