G04 #@! TF.GenerationSoftware,KiCad,Pcbnew,5.0.2+dfsg1-1*
G04 #@! TF.CreationDate,2019-04-19T11:24:35+12:00*
G04 #@! TF.ProjectId,esp32,65737033-322e-46b6-9963-61645f706362,rev?*
G04 #@! TF.SameCoordinates,Original*
G04 #@! TF.FileFunction,Copper,L1,Top*
G04 #@! TF.FilePolarity,Positive*
%FSLAX46Y46*%
G04 Gerber Fmt 4.6, Leading zero omitted, Abs format (unit mm)*
G04 Created by KiCad (PCBNEW 5.0.2+dfsg1-1) date Fri 19 Apr 2019 11:24:35 NZST*
%MOMM*%
%LPD*%
G01*
G04 APERTURE LIST*
G04 #@! TA.AperFunction,ComponentPad*
%ADD10C,1.524000*%
G04 #@! TD*
G04 #@! TA.AperFunction,ComponentPad*
%ADD11C,7.500000*%
G04 #@! TD*
G04 #@! TA.AperFunction,ComponentPad*
%ADD12R,3.600000X1.800000*%
G04 #@! TD*
G04 #@! TA.AperFunction,ComponentPad*
%ADD13O,3.600000X1.800000*%
G04 #@! TD*
G04 #@! TA.AperFunction,Conductor*
%ADD14C,0.500000*%
G04 #@! TD*
G04 #@! TA.AperFunction,Conductor*
%ADD15C,2.000000*%
G04 #@! TD*
G04 #@! TA.AperFunction,Conductor*
%ADD16C,0.254000*%
G04 #@! TD*
G04 APERTURE END LIST*
D10*
G04 #@! TO.P,U1,1*
G04 #@! TO.N,Net-(U1-Pad1)*
X124460000Y-106680000D03*
G04 #@! TO.P,U1,2*
G04 #@! TO.N,Net-(U1-Pad2)*
X124460000Y-104140000D03*
G04 #@! TO.P,U1,3*
G04 #@! TO.N,Net-(U1-Pad3)*
X124460000Y-101600000D03*
G04 #@! TO.P,U1,4*
G04 #@! TO.N,IO_7*
X124460000Y-99060000D03*
G04 #@! TO.P,U1,5*
G04 #@! TO.N,Net-(U1-Pad5)*
X124460000Y-96520000D03*
G04 #@! TO.P,U1,6*
G04 #@! TO.N,Net-(U1-Pad6)*
X124460000Y-93980000D03*
G04 #@! TO.P,U1,7*
G04 #@! TO.N,Net-(U1-Pad7)*
X124460000Y-91440000D03*
G04 #@! TO.P,U1,8*
G04 #@! TO.N,IO_6*
X124460000Y-88900000D03*
G04 #@! TO.P,U1,9*
G04 #@! TO.N,IO_5*
X124460000Y-86360000D03*
G04 #@! TO.P,U1,10*
G04 #@! TO.N,Net-(U1-Pad10)*
X124460000Y-83820000D03*
G04 #@! TO.P,U1,11*
G04 #@! TO.N,IO_3*
X124460000Y-81280000D03*
G04 #@! TO.P,U1,12*
G04 #@! TO.N,IO_2*
X124460000Y-78740000D03*
G04 #@! TO.P,U1,13*
G04 #@! TO.N,Net-(U1-Pad13)*
X124460000Y-76200000D03*
G04 #@! TO.P,U1,14*
G04 #@! TO.N,SDA*
X124460000Y-73660000D03*
G04 #@! TO.P,U1,15*
G04 #@! TO.N,Net-(U1-Pad15)*
X124460000Y-71120000D03*
G04 #@! TO.P,U1,16*
G04 #@! TO.N,Net-(U1-Pad16)*
X124460000Y-68580000D03*
G04 #@! TO.P,U1,17*
G04 #@! TO.N,SCL*
X124460000Y-66040000D03*
G04 #@! TO.P,U1,18*
G04 #@! TO.N,IO_1*
X124460000Y-63500000D03*
G04 #@! TO.P,U1,19*
G04 #@! TO.N,Net-(U1-Pad19)*
X124460000Y-61214000D03*
G04 #@! TO.P,U1,20*
G04 #@! TO.N,+3V3*
X99060000Y-61214000D03*
G04 #@! TO.P,U1,21*
G04 #@! TO.N,Net-(U1-Pad21)*
X99060000Y-63754000D03*
G04 #@! TO.P,U1,22*
G04 #@! TO.N,Net-(U1-Pad22)*
X99060000Y-66294000D03*
G04 #@! TO.P,U1,23*
G04 #@! TO.N,Net-(U1-Pad23)*
X99060000Y-68834000D03*
G04 #@! TO.P,U1,24*
G04 #@! TO.N,Net-(U1-Pad24)*
X99060000Y-71374000D03*
G04 #@! TO.P,U1,25*
G04 #@! TO.N,Net-(U1-Pad25)*
X99060000Y-73914000D03*
G04 #@! TO.P,U1,26*
G04 #@! TO.N,IO_11*
X99060000Y-76454000D03*
G04 #@! TO.P,U1,27*
G04 #@! TO.N,IO_12*
X99060000Y-78994000D03*
G04 #@! TO.P,U1,28*
G04 #@! TO.N,IO_4*
X99060000Y-81534000D03*
G04 #@! TO.P,U1,29*
G04 #@! TO.N,IO_10*
X99060000Y-84074000D03*
G04 #@! TO.P,U1,30*
G04 #@! TO.N,IO_9*
X99060000Y-86614000D03*
G04 #@! TO.P,U1,31*
G04 #@! TO.N,IO_8*
X99060000Y-89154000D03*
G04 #@! TO.P,U1,32*
G04 #@! TO.N,Net-(U1-Pad32)*
X99060000Y-91694000D03*
G04 #@! TO.P,U1,33*
G04 #@! TO.N,GND*
X99060000Y-94234000D03*
G04 #@! TO.P,U1,34*
G04 #@! TO.N,Net-(U1-Pad34)*
X99060000Y-96774000D03*
G04 #@! TO.P,U1,35*
G04 #@! TO.N,Net-(U1-Pad35)*
X99060000Y-99314000D03*
G04 #@! TO.P,U1,36*
G04 #@! TO.N,Net-(U1-Pad36)*
X99060000Y-101854000D03*
G04 #@! TO.P,U1,37*
G04 #@! TO.N,Net-(U1-Pad37)*
X99060000Y-104394000D03*
G04 #@! TO.P,U1,38*
G04 #@! TO.N,+5V*
X99060000Y-106934000D03*
G04 #@! TD*
G04 #@! TO.P,U2,1*
G04 #@! TO.N,+3V3*
X100330000Y-52070000D03*
G04 #@! TO.P,U2,2*
G04 #@! TO.N,GND*
X102870000Y-52070000D03*
G04 #@! TO.P,U2,3*
G04 #@! TO.N,SCL*
X105410000Y-52070000D03*
G04 #@! TO.P,U2,4*
G04 #@! TO.N,SDA*
X107950000Y-52070000D03*
G04 #@! TO.P,U2,5*
G04 #@! TO.N,Net-(U2-Pad5)*
X110490000Y-52070000D03*
G04 #@! TO.P,U2,6*
G04 #@! TO.N,Net-(U2-Pad6)*
X113030000Y-52070000D03*
G04 #@! TO.P,U2,7*
G04 #@! TO.N,A0*
X115570000Y-52070000D03*
G04 #@! TO.P,U2,8*
G04 #@! TO.N,A1*
X118110000Y-52070000D03*
G04 #@! TO.P,U2,9*
G04 #@! TO.N,A2*
X120650000Y-52070000D03*
G04 #@! TO.P,U2,10*
G04 #@! TO.N,A3*
X123190000Y-52070000D03*
G04 #@! TD*
D11*
G04 #@! TO.P,MK1,1*
G04 #@! TO.N,N/C*
X88900000Y-38100000D03*
G04 #@! TD*
G04 #@! TO.P,MK2,1*
G04 #@! TO.N,N/C*
X139700000Y-38100000D03*
G04 #@! TD*
G04 #@! TO.P,MK3,1*
G04 #@! TO.N,N/C*
X139700000Y-107950000D03*
G04 #@! TD*
G04 #@! TO.P,MK4,1*
G04 #@! TO.N,N/C*
X88900000Y-107950000D03*
G04 #@! TD*
D12*
G04 #@! TO.P,P1,1*
G04 #@! TO.N,A0*
X130810000Y-39370000D03*
D13*
G04 #@! TO.P,P1,2*
G04 #@! TO.N,A1*
X130810000Y-44450000D03*
G04 #@! TO.P,P1,3*
G04 #@! TO.N,A2*
X130810000Y-49530000D03*
G04 #@! TO.P,P1,4*
G04 #@! TO.N,A3*
X130810000Y-54610000D03*
G04 #@! TO.P,P1,5*
G04 #@! TO.N,SCL*
X130810000Y-59690000D03*
G04 #@! TO.P,P1,6*
G04 #@! TO.N,SDA*
X130810000Y-64770000D03*
G04 #@! TD*
D12*
G04 #@! TO.P,P2,1*
G04 #@! TO.N,GND*
X130810000Y-72390000D03*
D13*
G04 #@! TO.P,P2,2*
G04 #@! TO.N,+3V3*
X130810000Y-77470000D03*
G04 #@! TO.P,P2,3*
G04 #@! TO.N,IO_1*
X130810000Y-82550000D03*
G04 #@! TO.P,P2,4*
G04 #@! TO.N,IO_2*
X130810000Y-87630000D03*
G04 #@! TO.P,P2,5*
G04 #@! TO.N,IO_3*
X130810000Y-92710000D03*
G04 #@! TO.P,P2,6*
G04 #@! TO.N,IO_5*
X130810000Y-97790000D03*
G04 #@! TO.P,P2,7*
G04 #@! TO.N,IO_6*
X130810000Y-102870000D03*
G04 #@! TO.P,P2,8*
G04 #@! TO.N,IO_7*
X130810000Y-107950000D03*
G04 #@! TD*
D12*
G04 #@! TO.P,P3,1*
G04 #@! TO.N,IO_8*
X92710000Y-100330000D03*
D13*
G04 #@! TO.P,P3,2*
G04 #@! TO.N,IO_9*
X92710000Y-95250000D03*
G04 #@! TO.P,P3,3*
G04 #@! TO.N,IO_10*
X92710000Y-90170000D03*
G04 #@! TO.P,P3,4*
G04 #@! TO.N,IO_4*
X92710000Y-85090000D03*
G04 #@! TO.P,P3,5*
G04 #@! TO.N,IO_12*
X92710000Y-80010000D03*
G04 #@! TO.P,P3,6*
G04 #@! TO.N,IO_11*
X92710000Y-74930000D03*
G04 #@! TO.P,P3,7*
G04 #@! TO.N,GND*
X92710000Y-69850000D03*
G04 #@! TO.P,P3,8*
G04 #@! TO.N,+3V3*
X92710000Y-64770000D03*
G04 #@! TD*
D12*
G04 #@! TO.P,P4,1*
G04 #@! TO.N,+3V3*
X92710000Y-55880000D03*
D13*
G04 #@! TO.P,P4,2*
G04 #@! TO.N,GND*
X92710000Y-50800000D03*
G04 #@! TO.P,P4,3*
G04 #@! TO.N,+5V*
X92710000Y-45720000D03*
G04 #@! TD*
D14*
G04 #@! TO.N,A0*
X115570000Y-52070000D02*
X128270000Y-39370000D01*
X128270000Y-39370000D02*
X130810000Y-39370000D01*
G04 #@! TO.N,A1*
X125730000Y-44450000D02*
X130810000Y-44450000D01*
X118110000Y-52070000D02*
X125730000Y-44450000D01*
G04 #@! TO.N,A2*
X120650000Y-52070000D02*
X123190000Y-49530000D01*
X123190000Y-49530000D02*
X130810000Y-49530000D01*
G04 #@! TO.N,A3*
X124267630Y-52070000D02*
X123190000Y-52070000D01*
X129670000Y-52070000D02*
X124267630Y-52070000D01*
X130810000Y-53210000D02*
X129670000Y-52070000D01*
X130810000Y-54610000D02*
X130810000Y-53210000D01*
G04 #@! TO.N,SDA*
X128510000Y-64770000D02*
X128270000Y-65010000D01*
X130810000Y-64770000D02*
X128510000Y-64770000D01*
X128270000Y-69850000D02*
X124460000Y-73660000D01*
X128270000Y-65010000D02*
X128270000Y-69850000D01*
X113030000Y-57150000D02*
X107950000Y-52070000D01*
X133350000Y-58420000D02*
X132080000Y-57150000D01*
X133350000Y-60830000D02*
X133350000Y-58420000D01*
X130810000Y-64770000D02*
X130810000Y-63370000D01*
X132080000Y-57150000D02*
X113030000Y-57150000D01*
X130810000Y-63370000D02*
X133350000Y-60830000D01*
G04 #@! TO.N,SCL*
X130810000Y-61090000D02*
X127130000Y-64770000D01*
X130810000Y-59690000D02*
X130810000Y-61090000D01*
X127130000Y-64770000D02*
X127130000Y-65910000D01*
X127000000Y-66040000D02*
X124460000Y-66040000D01*
X127130000Y-65910000D02*
X127000000Y-66040000D01*
X124460000Y-66040000D02*
X116840000Y-58420000D01*
X116840000Y-58420000D02*
X111760000Y-58420000D01*
X111760000Y-58420000D02*
X105410000Y-52070000D01*
D15*
G04 #@! TO.N,+3V3*
X97728370Y-60960000D02*
X92710000Y-60960000D01*
X99060000Y-61214000D02*
X97982370Y-61214000D01*
X97982370Y-61214000D02*
X97728370Y-60960000D01*
X92710000Y-64770000D02*
X92710000Y-60960000D01*
X92710000Y-60960000D02*
X92710000Y-55880000D01*
X96520000Y-55880000D02*
X100330000Y-52070000D01*
X92710000Y-55880000D02*
X96520000Y-55880000D01*
X100330000Y-52070000D02*
X100330000Y-44450000D01*
X100330000Y-44450000D02*
X107950000Y-36830000D01*
X133130002Y-36830000D02*
X134620000Y-38319998D01*
X107950000Y-36830000D02*
X133130002Y-36830000D01*
X134620000Y-38319998D02*
X134620000Y-41910000D01*
X134620000Y-41910000D02*
X137160000Y-44450000D01*
X131710000Y-77470000D02*
X130810000Y-77470000D01*
X137160000Y-72020000D02*
X131710000Y-77470000D01*
X137160000Y-44450000D02*
X137160000Y-72020000D01*
D14*
G04 #@! TO.N,IO_2*
X128510000Y-87630000D02*
X127000000Y-86120000D01*
X130810000Y-87630000D02*
X128510000Y-87630000D01*
X127000000Y-81280000D02*
X124460000Y-78740000D01*
X127000000Y-86120000D02*
X127000000Y-81280000D01*
G04 #@! TO.N,IO_3*
X130810000Y-91310000D02*
X125730000Y-86230000D01*
X130810000Y-92710000D02*
X130810000Y-91310000D01*
X125730000Y-82550000D02*
X124460000Y-81280000D01*
X125730000Y-86230000D02*
X125730000Y-82550000D01*
G04 #@! TO.N,IO_4*
X95504000Y-85090000D02*
X99060000Y-81534000D01*
X92710000Y-85090000D02*
X95504000Y-85090000D01*
G04 #@! TO.N,IO_5*
X129910000Y-97790000D02*
X127000000Y-94880000D01*
X130810000Y-97790000D02*
X129910000Y-97790000D01*
X127000000Y-94880000D02*
X127000000Y-88900000D01*
X127000000Y-88900000D02*
X124460000Y-86360000D01*
G04 #@! TO.N,IO_6*
X125730000Y-90170000D02*
X124460000Y-88900000D01*
X125730000Y-99060000D02*
X125730000Y-90170000D01*
X130810000Y-102870000D02*
X129910000Y-102870000D01*
X129910000Y-102870000D02*
X125730000Y-99060000D01*
G04 #@! TO.N,IO_7*
X128510000Y-107950000D02*
X127000000Y-106440000D01*
X130810000Y-107950000D02*
X128510000Y-107950000D01*
X127000000Y-101600000D02*
X124460000Y-99060000D01*
X127000000Y-106440000D02*
X127000000Y-101600000D01*
G04 #@! TO.N,IO_8*
X95010000Y-100330000D02*
X97790000Y-97550000D01*
X92710000Y-100330000D02*
X95010000Y-100330000D01*
X97790000Y-90424000D02*
X99060000Y-89154000D01*
X97790000Y-97550000D02*
X97790000Y-90424000D01*
G04 #@! TO.N,IO_9*
X95010000Y-95250000D02*
X96520000Y-93740000D01*
X92710000Y-95250000D02*
X95010000Y-95250000D01*
X96520000Y-89154000D02*
X99060000Y-86614000D01*
X96520000Y-93740000D02*
X96520000Y-89154000D01*
G04 #@! TO.N,IO_10*
X93610000Y-90170000D02*
X97790000Y-85990000D01*
X92710000Y-90170000D02*
X93610000Y-90170000D01*
X97790000Y-85344000D02*
X99060000Y-84074000D01*
X97790000Y-85990000D02*
X97790000Y-85344000D01*
G04 #@! TO.N,IO_11*
X97536000Y-74930000D02*
X99060000Y-76454000D01*
X92710000Y-74930000D02*
X97536000Y-74930000D01*
G04 #@! TO.N,IO_12*
X98044000Y-80010000D02*
X99060000Y-78994000D01*
X92710000Y-80010000D02*
X98044000Y-80010000D01*
D15*
G04 #@! TO.N,+5V*
X97982370Y-106934000D02*
X93918370Y-102870000D01*
X99060000Y-106934000D02*
X97982370Y-106934000D01*
X90389998Y-102870000D02*
X87630000Y-100110002D01*
X93918370Y-102870000D02*
X90389998Y-102870000D01*
X91810000Y-45720000D02*
X92710000Y-45720000D01*
X87630000Y-49900000D02*
X91810000Y-45720000D01*
X87630000Y-100110002D02*
X87630000Y-49900000D01*
G04 #@! TD*
D16*
G04 #@! TO.N,GND*
G36*
X128362560Y-38470000D02*
X128362560Y-38485000D01*
X128357159Y-38485000D01*
X128269999Y-38467663D01*
X128182839Y-38485000D01*
X128182835Y-38485000D01*
X127924690Y-38536348D01*
X127924688Y-38536349D01*
X127924689Y-38536349D01*
X127705845Y-38682576D01*
X127705844Y-38682577D01*
X127631951Y-38731951D01*
X127582577Y-38805844D01*
X115715422Y-50673000D01*
X115292119Y-50673000D01*
X114778663Y-50885680D01*
X114385680Y-51278663D01*
X114300000Y-51485513D01*
X114214320Y-51278663D01*
X113821337Y-50885680D01*
X113307881Y-50673000D01*
X112752119Y-50673000D01*
X112238663Y-50885680D01*
X111845680Y-51278663D01*
X111760000Y-51485513D01*
X111674320Y-51278663D01*
X111281337Y-50885680D01*
X110767881Y-50673000D01*
X110212119Y-50673000D01*
X109698663Y-50885680D01*
X109305680Y-51278663D01*
X109220000Y-51485513D01*
X109134320Y-51278663D01*
X108741337Y-50885680D01*
X108227881Y-50673000D01*
X107672119Y-50673000D01*
X107158663Y-50885680D01*
X106765680Y-51278663D01*
X106680000Y-51485513D01*
X106594320Y-51278663D01*
X106201337Y-50885680D01*
X105687881Y-50673000D01*
X105132119Y-50673000D01*
X104618663Y-50885680D01*
X104225680Y-51278663D01*
X104146572Y-51469647D01*
X104092397Y-51338857D01*
X103850213Y-51269392D01*
X103049605Y-52070000D01*
X103850213Y-52870608D01*
X104092397Y-52801143D01*
X104142535Y-52660607D01*
X104225680Y-52861337D01*
X104618663Y-53254320D01*
X105132119Y-53467000D01*
X105555422Y-53467000D01*
X111072577Y-58984156D01*
X111121951Y-59058049D01*
X111195844Y-59107423D01*
X111195845Y-59107424D01*
X111306880Y-59181615D01*
X111414690Y-59253652D01*
X111672835Y-59305000D01*
X111672839Y-59305000D01*
X111759999Y-59322337D01*
X111847159Y-59305000D01*
X116473422Y-59305000D01*
X123063000Y-65894579D01*
X123063000Y-66317881D01*
X123275680Y-66831337D01*
X123668663Y-67224320D01*
X123875513Y-67310000D01*
X123668663Y-67395680D01*
X123275680Y-67788663D01*
X123063000Y-68302119D01*
X123063000Y-68857881D01*
X123275680Y-69371337D01*
X123668663Y-69764320D01*
X123875513Y-69850000D01*
X123668663Y-69935680D01*
X123275680Y-70328663D01*
X123063000Y-70842119D01*
X123063000Y-71397881D01*
X123275680Y-71911337D01*
X123668663Y-72304320D01*
X123875513Y-72390000D01*
X123668663Y-72475680D01*
X123275680Y-72868663D01*
X123063000Y-73382119D01*
X123063000Y-73937881D01*
X123275680Y-74451337D01*
X123668663Y-74844320D01*
X123875513Y-74930000D01*
X123668663Y-75015680D01*
X123275680Y-75408663D01*
X123063000Y-75922119D01*
X123063000Y-76477881D01*
X123275680Y-76991337D01*
X123668663Y-77384320D01*
X123875513Y-77470000D01*
X123668663Y-77555680D01*
X123275680Y-77948663D01*
X123063000Y-78462119D01*
X123063000Y-79017881D01*
X123275680Y-79531337D01*
X123668663Y-79924320D01*
X123875513Y-80010000D01*
X123668663Y-80095680D01*
X123275680Y-80488663D01*
X123063000Y-81002119D01*
X123063000Y-81557881D01*
X123275680Y-82071337D01*
X123668663Y-82464320D01*
X123875513Y-82550000D01*
X123668663Y-82635680D01*
X123275680Y-83028663D01*
X123063000Y-83542119D01*
X123063000Y-84097881D01*
X123275680Y-84611337D01*
X123668663Y-85004320D01*
X123875513Y-85090000D01*
X123668663Y-85175680D01*
X123275680Y-85568663D01*
X123063000Y-86082119D01*
X123063000Y-86637881D01*
X123275680Y-87151337D01*
X123668663Y-87544320D01*
X123875513Y-87630000D01*
X123668663Y-87715680D01*
X123275680Y-88108663D01*
X123063000Y-88622119D01*
X123063000Y-89177881D01*
X123275680Y-89691337D01*
X123668663Y-90084320D01*
X123875513Y-90170000D01*
X123668663Y-90255680D01*
X123275680Y-90648663D01*
X123063000Y-91162119D01*
X123063000Y-91717881D01*
X123275680Y-92231337D01*
X123668663Y-92624320D01*
X123875513Y-92710000D01*
X123668663Y-92795680D01*
X123275680Y-93188663D01*
X123063000Y-93702119D01*
X123063000Y-94257881D01*
X123275680Y-94771337D01*
X123668663Y-95164320D01*
X123875513Y-95250000D01*
X123668663Y-95335680D01*
X123275680Y-95728663D01*
X123063000Y-96242119D01*
X123063000Y-96797881D01*
X123275680Y-97311337D01*
X123668663Y-97704320D01*
X123875513Y-97790000D01*
X123668663Y-97875680D01*
X123275680Y-98268663D01*
X123063000Y-98782119D01*
X123063000Y-99337881D01*
X123275680Y-99851337D01*
X123668663Y-100244320D01*
X123875513Y-100330000D01*
X123668663Y-100415680D01*
X123275680Y-100808663D01*
X123063000Y-101322119D01*
X123063000Y-101877881D01*
X123275680Y-102391337D01*
X123668663Y-102784320D01*
X123875513Y-102870000D01*
X123668663Y-102955680D01*
X123275680Y-103348663D01*
X123063000Y-103862119D01*
X123063000Y-104417881D01*
X123275680Y-104931337D01*
X123668663Y-105324320D01*
X123875513Y-105410000D01*
X123668663Y-105495680D01*
X123275680Y-105888663D01*
X123063000Y-106402119D01*
X123063000Y-106957881D01*
X123275680Y-107471337D01*
X123668663Y-107864320D01*
X124182119Y-108077000D01*
X124737881Y-108077000D01*
X125251337Y-107864320D01*
X125644320Y-107471337D01*
X125857000Y-106957881D01*
X125857000Y-106402119D01*
X125644320Y-105888663D01*
X125251337Y-105495680D01*
X125044487Y-105410000D01*
X125251337Y-105324320D01*
X125644320Y-104931337D01*
X125857000Y-104417881D01*
X125857000Y-103862119D01*
X125644320Y-103348663D01*
X125251337Y-102955680D01*
X125044487Y-102870000D01*
X125251337Y-102784320D01*
X125644320Y-102391337D01*
X125857000Y-101877881D01*
X125857000Y-101708579D01*
X126115001Y-101966580D01*
X126115000Y-106352839D01*
X126097663Y-106440000D01*
X126115000Y-106527161D01*
X126115000Y-106527164D01*
X126166348Y-106785309D01*
X126361951Y-107078049D01*
X126435847Y-107127425D01*
X127822577Y-108514156D01*
X127871951Y-108588049D01*
X127945844Y-108637423D01*
X127945845Y-108637424D01*
X128056880Y-108711615D01*
X128164690Y-108783652D01*
X128422835Y-108835000D01*
X128422839Y-108835000D01*
X128509999Y-108852337D01*
X128597159Y-108835000D01*
X128655210Y-108835000D01*
X128803327Y-109056673D01*
X129311073Y-109395938D01*
X129758818Y-109485000D01*
X131861182Y-109485000D01*
X132308927Y-109395938D01*
X132816673Y-109056673D01*
X133155938Y-108548927D01*
X133275072Y-107950000D01*
X133155938Y-107351073D01*
X132816673Y-106843327D01*
X132308927Y-106504062D01*
X131861182Y-106415000D01*
X129758818Y-106415000D01*
X129311073Y-106504062D01*
X128803327Y-106843327D01*
X128743878Y-106932299D01*
X127885000Y-106073422D01*
X127885000Y-102221714D01*
X128383499Y-102676088D01*
X128344928Y-102870000D01*
X128464062Y-103468927D01*
X128803327Y-103976673D01*
X129311073Y-104315938D01*
X129758818Y-104405000D01*
X131861182Y-104405000D01*
X132308927Y-104315938D01*
X132816673Y-103976673D01*
X133155938Y-103468927D01*
X133275072Y-102870000D01*
X133155938Y-102271073D01*
X132816673Y-101763327D01*
X132308927Y-101424062D01*
X131861182Y-101335000D01*
X129758818Y-101335000D01*
X129578943Y-101370779D01*
X126615000Y-98669196D01*
X126615000Y-95746578D01*
X128396940Y-97528519D01*
X128344928Y-97790000D01*
X128464062Y-98388927D01*
X128803327Y-98896673D01*
X129311073Y-99235938D01*
X129758818Y-99325000D01*
X131861182Y-99325000D01*
X132308927Y-99235938D01*
X132816673Y-98896673D01*
X133155938Y-98388927D01*
X133275072Y-97790000D01*
X133155938Y-97191073D01*
X132816673Y-96683327D01*
X132308927Y-96344062D01*
X131861182Y-96255000D01*
X129758818Y-96255000D01*
X129648519Y-96276940D01*
X127885000Y-94513422D01*
X127885000Y-89636579D01*
X129479067Y-91230646D01*
X129311073Y-91264062D01*
X128803327Y-91603327D01*
X128464062Y-92111073D01*
X128344928Y-92710000D01*
X128464062Y-93308927D01*
X128803327Y-93816673D01*
X129311073Y-94155938D01*
X129758818Y-94245000D01*
X131861182Y-94245000D01*
X132308927Y-94155938D01*
X132816673Y-93816673D01*
X133155938Y-93308927D01*
X133275072Y-92710000D01*
X133155938Y-92111073D01*
X132816673Y-91603327D01*
X132308927Y-91264062D01*
X131861182Y-91175000D01*
X131685485Y-91175000D01*
X131643652Y-90964690D01*
X131571979Y-90857424D01*
X131497424Y-90745845D01*
X131497423Y-90745844D01*
X131448049Y-90671951D01*
X131374156Y-90622577D01*
X129916579Y-89165000D01*
X131861182Y-89165000D01*
X132308927Y-89075938D01*
X132816673Y-88736673D01*
X133155938Y-88228927D01*
X133275072Y-87630000D01*
X133155938Y-87031073D01*
X132816673Y-86523327D01*
X132308927Y-86184062D01*
X131861182Y-86095000D01*
X129758818Y-86095000D01*
X129311073Y-86184062D01*
X128803327Y-86523327D01*
X128743878Y-86612299D01*
X127885000Y-85753422D01*
X127885000Y-82550000D01*
X128344928Y-82550000D01*
X128464062Y-83148927D01*
X128803327Y-83656673D01*
X129311073Y-83995938D01*
X129758818Y-84085000D01*
X131861182Y-84085000D01*
X132308927Y-83995938D01*
X132816673Y-83656673D01*
X133155938Y-83148927D01*
X133275072Y-82550000D01*
X133155938Y-81951073D01*
X132816673Y-81443327D01*
X132308927Y-81104062D01*
X131861182Y-81015000D01*
X129758818Y-81015000D01*
X129311073Y-81104062D01*
X128803327Y-81443327D01*
X128464062Y-81951073D01*
X128344928Y-82550000D01*
X127885000Y-82550000D01*
X127885000Y-81367159D01*
X127902337Y-81279999D01*
X127885000Y-81192839D01*
X127885000Y-81192835D01*
X127833652Y-80934690D01*
X127638049Y-80641951D01*
X127564156Y-80592577D01*
X125857000Y-78885422D01*
X125857000Y-78462119D01*
X125644320Y-77948663D01*
X125251337Y-77555680D01*
X125044487Y-77470000D01*
X125251337Y-77384320D01*
X125644320Y-76991337D01*
X125857000Y-76477881D01*
X125857000Y-75922119D01*
X125644320Y-75408663D01*
X125251337Y-75015680D01*
X125044487Y-74930000D01*
X125251337Y-74844320D01*
X125644320Y-74451337D01*
X125857000Y-73937881D01*
X125857000Y-73514578D01*
X126695828Y-72675750D01*
X128375000Y-72675750D01*
X128375000Y-73416309D01*
X128471673Y-73649698D01*
X128650301Y-73828327D01*
X128883690Y-73925000D01*
X130524250Y-73925000D01*
X130683000Y-73766250D01*
X130683000Y-72517000D01*
X130937000Y-72517000D01*
X130937000Y-73766250D01*
X131095750Y-73925000D01*
X132736310Y-73925000D01*
X132969699Y-73828327D01*
X133148327Y-73649698D01*
X133245000Y-73416309D01*
X133245000Y-72675750D01*
X133086250Y-72517000D01*
X130937000Y-72517000D01*
X130683000Y-72517000D01*
X128533750Y-72517000D01*
X128375000Y-72675750D01*
X126695828Y-72675750D01*
X128007887Y-71363691D01*
X128375000Y-71363691D01*
X128375000Y-72104250D01*
X128533750Y-72263000D01*
X130683000Y-72263000D01*
X130683000Y-71013750D01*
X130937000Y-71013750D01*
X130937000Y-72263000D01*
X133086250Y-72263000D01*
X133245000Y-72104250D01*
X133245000Y-71363691D01*
X133148327Y-71130302D01*
X132969699Y-70951673D01*
X132736310Y-70855000D01*
X131095750Y-70855000D01*
X130937000Y-71013750D01*
X130683000Y-71013750D01*
X130524250Y-70855000D01*
X128883690Y-70855000D01*
X128650301Y-70951673D01*
X128471673Y-71130302D01*
X128375000Y-71363691D01*
X128007887Y-71363691D01*
X128834156Y-70537423D01*
X128908049Y-70488049D01*
X129103652Y-70195310D01*
X129155000Y-69937165D01*
X129155000Y-69937161D01*
X129172337Y-69850000D01*
X129155000Y-69762839D01*
X129155000Y-66111653D01*
X129311073Y-66215938D01*
X129758818Y-66305000D01*
X131861182Y-66305000D01*
X132308927Y-66215938D01*
X132816673Y-65876673D01*
X133155938Y-65368927D01*
X133275072Y-64770000D01*
X133155938Y-64171073D01*
X132816673Y-63663327D01*
X132308927Y-63324062D01*
X132140932Y-63290646D01*
X133914156Y-61517423D01*
X133988049Y-61468049D01*
X134183652Y-61175310D01*
X134235000Y-60917165D01*
X134235000Y-60917161D01*
X134252337Y-60830001D01*
X134235000Y-60742841D01*
X134235000Y-58507159D01*
X134252337Y-58419999D01*
X134235000Y-58332839D01*
X134235000Y-58332835D01*
X134183652Y-58074690D01*
X133988049Y-57781951D01*
X133914156Y-57732577D01*
X132767425Y-56585847D01*
X132718049Y-56511951D01*
X132425310Y-56316348D01*
X132167165Y-56265000D01*
X132167161Y-56265000D01*
X132080000Y-56247663D01*
X131992839Y-56265000D01*
X113396579Y-56265000D01*
X110598578Y-53467000D01*
X110767881Y-53467000D01*
X111281337Y-53254320D01*
X111674320Y-52861337D01*
X111760000Y-52654487D01*
X111845680Y-52861337D01*
X112238663Y-53254320D01*
X112752119Y-53467000D01*
X113307881Y-53467000D01*
X113821337Y-53254320D01*
X114214320Y-52861337D01*
X114300000Y-52654487D01*
X114385680Y-52861337D01*
X114778663Y-53254320D01*
X115292119Y-53467000D01*
X115847881Y-53467000D01*
X116361337Y-53254320D01*
X116754320Y-52861337D01*
X116840000Y-52654487D01*
X116925680Y-52861337D01*
X117318663Y-53254320D01*
X117832119Y-53467000D01*
X118387881Y-53467000D01*
X118901337Y-53254320D01*
X119294320Y-52861337D01*
X119380000Y-52654487D01*
X119465680Y-52861337D01*
X119858663Y-53254320D01*
X120372119Y-53467000D01*
X120927881Y-53467000D01*
X121441337Y-53254320D01*
X121834320Y-52861337D01*
X121920000Y-52654487D01*
X122005680Y-52861337D01*
X122398663Y-53254320D01*
X122912119Y-53467000D01*
X123467881Y-53467000D01*
X123981337Y-53254320D01*
X124280657Y-52955000D01*
X129303422Y-52955000D01*
X129479067Y-53130646D01*
X129311073Y-53164062D01*
X128803327Y-53503327D01*
X128464062Y-54011073D01*
X128344928Y-54610000D01*
X128464062Y-55208927D01*
X128803327Y-55716673D01*
X129311073Y-56055938D01*
X129758818Y-56145000D01*
X131861182Y-56145000D01*
X132308927Y-56055938D01*
X132816673Y-55716673D01*
X133155938Y-55208927D01*
X133275072Y-54610000D01*
X133155938Y-54011073D01*
X132816673Y-53503327D01*
X132308927Y-53164062D01*
X131861182Y-53075000D01*
X131685485Y-53075000D01*
X131643652Y-52864690D01*
X131538987Y-52708049D01*
X131497424Y-52645845D01*
X131497423Y-52645844D01*
X131448049Y-52571951D01*
X131374156Y-52522577D01*
X130357424Y-51505846D01*
X130308049Y-51431951D01*
X130015310Y-51236348D01*
X129757165Y-51185000D01*
X129757161Y-51185000D01*
X129670000Y-51167663D01*
X129582839Y-51185000D01*
X124280657Y-51185000D01*
X123981337Y-50885680D01*
X123467881Y-50673000D01*
X123298579Y-50673000D01*
X123556579Y-50415000D01*
X128655210Y-50415000D01*
X128803327Y-50636673D01*
X129311073Y-50975938D01*
X129758818Y-51065000D01*
X131861182Y-51065000D01*
X132308927Y-50975938D01*
X132816673Y-50636673D01*
X133155938Y-50128927D01*
X133275072Y-49530000D01*
X133155938Y-48931073D01*
X132816673Y-48423327D01*
X132308927Y-48084062D01*
X131861182Y-47995000D01*
X129758818Y-47995000D01*
X129311073Y-48084062D01*
X128803327Y-48423327D01*
X128655210Y-48645000D01*
X123277159Y-48645000D01*
X123189999Y-48627663D01*
X123102839Y-48645000D01*
X123102835Y-48645000D01*
X122844690Y-48696348D01*
X122844688Y-48696349D01*
X122844689Y-48696349D01*
X122625845Y-48842576D01*
X122625844Y-48842577D01*
X122551951Y-48891951D01*
X122502577Y-48965844D01*
X120795422Y-50673000D01*
X120758578Y-50673000D01*
X126096579Y-45335000D01*
X128655210Y-45335000D01*
X128803327Y-45556673D01*
X129311073Y-45895938D01*
X129758818Y-45985000D01*
X131861182Y-45985000D01*
X132308927Y-45895938D01*
X132816673Y-45556673D01*
X133155938Y-45048927D01*
X133275072Y-44450000D01*
X133155938Y-43851073D01*
X132816673Y-43343327D01*
X132308927Y-43004062D01*
X131861182Y-42915000D01*
X129758818Y-42915000D01*
X129311073Y-43004062D01*
X128803327Y-43343327D01*
X128655210Y-43565000D01*
X125817159Y-43565000D01*
X125729999Y-43547663D01*
X125642839Y-43565000D01*
X125642835Y-43565000D01*
X125384690Y-43616348D01*
X125384688Y-43616349D01*
X125384689Y-43616349D01*
X125165845Y-43762576D01*
X125165844Y-43762577D01*
X125091951Y-43811951D01*
X125042577Y-43885844D01*
X118255422Y-50673000D01*
X118218578Y-50673000D01*
X128405534Y-40486045D01*
X128411843Y-40517765D01*
X128552191Y-40727809D01*
X128762235Y-40868157D01*
X129010000Y-40917440D01*
X132610000Y-40917440D01*
X132857765Y-40868157D01*
X132985001Y-40783140D01*
X132985001Y-41748966D01*
X132952969Y-41910000D01*
X133067344Y-42485000D01*
X133079865Y-42547945D01*
X133441232Y-43088769D01*
X133577748Y-43179986D01*
X135525000Y-45127239D01*
X135525001Y-71342760D01*
X131032762Y-75835000D01*
X130648969Y-75835000D01*
X130172055Y-75929864D01*
X130164368Y-75935000D01*
X129758818Y-75935000D01*
X129311073Y-76024062D01*
X128803327Y-76363327D01*
X128464062Y-76871073D01*
X128344928Y-77470000D01*
X128464062Y-78068927D01*
X128803327Y-78576673D01*
X129311073Y-78915938D01*
X129758818Y-79005000D01*
X130164368Y-79005000D01*
X130172055Y-79010136D01*
X130648969Y-79105000D01*
X131548970Y-79105000D01*
X131710000Y-79137031D01*
X131871030Y-79105000D01*
X131871031Y-79105000D01*
X132347945Y-79010136D01*
X132888769Y-78648769D01*
X132979988Y-78512250D01*
X138202253Y-73289986D01*
X138338769Y-73198769D01*
X138700136Y-72657945D01*
X138795000Y-72181031D01*
X138795000Y-72181030D01*
X138827031Y-72020000D01*
X138795000Y-71858970D01*
X138795000Y-44611025D01*
X138827030Y-44449999D01*
X138795000Y-44288973D01*
X138795000Y-44288969D01*
X138700136Y-43812055D01*
X138338769Y-43271231D01*
X138202253Y-43180014D01*
X136255000Y-41232762D01*
X136255000Y-40856326D01*
X137216097Y-41817423D01*
X138827769Y-42485000D01*
X139573000Y-42485000D01*
X139573000Y-103565000D01*
X138827769Y-103565000D01*
X137216097Y-104232577D01*
X135982577Y-105466097D01*
X135315000Y-107077769D01*
X135315000Y-108822231D01*
X135982577Y-110433903D01*
X136598674Y-111050000D01*
X92001326Y-111050000D01*
X92617423Y-110433903D01*
X93285000Y-108822231D01*
X93285000Y-107077769D01*
X92617423Y-105466097D01*
X91656326Y-104505000D01*
X93241132Y-104505000D01*
X96712384Y-107976253D01*
X96803601Y-108112769D01*
X97344425Y-108474136D01*
X97821339Y-108569000D01*
X97821340Y-108569000D01*
X97982370Y-108601031D01*
X98143400Y-108569000D01*
X99221031Y-108569000D01*
X99697945Y-108474136D01*
X100238769Y-108112769D01*
X100600136Y-107571945D01*
X100727031Y-106934000D01*
X100600136Y-106296055D01*
X100238769Y-105755231D01*
X99900470Y-105529187D01*
X100244320Y-105185337D01*
X100457000Y-104671881D01*
X100457000Y-104116119D01*
X100244320Y-103602663D01*
X99851337Y-103209680D01*
X99644487Y-103124000D01*
X99851337Y-103038320D01*
X100244320Y-102645337D01*
X100457000Y-102131881D01*
X100457000Y-101576119D01*
X100244320Y-101062663D01*
X99851337Y-100669680D01*
X99644487Y-100584000D01*
X99851337Y-100498320D01*
X100244320Y-100105337D01*
X100457000Y-99591881D01*
X100457000Y-99036119D01*
X100244320Y-98522663D01*
X99851337Y-98129680D01*
X99644487Y-98044000D01*
X99851337Y-97958320D01*
X100244320Y-97565337D01*
X100457000Y-97051881D01*
X100457000Y-96496119D01*
X100244320Y-95982663D01*
X99851337Y-95589680D01*
X99660353Y-95510572D01*
X99791143Y-95456397D01*
X99860608Y-95214213D01*
X99060000Y-94413605D01*
X99045858Y-94427748D01*
X98866253Y-94248143D01*
X98880395Y-94234000D01*
X99239605Y-94234000D01*
X100040213Y-95034608D01*
X100282397Y-94965143D01*
X100469144Y-94441698D01*
X100441362Y-93886632D01*
X100282397Y-93502857D01*
X100040213Y-93433392D01*
X99239605Y-94234000D01*
X98880395Y-94234000D01*
X98866253Y-94219858D01*
X99045858Y-94040253D01*
X99060000Y-94054395D01*
X99860608Y-93253787D01*
X99791143Y-93011603D01*
X99650607Y-92961465D01*
X99851337Y-92878320D01*
X100244320Y-92485337D01*
X100457000Y-91971881D01*
X100457000Y-91416119D01*
X100244320Y-90902663D01*
X99851337Y-90509680D01*
X99644487Y-90424000D01*
X99851337Y-90338320D01*
X100244320Y-89945337D01*
X100457000Y-89431881D01*
X100457000Y-88876119D01*
X100244320Y-88362663D01*
X99851337Y-87969680D01*
X99644487Y-87884000D01*
X99851337Y-87798320D01*
X100244320Y-87405337D01*
X100457000Y-86891881D01*
X100457000Y-86336119D01*
X100244320Y-85822663D01*
X99851337Y-85429680D01*
X99644487Y-85344000D01*
X99851337Y-85258320D01*
X100244320Y-84865337D01*
X100457000Y-84351881D01*
X100457000Y-83796119D01*
X100244320Y-83282663D01*
X99851337Y-82889680D01*
X99644487Y-82804000D01*
X99851337Y-82718320D01*
X100244320Y-82325337D01*
X100457000Y-81811881D01*
X100457000Y-81256119D01*
X100244320Y-80742663D01*
X99851337Y-80349680D01*
X99644487Y-80264000D01*
X99851337Y-80178320D01*
X100244320Y-79785337D01*
X100457000Y-79271881D01*
X100457000Y-78716119D01*
X100244320Y-78202663D01*
X99851337Y-77809680D01*
X99644487Y-77724000D01*
X99851337Y-77638320D01*
X100244320Y-77245337D01*
X100457000Y-76731881D01*
X100457000Y-76176119D01*
X100244320Y-75662663D01*
X99851337Y-75269680D01*
X99644487Y-75184000D01*
X99851337Y-75098320D01*
X100244320Y-74705337D01*
X100457000Y-74191881D01*
X100457000Y-73636119D01*
X100244320Y-73122663D01*
X99851337Y-72729680D01*
X99644487Y-72644000D01*
X99851337Y-72558320D01*
X100244320Y-72165337D01*
X100457000Y-71651881D01*
X100457000Y-71096119D01*
X100244320Y-70582663D01*
X99851337Y-70189680D01*
X99644487Y-70104000D01*
X99851337Y-70018320D01*
X100244320Y-69625337D01*
X100457000Y-69111881D01*
X100457000Y-68556119D01*
X100244320Y-68042663D01*
X99851337Y-67649680D01*
X99644487Y-67564000D01*
X99851337Y-67478320D01*
X100244320Y-67085337D01*
X100457000Y-66571881D01*
X100457000Y-66016119D01*
X100244320Y-65502663D01*
X99851337Y-65109680D01*
X99644487Y-65024000D01*
X99851337Y-64938320D01*
X100244320Y-64545337D01*
X100457000Y-64031881D01*
X100457000Y-63476119D01*
X100244320Y-62962663D01*
X99900470Y-62618813D01*
X100238769Y-62392769D01*
X100600136Y-61851945D01*
X100727031Y-61214000D01*
X100600136Y-60576055D01*
X100238769Y-60035231D01*
X99697945Y-59673864D01*
X99221031Y-59579000D01*
X98604479Y-59579000D01*
X98366315Y-59419864D01*
X97889401Y-59325000D01*
X97889400Y-59325000D01*
X97728370Y-59292969D01*
X97567340Y-59325000D01*
X94345000Y-59325000D01*
X94345000Y-57515000D01*
X96358970Y-57515000D01*
X96520000Y-57547031D01*
X96681030Y-57515000D01*
X96681031Y-57515000D01*
X97157945Y-57420136D01*
X97698769Y-57058769D01*
X97789988Y-56922250D01*
X101372253Y-53339986D01*
X101508769Y-53248769D01*
X101641439Y-53050213D01*
X102069392Y-53050213D01*
X102138857Y-53292397D01*
X102662302Y-53479144D01*
X103217368Y-53451362D01*
X103601143Y-53292397D01*
X103670608Y-53050213D01*
X102870000Y-52249605D01*
X102069392Y-53050213D01*
X101641439Y-53050213D01*
X101761448Y-52870608D01*
X101782089Y-52839717D01*
X101889787Y-52870608D01*
X102690395Y-52070000D01*
X102676253Y-52055858D01*
X102855858Y-51876253D01*
X102870000Y-51890395D01*
X103670608Y-51089787D01*
X103601143Y-50847603D01*
X103077698Y-50660856D01*
X102522632Y-50688638D01*
X102138857Y-50847603D01*
X102069393Y-51089785D01*
X101965000Y-50985392D01*
X101965000Y-45127238D01*
X108627239Y-38465000D01*
X128363555Y-38465000D01*
X128362560Y-38470000D01*
X128362560Y-38470000D01*
G37*
X128362560Y-38470000D02*
X128362560Y-38485000D01*
X128357159Y-38485000D01*
X128269999Y-38467663D01*
X128182839Y-38485000D01*
X128182835Y-38485000D01*
X127924690Y-38536348D01*
X127924688Y-38536349D01*
X127924689Y-38536349D01*
X127705845Y-38682576D01*
X127705844Y-38682577D01*
X127631951Y-38731951D01*
X127582577Y-38805844D01*
X115715422Y-50673000D01*
X115292119Y-50673000D01*
X114778663Y-50885680D01*
X114385680Y-51278663D01*
X114300000Y-51485513D01*
X114214320Y-51278663D01*
X113821337Y-50885680D01*
X113307881Y-50673000D01*
X112752119Y-50673000D01*
X112238663Y-50885680D01*
X111845680Y-51278663D01*
X111760000Y-51485513D01*
X111674320Y-51278663D01*
X111281337Y-50885680D01*
X110767881Y-50673000D01*
X110212119Y-50673000D01*
X109698663Y-50885680D01*
X109305680Y-51278663D01*
X109220000Y-51485513D01*
X109134320Y-51278663D01*
X108741337Y-50885680D01*
X108227881Y-50673000D01*
X107672119Y-50673000D01*
X107158663Y-50885680D01*
X106765680Y-51278663D01*
X106680000Y-51485513D01*
X106594320Y-51278663D01*
X106201337Y-50885680D01*
X105687881Y-50673000D01*
X105132119Y-50673000D01*
X104618663Y-50885680D01*
X104225680Y-51278663D01*
X104146572Y-51469647D01*
X104092397Y-51338857D01*
X103850213Y-51269392D01*
X103049605Y-52070000D01*
X103850213Y-52870608D01*
X104092397Y-52801143D01*
X104142535Y-52660607D01*
X104225680Y-52861337D01*
X104618663Y-53254320D01*
X105132119Y-53467000D01*
X105555422Y-53467000D01*
X111072577Y-58984156D01*
X111121951Y-59058049D01*
X111195844Y-59107423D01*
X111195845Y-59107424D01*
X111306880Y-59181615D01*
X111414690Y-59253652D01*
X111672835Y-59305000D01*
X111672839Y-59305000D01*
X111759999Y-59322337D01*
X111847159Y-59305000D01*
X116473422Y-59305000D01*
X123063000Y-65894579D01*
X123063000Y-66317881D01*
X123275680Y-66831337D01*
X123668663Y-67224320D01*
X123875513Y-67310000D01*
X123668663Y-67395680D01*
X123275680Y-67788663D01*
X123063000Y-68302119D01*
X123063000Y-68857881D01*
X123275680Y-69371337D01*
X123668663Y-69764320D01*
X123875513Y-69850000D01*
X123668663Y-69935680D01*
X123275680Y-70328663D01*
X123063000Y-70842119D01*
X123063000Y-71397881D01*
X123275680Y-71911337D01*
X123668663Y-72304320D01*
X123875513Y-72390000D01*
X123668663Y-72475680D01*
X123275680Y-72868663D01*
X123063000Y-73382119D01*
X123063000Y-73937881D01*
X123275680Y-74451337D01*
X123668663Y-74844320D01*
X123875513Y-74930000D01*
X123668663Y-75015680D01*
X123275680Y-75408663D01*
X123063000Y-75922119D01*
X123063000Y-76477881D01*
X123275680Y-76991337D01*
X123668663Y-77384320D01*
X123875513Y-77470000D01*
X123668663Y-77555680D01*
X123275680Y-77948663D01*
X123063000Y-78462119D01*
X123063000Y-79017881D01*
X123275680Y-79531337D01*
X123668663Y-79924320D01*
X123875513Y-80010000D01*
X123668663Y-80095680D01*
X123275680Y-80488663D01*
X123063000Y-81002119D01*
X123063000Y-81557881D01*
X123275680Y-82071337D01*
X123668663Y-82464320D01*
X123875513Y-82550000D01*
X123668663Y-82635680D01*
X123275680Y-83028663D01*
X123063000Y-83542119D01*
X123063000Y-84097881D01*
X123275680Y-84611337D01*
X123668663Y-85004320D01*
X123875513Y-85090000D01*
X123668663Y-85175680D01*
X123275680Y-85568663D01*
X123063000Y-86082119D01*
X123063000Y-86637881D01*
X123275680Y-87151337D01*
X123668663Y-87544320D01*
X123875513Y-87630000D01*
X123668663Y-87715680D01*
X123275680Y-88108663D01*
X123063000Y-88622119D01*
X123063000Y-89177881D01*
X123275680Y-89691337D01*
X123668663Y-90084320D01*
X123875513Y-90170000D01*
X123668663Y-90255680D01*
X123275680Y-90648663D01*
X123063000Y-91162119D01*
X123063000Y-91717881D01*
X123275680Y-92231337D01*
X123668663Y-92624320D01*
X123875513Y-92710000D01*
X123668663Y-92795680D01*
X123275680Y-93188663D01*
X123063000Y-93702119D01*
X123063000Y-94257881D01*
X123275680Y-94771337D01*
X123668663Y-95164320D01*
X123875513Y-95250000D01*
X123668663Y-95335680D01*
X123275680Y-95728663D01*
X123063000Y-96242119D01*
X123063000Y-96797881D01*
X123275680Y-97311337D01*
X123668663Y-97704320D01*
X123875513Y-97790000D01*
X123668663Y-97875680D01*
X123275680Y-98268663D01*
X123063000Y-98782119D01*
X123063000Y-99337881D01*
X123275680Y-99851337D01*
X123668663Y-100244320D01*
X123875513Y-100330000D01*
X123668663Y-100415680D01*
X123275680Y-100808663D01*
X123063000Y-101322119D01*
X123063000Y-101877881D01*
X123275680Y-102391337D01*
X123668663Y-102784320D01*
X123875513Y-102870000D01*
X123668663Y-102955680D01*
X123275680Y-103348663D01*
X123063000Y-103862119D01*
X123063000Y-104417881D01*
X123275680Y-104931337D01*
X123668663Y-105324320D01*
X123875513Y-105410000D01*
X123668663Y-105495680D01*
X123275680Y-105888663D01*
X123063000Y-106402119D01*
X123063000Y-106957881D01*
X123275680Y-107471337D01*
X123668663Y-107864320D01*
X124182119Y-108077000D01*
X124737881Y-108077000D01*
X125251337Y-107864320D01*
X125644320Y-107471337D01*
X125857000Y-106957881D01*
X125857000Y-106402119D01*
X125644320Y-105888663D01*
X125251337Y-105495680D01*
X125044487Y-105410000D01*
X125251337Y-105324320D01*
X125644320Y-104931337D01*
X125857000Y-104417881D01*
X125857000Y-103862119D01*
X125644320Y-103348663D01*
X125251337Y-102955680D01*
X125044487Y-102870000D01*
X125251337Y-102784320D01*
X125644320Y-102391337D01*
X125857000Y-101877881D01*
X125857000Y-101708579D01*
X126115001Y-101966580D01*
X126115000Y-106352839D01*
X126097663Y-106440000D01*
X126115000Y-106527161D01*
X126115000Y-106527164D01*
X126166348Y-106785309D01*
X126361951Y-107078049D01*
X126435847Y-107127425D01*
X127822577Y-108514156D01*
X127871951Y-108588049D01*
X127945844Y-108637423D01*
X127945845Y-108637424D01*
X128056880Y-108711615D01*
X128164690Y-108783652D01*
X128422835Y-108835000D01*
X128422839Y-108835000D01*
X128509999Y-108852337D01*
X128597159Y-108835000D01*
X128655210Y-108835000D01*
X128803327Y-109056673D01*
X129311073Y-109395938D01*
X129758818Y-109485000D01*
X131861182Y-109485000D01*
X132308927Y-109395938D01*
X132816673Y-109056673D01*
X133155938Y-108548927D01*
X133275072Y-107950000D01*
X133155938Y-107351073D01*
X132816673Y-106843327D01*
X132308927Y-106504062D01*
X131861182Y-106415000D01*
X129758818Y-106415000D01*
X129311073Y-106504062D01*
X128803327Y-106843327D01*
X128743878Y-106932299D01*
X127885000Y-106073422D01*
X127885000Y-102221714D01*
X128383499Y-102676088D01*
X128344928Y-102870000D01*
X128464062Y-103468927D01*
X128803327Y-103976673D01*
X129311073Y-104315938D01*
X129758818Y-104405000D01*
X131861182Y-104405000D01*
X132308927Y-104315938D01*
X132816673Y-103976673D01*
X133155938Y-103468927D01*
X133275072Y-102870000D01*
X133155938Y-102271073D01*
X132816673Y-101763327D01*
X132308927Y-101424062D01*
X131861182Y-101335000D01*
X129758818Y-101335000D01*
X129578943Y-101370779D01*
X126615000Y-98669196D01*
X126615000Y-95746578D01*
X128396940Y-97528519D01*
X128344928Y-97790000D01*
X128464062Y-98388927D01*
X128803327Y-98896673D01*
X129311073Y-99235938D01*
X129758818Y-99325000D01*
X131861182Y-99325000D01*
X132308927Y-99235938D01*
X132816673Y-98896673D01*
X133155938Y-98388927D01*
X133275072Y-97790000D01*
X133155938Y-97191073D01*
X132816673Y-96683327D01*
X132308927Y-96344062D01*
X131861182Y-96255000D01*
X129758818Y-96255000D01*
X129648519Y-96276940D01*
X127885000Y-94513422D01*
X127885000Y-89636579D01*
X129479067Y-91230646D01*
X129311073Y-91264062D01*
X128803327Y-91603327D01*
X128464062Y-92111073D01*
X128344928Y-92710000D01*
X128464062Y-93308927D01*
X128803327Y-93816673D01*
X129311073Y-94155938D01*
X129758818Y-94245000D01*
X131861182Y-94245000D01*
X132308927Y-94155938D01*
X132816673Y-93816673D01*
X133155938Y-93308927D01*
X133275072Y-92710000D01*
X133155938Y-92111073D01*
X132816673Y-91603327D01*
X132308927Y-91264062D01*
X131861182Y-91175000D01*
X131685485Y-91175000D01*
X131643652Y-90964690D01*
X131571979Y-90857424D01*
X131497424Y-90745845D01*
X131497423Y-90745844D01*
X131448049Y-90671951D01*
X131374156Y-90622577D01*
X129916579Y-89165000D01*
X131861182Y-89165000D01*
X132308927Y-89075938D01*
X132816673Y-88736673D01*
X133155938Y-88228927D01*
X133275072Y-87630000D01*
X133155938Y-87031073D01*
X132816673Y-86523327D01*
X132308927Y-86184062D01*
X131861182Y-86095000D01*
X129758818Y-86095000D01*
X129311073Y-86184062D01*
X128803327Y-86523327D01*
X128743878Y-86612299D01*
X127885000Y-85753422D01*
X127885000Y-82550000D01*
X128344928Y-82550000D01*
X128464062Y-83148927D01*
X128803327Y-83656673D01*
X129311073Y-83995938D01*
X129758818Y-84085000D01*
X131861182Y-84085000D01*
X132308927Y-83995938D01*
X132816673Y-83656673D01*
X133155938Y-83148927D01*
X133275072Y-82550000D01*
X133155938Y-81951073D01*
X132816673Y-81443327D01*
X132308927Y-81104062D01*
X131861182Y-81015000D01*
X129758818Y-81015000D01*
X129311073Y-81104062D01*
X128803327Y-81443327D01*
X128464062Y-81951073D01*
X128344928Y-82550000D01*
X127885000Y-82550000D01*
X127885000Y-81367159D01*
X127902337Y-81279999D01*
X127885000Y-81192839D01*
X127885000Y-81192835D01*
X127833652Y-80934690D01*
X127638049Y-80641951D01*
X127564156Y-80592577D01*
X125857000Y-78885422D01*
X125857000Y-78462119D01*
X125644320Y-77948663D01*
X125251337Y-77555680D01*
X125044487Y-77470000D01*
X125251337Y-77384320D01*
X125644320Y-76991337D01*
X125857000Y-76477881D01*
X125857000Y-75922119D01*
X125644320Y-75408663D01*
X125251337Y-75015680D01*
X125044487Y-74930000D01*
X125251337Y-74844320D01*
X125644320Y-74451337D01*
X125857000Y-73937881D01*
X125857000Y-73514578D01*
X126695828Y-72675750D01*
X128375000Y-72675750D01*
X128375000Y-73416309D01*
X128471673Y-73649698D01*
X128650301Y-73828327D01*
X128883690Y-73925000D01*
X130524250Y-73925000D01*
X130683000Y-73766250D01*
X130683000Y-72517000D01*
X130937000Y-72517000D01*
X130937000Y-73766250D01*
X131095750Y-73925000D01*
X132736310Y-73925000D01*
X132969699Y-73828327D01*
X133148327Y-73649698D01*
X133245000Y-73416309D01*
X133245000Y-72675750D01*
X133086250Y-72517000D01*
X130937000Y-72517000D01*
X130683000Y-72517000D01*
X128533750Y-72517000D01*
X128375000Y-72675750D01*
X126695828Y-72675750D01*
X128007887Y-71363691D01*
X128375000Y-71363691D01*
X128375000Y-72104250D01*
X128533750Y-72263000D01*
X130683000Y-72263000D01*
X130683000Y-71013750D01*
X130937000Y-71013750D01*
X130937000Y-72263000D01*
X133086250Y-72263000D01*
X133245000Y-72104250D01*
X133245000Y-71363691D01*
X133148327Y-71130302D01*
X132969699Y-70951673D01*
X132736310Y-70855000D01*
X131095750Y-70855000D01*
X130937000Y-71013750D01*
X130683000Y-71013750D01*
X130524250Y-70855000D01*
X128883690Y-70855000D01*
X128650301Y-70951673D01*
X128471673Y-71130302D01*
X128375000Y-71363691D01*
X128007887Y-71363691D01*
X128834156Y-70537423D01*
X128908049Y-70488049D01*
X129103652Y-70195310D01*
X129155000Y-69937165D01*
X129155000Y-69937161D01*
X129172337Y-69850000D01*
X129155000Y-69762839D01*
X129155000Y-66111653D01*
X129311073Y-66215938D01*
X129758818Y-66305000D01*
X131861182Y-66305000D01*
X132308927Y-66215938D01*
X132816673Y-65876673D01*
X133155938Y-65368927D01*
X133275072Y-64770000D01*
X133155938Y-64171073D01*
X132816673Y-63663327D01*
X132308927Y-63324062D01*
X132140932Y-63290646D01*
X133914156Y-61517423D01*
X133988049Y-61468049D01*
X134183652Y-61175310D01*
X134235000Y-60917165D01*
X134235000Y-60917161D01*
X134252337Y-60830001D01*
X134235000Y-60742841D01*
X134235000Y-58507159D01*
X134252337Y-58419999D01*
X134235000Y-58332839D01*
X134235000Y-58332835D01*
X134183652Y-58074690D01*
X133988049Y-57781951D01*
X133914156Y-57732577D01*
X132767425Y-56585847D01*
X132718049Y-56511951D01*
X132425310Y-56316348D01*
X132167165Y-56265000D01*
X132167161Y-56265000D01*
X132080000Y-56247663D01*
X131992839Y-56265000D01*
X113396579Y-56265000D01*
X110598578Y-53467000D01*
X110767881Y-53467000D01*
X111281337Y-53254320D01*
X111674320Y-52861337D01*
X111760000Y-52654487D01*
X111845680Y-52861337D01*
X112238663Y-53254320D01*
X112752119Y-53467000D01*
X113307881Y-53467000D01*
X113821337Y-53254320D01*
X114214320Y-52861337D01*
X114300000Y-52654487D01*
X114385680Y-52861337D01*
X114778663Y-53254320D01*
X115292119Y-53467000D01*
X115847881Y-53467000D01*
X116361337Y-53254320D01*
X116754320Y-52861337D01*
X116840000Y-52654487D01*
X116925680Y-52861337D01*
X117318663Y-53254320D01*
X117832119Y-53467000D01*
X118387881Y-53467000D01*
X118901337Y-53254320D01*
X119294320Y-52861337D01*
X119380000Y-52654487D01*
X119465680Y-52861337D01*
X119858663Y-53254320D01*
X120372119Y-53467000D01*
X120927881Y-53467000D01*
X121441337Y-53254320D01*
X121834320Y-52861337D01*
X121920000Y-52654487D01*
X122005680Y-52861337D01*
X122398663Y-53254320D01*
X122912119Y-53467000D01*
X123467881Y-53467000D01*
X123981337Y-53254320D01*
X124280657Y-52955000D01*
X129303422Y-52955000D01*
X129479067Y-53130646D01*
X129311073Y-53164062D01*
X128803327Y-53503327D01*
X128464062Y-54011073D01*
X128344928Y-54610000D01*
X128464062Y-55208927D01*
X128803327Y-55716673D01*
X129311073Y-56055938D01*
X129758818Y-56145000D01*
X131861182Y-56145000D01*
X132308927Y-56055938D01*
X132816673Y-55716673D01*
X133155938Y-55208927D01*
X133275072Y-54610000D01*
X133155938Y-54011073D01*
X132816673Y-53503327D01*
X132308927Y-53164062D01*
X131861182Y-53075000D01*
X131685485Y-53075000D01*
X131643652Y-52864690D01*
X131538987Y-52708049D01*
X131497424Y-52645845D01*
X131497423Y-52645844D01*
X131448049Y-52571951D01*
X131374156Y-52522577D01*
X130357424Y-51505846D01*
X130308049Y-51431951D01*
X130015310Y-51236348D01*
X129757165Y-51185000D01*
X129757161Y-51185000D01*
X129670000Y-51167663D01*
X129582839Y-51185000D01*
X124280657Y-51185000D01*
X123981337Y-50885680D01*
X123467881Y-50673000D01*
X123298579Y-50673000D01*
X123556579Y-50415000D01*
X128655210Y-50415000D01*
X128803327Y-50636673D01*
X129311073Y-50975938D01*
X129758818Y-51065000D01*
X131861182Y-51065000D01*
X132308927Y-50975938D01*
X132816673Y-50636673D01*
X133155938Y-50128927D01*
X133275072Y-49530000D01*
X133155938Y-48931073D01*
X132816673Y-48423327D01*
X132308927Y-48084062D01*
X131861182Y-47995000D01*
X129758818Y-47995000D01*
X129311073Y-48084062D01*
X128803327Y-48423327D01*
X128655210Y-48645000D01*
X123277159Y-48645000D01*
X123189999Y-48627663D01*
X123102839Y-48645000D01*
X123102835Y-48645000D01*
X122844690Y-48696348D01*
X122844688Y-48696349D01*
X122844689Y-48696349D01*
X122625845Y-48842576D01*
X122625844Y-48842577D01*
X122551951Y-48891951D01*
X122502577Y-48965844D01*
X120795422Y-50673000D01*
X120758578Y-50673000D01*
X126096579Y-45335000D01*
X128655210Y-45335000D01*
X128803327Y-45556673D01*
X129311073Y-45895938D01*
X129758818Y-45985000D01*
X131861182Y-45985000D01*
X132308927Y-45895938D01*
X132816673Y-45556673D01*
X133155938Y-45048927D01*
X133275072Y-44450000D01*
X133155938Y-43851073D01*
X132816673Y-43343327D01*
X132308927Y-43004062D01*
X131861182Y-42915000D01*
X129758818Y-42915000D01*
X129311073Y-43004062D01*
X128803327Y-43343327D01*
X128655210Y-43565000D01*
X125817159Y-43565000D01*
X125729999Y-43547663D01*
X125642839Y-43565000D01*
X125642835Y-43565000D01*
X125384690Y-43616348D01*
X125384688Y-43616349D01*
X125384689Y-43616349D01*
X125165845Y-43762576D01*
X125165844Y-43762577D01*
X125091951Y-43811951D01*
X125042577Y-43885844D01*
X118255422Y-50673000D01*
X118218578Y-50673000D01*
X128405534Y-40486045D01*
X128411843Y-40517765D01*
X128552191Y-40727809D01*
X128762235Y-40868157D01*
X129010000Y-40917440D01*
X132610000Y-40917440D01*
X132857765Y-40868157D01*
X132985001Y-40783140D01*
X132985001Y-41748966D01*
X132952969Y-41910000D01*
X133067344Y-42485000D01*
X133079865Y-42547945D01*
X133441232Y-43088769D01*
X133577748Y-43179986D01*
X135525000Y-45127239D01*
X135525001Y-71342760D01*
X131032762Y-75835000D01*
X130648969Y-75835000D01*
X130172055Y-75929864D01*
X130164368Y-75935000D01*
X129758818Y-75935000D01*
X129311073Y-76024062D01*
X128803327Y-76363327D01*
X128464062Y-76871073D01*
X128344928Y-77470000D01*
X128464062Y-78068927D01*
X128803327Y-78576673D01*
X129311073Y-78915938D01*
X129758818Y-79005000D01*
X130164368Y-79005000D01*
X130172055Y-79010136D01*
X130648969Y-79105000D01*
X131548970Y-79105000D01*
X131710000Y-79137031D01*
X131871030Y-79105000D01*
X131871031Y-79105000D01*
X132347945Y-79010136D01*
X132888769Y-78648769D01*
X132979988Y-78512250D01*
X138202253Y-73289986D01*
X138338769Y-73198769D01*
X138700136Y-72657945D01*
X138795000Y-72181031D01*
X138795000Y-72181030D01*
X138827031Y-72020000D01*
X138795000Y-71858970D01*
X138795000Y-44611025D01*
X138827030Y-44449999D01*
X138795000Y-44288973D01*
X138795000Y-44288969D01*
X138700136Y-43812055D01*
X138338769Y-43271231D01*
X138202253Y-43180014D01*
X136255000Y-41232762D01*
X136255000Y-40856326D01*
X137216097Y-41817423D01*
X138827769Y-42485000D01*
X139573000Y-42485000D01*
X139573000Y-103565000D01*
X138827769Y-103565000D01*
X137216097Y-104232577D01*
X135982577Y-105466097D01*
X135315000Y-107077769D01*
X135315000Y-108822231D01*
X135982577Y-110433903D01*
X136598674Y-111050000D01*
X92001326Y-111050000D01*
X92617423Y-110433903D01*
X93285000Y-108822231D01*
X93285000Y-107077769D01*
X92617423Y-105466097D01*
X91656326Y-104505000D01*
X93241132Y-104505000D01*
X96712384Y-107976253D01*
X96803601Y-108112769D01*
X97344425Y-108474136D01*
X97821339Y-108569000D01*
X97821340Y-108569000D01*
X97982370Y-108601031D01*
X98143400Y-108569000D01*
X99221031Y-108569000D01*
X99697945Y-108474136D01*
X100238769Y-108112769D01*
X100600136Y-107571945D01*
X100727031Y-106934000D01*
X100600136Y-106296055D01*
X100238769Y-105755231D01*
X99900470Y-105529187D01*
X100244320Y-105185337D01*
X100457000Y-104671881D01*
X100457000Y-104116119D01*
X100244320Y-103602663D01*
X99851337Y-103209680D01*
X99644487Y-103124000D01*
X99851337Y-103038320D01*
X100244320Y-102645337D01*
X100457000Y-102131881D01*
X100457000Y-101576119D01*
X100244320Y-101062663D01*
X99851337Y-100669680D01*
X99644487Y-100584000D01*
X99851337Y-100498320D01*
X100244320Y-100105337D01*
X100457000Y-99591881D01*
X100457000Y-99036119D01*
X100244320Y-98522663D01*
X99851337Y-98129680D01*
X99644487Y-98044000D01*
X99851337Y-97958320D01*
X100244320Y-97565337D01*
X100457000Y-97051881D01*
X100457000Y-96496119D01*
X100244320Y-95982663D01*
X99851337Y-95589680D01*
X99660353Y-95510572D01*
X99791143Y-95456397D01*
X99860608Y-95214213D01*
X99060000Y-94413605D01*
X99045858Y-94427748D01*
X98866253Y-94248143D01*
X98880395Y-94234000D01*
X99239605Y-94234000D01*
X100040213Y-95034608D01*
X100282397Y-94965143D01*
X100469144Y-94441698D01*
X100441362Y-93886632D01*
X100282397Y-93502857D01*
X100040213Y-93433392D01*
X99239605Y-94234000D01*
X98880395Y-94234000D01*
X98866253Y-94219858D01*
X99045858Y-94040253D01*
X99060000Y-94054395D01*
X99860608Y-93253787D01*
X99791143Y-93011603D01*
X99650607Y-92961465D01*
X99851337Y-92878320D01*
X100244320Y-92485337D01*
X100457000Y-91971881D01*
X100457000Y-91416119D01*
X100244320Y-90902663D01*
X99851337Y-90509680D01*
X99644487Y-90424000D01*
X99851337Y-90338320D01*
X100244320Y-89945337D01*
X100457000Y-89431881D01*
X100457000Y-88876119D01*
X100244320Y-88362663D01*
X99851337Y-87969680D01*
X99644487Y-87884000D01*
X99851337Y-87798320D01*
X100244320Y-87405337D01*
X100457000Y-86891881D01*
X100457000Y-86336119D01*
X100244320Y-85822663D01*
X99851337Y-85429680D01*
X99644487Y-85344000D01*
X99851337Y-85258320D01*
X100244320Y-84865337D01*
X100457000Y-84351881D01*
X100457000Y-83796119D01*
X100244320Y-83282663D01*
X99851337Y-82889680D01*
X99644487Y-82804000D01*
X99851337Y-82718320D01*
X100244320Y-82325337D01*
X100457000Y-81811881D01*
X100457000Y-81256119D01*
X100244320Y-80742663D01*
X99851337Y-80349680D01*
X99644487Y-80264000D01*
X99851337Y-80178320D01*
X100244320Y-79785337D01*
X100457000Y-79271881D01*
X100457000Y-78716119D01*
X100244320Y-78202663D01*
X99851337Y-77809680D01*
X99644487Y-77724000D01*
X99851337Y-77638320D01*
X100244320Y-77245337D01*
X100457000Y-76731881D01*
X100457000Y-76176119D01*
X100244320Y-75662663D01*
X99851337Y-75269680D01*
X99644487Y-75184000D01*
X99851337Y-75098320D01*
X100244320Y-74705337D01*
X100457000Y-74191881D01*
X100457000Y-73636119D01*
X100244320Y-73122663D01*
X99851337Y-72729680D01*
X99644487Y-72644000D01*
X99851337Y-72558320D01*
X100244320Y-72165337D01*
X100457000Y-71651881D01*
X100457000Y-71096119D01*
X100244320Y-70582663D01*
X99851337Y-70189680D01*
X99644487Y-70104000D01*
X99851337Y-70018320D01*
X100244320Y-69625337D01*
X100457000Y-69111881D01*
X100457000Y-68556119D01*
X100244320Y-68042663D01*
X99851337Y-67649680D01*
X99644487Y-67564000D01*
X99851337Y-67478320D01*
X100244320Y-67085337D01*
X100457000Y-66571881D01*
X100457000Y-66016119D01*
X100244320Y-65502663D01*
X99851337Y-65109680D01*
X99644487Y-65024000D01*
X99851337Y-64938320D01*
X100244320Y-64545337D01*
X100457000Y-64031881D01*
X100457000Y-63476119D01*
X100244320Y-62962663D01*
X99900470Y-62618813D01*
X100238769Y-62392769D01*
X100600136Y-61851945D01*
X100727031Y-61214000D01*
X100600136Y-60576055D01*
X100238769Y-60035231D01*
X99697945Y-59673864D01*
X99221031Y-59579000D01*
X98604479Y-59579000D01*
X98366315Y-59419864D01*
X97889401Y-59325000D01*
X97889400Y-59325000D01*
X97728370Y-59292969D01*
X97567340Y-59325000D01*
X94345000Y-59325000D01*
X94345000Y-57515000D01*
X96358970Y-57515000D01*
X96520000Y-57547031D01*
X96681030Y-57515000D01*
X96681031Y-57515000D01*
X97157945Y-57420136D01*
X97698769Y-57058769D01*
X97789988Y-56922250D01*
X101372253Y-53339986D01*
X101508769Y-53248769D01*
X101641439Y-53050213D01*
X102069392Y-53050213D01*
X102138857Y-53292397D01*
X102662302Y-53479144D01*
X103217368Y-53451362D01*
X103601143Y-53292397D01*
X103670608Y-53050213D01*
X102870000Y-52249605D01*
X102069392Y-53050213D01*
X101641439Y-53050213D01*
X101761448Y-52870608D01*
X101782089Y-52839717D01*
X101889787Y-52870608D01*
X102690395Y-52070000D01*
X102676253Y-52055858D01*
X102855858Y-51876253D01*
X102870000Y-51890395D01*
X103670608Y-51089787D01*
X103601143Y-50847603D01*
X103077698Y-50660856D01*
X102522632Y-50688638D01*
X102138857Y-50847603D01*
X102069393Y-51089785D01*
X101965000Y-50985392D01*
X101965000Y-45127238D01*
X108627239Y-38465000D01*
X128363555Y-38465000D01*
X128362560Y-38470000D01*
G36*
X135982577Y-35616097D02*
X135468772Y-36856531D01*
X134399990Y-35787750D01*
X134308771Y-35651231D01*
X133767947Y-35289864D01*
X133291033Y-35195000D01*
X133291032Y-35195000D01*
X133130002Y-35162969D01*
X132968972Y-35195000D01*
X108111025Y-35195000D01*
X107949999Y-35162970D01*
X107788973Y-35195000D01*
X107788969Y-35195000D01*
X107312055Y-35289864D01*
X106771231Y-35651231D01*
X106680014Y-35787747D01*
X99287748Y-43180014D01*
X99151232Y-43271231D01*
X99060016Y-43407746D01*
X99060015Y-43407747D01*
X98789865Y-43812055D01*
X98662969Y-44450000D01*
X98695001Y-44611034D01*
X98695000Y-51392761D01*
X95842762Y-54245000D01*
X92871031Y-54245000D01*
X92710000Y-54212969D01*
X92548969Y-54245000D01*
X92108775Y-54332560D01*
X90910000Y-54332560D01*
X90662235Y-54381843D01*
X90452191Y-54522191D01*
X90311843Y-54732235D01*
X90262560Y-54980000D01*
X90262560Y-56780000D01*
X90311843Y-57027765D01*
X90452191Y-57237809D01*
X90662235Y-57378157D01*
X90910000Y-57427440D01*
X91075001Y-57427440D01*
X91075000Y-60798969D01*
X91042969Y-60960000D01*
X91075001Y-61121036D01*
X91075000Y-63414983D01*
X90703327Y-63663327D01*
X90364062Y-64171073D01*
X90244928Y-64770000D01*
X90364062Y-65368927D01*
X90703327Y-65876673D01*
X91211073Y-66215938D01*
X91658818Y-66305000D01*
X92064368Y-66305000D01*
X92072055Y-66310136D01*
X92710000Y-66437031D01*
X93347944Y-66310136D01*
X93355631Y-66305000D01*
X93761182Y-66305000D01*
X94208927Y-66215938D01*
X94716673Y-65876673D01*
X95055938Y-65368927D01*
X95175072Y-64770000D01*
X95055938Y-64171073D01*
X94716673Y-63663327D01*
X94345000Y-63414983D01*
X94345000Y-62595000D01*
X97106261Y-62595000D01*
X97344425Y-62754136D01*
X97821339Y-62849000D01*
X97821343Y-62849000D01*
X97961470Y-62876873D01*
X97875680Y-62962663D01*
X97663000Y-63476119D01*
X97663000Y-64031881D01*
X97875680Y-64545337D01*
X98268663Y-64938320D01*
X98475513Y-65024000D01*
X98268663Y-65109680D01*
X97875680Y-65502663D01*
X97663000Y-66016119D01*
X97663000Y-66571881D01*
X97875680Y-67085337D01*
X98268663Y-67478320D01*
X98475513Y-67564000D01*
X98268663Y-67649680D01*
X97875680Y-68042663D01*
X97663000Y-68556119D01*
X97663000Y-69111881D01*
X97875680Y-69625337D01*
X98268663Y-70018320D01*
X98475513Y-70104000D01*
X98268663Y-70189680D01*
X97875680Y-70582663D01*
X97663000Y-71096119D01*
X97663000Y-71651881D01*
X97875680Y-72165337D01*
X98268663Y-72558320D01*
X98475513Y-72644000D01*
X98268663Y-72729680D01*
X97875680Y-73122663D01*
X97663000Y-73636119D01*
X97663000Y-74052924D01*
X97623165Y-74045000D01*
X97623161Y-74045000D01*
X97536000Y-74027663D01*
X97448839Y-74045000D01*
X94864790Y-74045000D01*
X94716673Y-73823327D01*
X94208927Y-73484062D01*
X93761182Y-73395000D01*
X91658818Y-73395000D01*
X91211073Y-73484062D01*
X90703327Y-73823327D01*
X90364062Y-74331073D01*
X90244928Y-74930000D01*
X90364062Y-75528927D01*
X90703327Y-76036673D01*
X91211073Y-76375938D01*
X91658818Y-76465000D01*
X93761182Y-76465000D01*
X94208927Y-76375938D01*
X94716673Y-76036673D01*
X94864790Y-75815000D01*
X97169422Y-75815000D01*
X97663000Y-76308578D01*
X97663000Y-76731881D01*
X97875680Y-77245337D01*
X98268663Y-77638320D01*
X98475513Y-77724000D01*
X98268663Y-77809680D01*
X97875680Y-78202663D01*
X97663000Y-78716119D01*
X97663000Y-79125000D01*
X94864790Y-79125000D01*
X94716673Y-78903327D01*
X94208927Y-78564062D01*
X93761182Y-78475000D01*
X91658818Y-78475000D01*
X91211073Y-78564062D01*
X90703327Y-78903327D01*
X90364062Y-79411073D01*
X90244928Y-80010000D01*
X90364062Y-80608927D01*
X90703327Y-81116673D01*
X91211073Y-81455938D01*
X91658818Y-81545000D01*
X93761182Y-81545000D01*
X94208927Y-81455938D01*
X94716673Y-81116673D01*
X94864790Y-80895000D01*
X97812580Y-80895000D01*
X97663000Y-81256119D01*
X97663000Y-81679421D01*
X95137422Y-84205000D01*
X94864790Y-84205000D01*
X94716673Y-83983327D01*
X94208927Y-83644062D01*
X93761182Y-83555000D01*
X91658818Y-83555000D01*
X91211073Y-83644062D01*
X90703327Y-83983327D01*
X90364062Y-84491073D01*
X90244928Y-85090000D01*
X90364062Y-85688927D01*
X90703327Y-86196673D01*
X91211073Y-86535938D01*
X91658818Y-86625000D01*
X93761182Y-86625000D01*
X94208927Y-86535938D01*
X94716673Y-86196673D01*
X94864790Y-85975000D01*
X95416839Y-85975000D01*
X95504000Y-85992337D01*
X95591161Y-85975000D01*
X95591165Y-85975000D01*
X95849310Y-85923652D01*
X96142049Y-85728049D01*
X96191425Y-85654153D01*
X97663000Y-84182578D01*
X97663000Y-84219422D01*
X97225845Y-84656577D01*
X97151952Y-84705951D01*
X97102578Y-84779844D01*
X97102576Y-84779846D01*
X96956348Y-84998691D01*
X96938651Y-85087663D01*
X96905000Y-85256835D01*
X96905000Y-85256839D01*
X96887663Y-85344000D01*
X96905000Y-85431161D01*
X96905000Y-85623421D01*
X93871482Y-88656940D01*
X93761182Y-88635000D01*
X91658818Y-88635000D01*
X91211073Y-88724062D01*
X90703327Y-89063327D01*
X90364062Y-89571073D01*
X90244928Y-90170000D01*
X90364062Y-90768927D01*
X90703327Y-91276673D01*
X91211073Y-91615938D01*
X91658818Y-91705000D01*
X93761182Y-91705000D01*
X94208927Y-91615938D01*
X94716673Y-91276673D01*
X95055938Y-90768927D01*
X95175072Y-90170000D01*
X95123060Y-89908518D01*
X95635001Y-89396577D01*
X95635000Y-93373421D01*
X94776122Y-94232299D01*
X94716673Y-94143327D01*
X94208927Y-93804062D01*
X93761182Y-93715000D01*
X91658818Y-93715000D01*
X91211073Y-93804062D01*
X90703327Y-94143327D01*
X90364062Y-94651073D01*
X90244928Y-95250000D01*
X90364062Y-95848927D01*
X90703327Y-96356673D01*
X91211073Y-96695938D01*
X91658818Y-96785000D01*
X93761182Y-96785000D01*
X94208927Y-96695938D01*
X94716673Y-96356673D01*
X94864790Y-96135000D01*
X94922839Y-96135000D01*
X95010000Y-96152337D01*
X95097161Y-96135000D01*
X95097165Y-96135000D01*
X95355310Y-96083652D01*
X95648049Y-95888049D01*
X95697425Y-95814153D01*
X96905000Y-94606578D01*
X96905000Y-97183421D01*
X95027259Y-99061163D01*
X94967809Y-98972191D01*
X94757765Y-98831843D01*
X94510000Y-98782560D01*
X90910000Y-98782560D01*
X90662235Y-98831843D01*
X90452191Y-98972191D01*
X90311843Y-99182235D01*
X90262560Y-99430000D01*
X90262560Y-100430323D01*
X89265000Y-99432764D01*
X89265000Y-70214740D01*
X90318964Y-70214740D01*
X90343244Y-70320086D01*
X90634788Y-70845606D01*
X91105248Y-71219554D01*
X91683000Y-71385000D01*
X92583000Y-71385000D01*
X92583000Y-69977000D01*
X92837000Y-69977000D01*
X92837000Y-71385000D01*
X93737000Y-71385000D01*
X94314752Y-71219554D01*
X94785212Y-70845606D01*
X95076756Y-70320086D01*
X95101036Y-70214740D01*
X94980378Y-69977000D01*
X92837000Y-69977000D01*
X92583000Y-69977000D01*
X90439622Y-69977000D01*
X90318964Y-70214740D01*
X89265000Y-70214740D01*
X89265000Y-69485260D01*
X90318964Y-69485260D01*
X90439622Y-69723000D01*
X92583000Y-69723000D01*
X92583000Y-68315000D01*
X92837000Y-68315000D01*
X92837000Y-69723000D01*
X94980378Y-69723000D01*
X95101036Y-69485260D01*
X95076756Y-69379914D01*
X94785212Y-68854394D01*
X94314752Y-68480446D01*
X93737000Y-68315000D01*
X92837000Y-68315000D01*
X92583000Y-68315000D01*
X91683000Y-68315000D01*
X91105248Y-68480446D01*
X90634788Y-68854394D01*
X90343244Y-69379914D01*
X90318964Y-69485260D01*
X89265000Y-69485260D01*
X89265000Y-51164740D01*
X90318964Y-51164740D01*
X90343244Y-51270086D01*
X90634788Y-51795606D01*
X91105248Y-52169554D01*
X91683000Y-52335000D01*
X92583000Y-52335000D01*
X92583000Y-50927000D01*
X92837000Y-50927000D01*
X92837000Y-52335000D01*
X93737000Y-52335000D01*
X94314752Y-52169554D01*
X94785212Y-51795606D01*
X95076756Y-51270086D01*
X95101036Y-51164740D01*
X94980378Y-50927000D01*
X92837000Y-50927000D01*
X92583000Y-50927000D01*
X90439622Y-50927000D01*
X90318964Y-51164740D01*
X89265000Y-51164740D01*
X89265000Y-50577238D01*
X89406978Y-50435260D01*
X90318964Y-50435260D01*
X90439622Y-50673000D01*
X92583000Y-50673000D01*
X92583000Y-49265000D01*
X92837000Y-49265000D01*
X92837000Y-50673000D01*
X94980378Y-50673000D01*
X95101036Y-50435260D01*
X95076756Y-50329914D01*
X94785212Y-49804394D01*
X94314752Y-49430446D01*
X93737000Y-49265000D01*
X92837000Y-49265000D01*
X92583000Y-49265000D01*
X91683000Y-49265000D01*
X91105248Y-49430446D01*
X90634788Y-49804394D01*
X90343244Y-50329914D01*
X90318964Y-50435260D01*
X89406978Y-50435260D01*
X92487239Y-47355000D01*
X92871031Y-47355000D01*
X93347945Y-47260136D01*
X93355632Y-47255000D01*
X93761182Y-47255000D01*
X94208927Y-47165938D01*
X94716673Y-46826673D01*
X95055938Y-46318927D01*
X95175072Y-45720000D01*
X95055938Y-45121073D01*
X94716673Y-44613327D01*
X94208927Y-44274062D01*
X93761182Y-44185000D01*
X93355632Y-44185000D01*
X93347945Y-44179864D01*
X92871031Y-44085000D01*
X91971031Y-44085000D01*
X91810000Y-44052969D01*
X91172054Y-44179864D01*
X91008766Y-44288970D01*
X90631231Y-44541231D01*
X90540014Y-44677747D01*
X86587748Y-48630014D01*
X86451232Y-48721231D01*
X86360015Y-48857747D01*
X86089865Y-49262055D01*
X85962969Y-49900000D01*
X85995001Y-50061035D01*
X85995000Y-99948972D01*
X85962969Y-100110002D01*
X85995000Y-100271032D01*
X86089864Y-100747946D01*
X86451231Y-101288771D01*
X86587750Y-101379990D01*
X88772759Y-103565000D01*
X88027769Y-103565000D01*
X86416097Y-104232577D01*
X85800000Y-104848674D01*
X85800000Y-41201326D01*
X86416097Y-41817423D01*
X88027769Y-42485000D01*
X89772231Y-42485000D01*
X91383903Y-41817423D01*
X92617423Y-40583903D01*
X93285000Y-38972231D01*
X93285000Y-37227769D01*
X92617423Y-35616097D01*
X92001326Y-35000000D01*
X136598674Y-35000000D01*
X135982577Y-35616097D01*
X135982577Y-35616097D01*
G37*
X135982577Y-35616097D02*
X135468772Y-36856531D01*
X134399990Y-35787750D01*
X134308771Y-35651231D01*
X133767947Y-35289864D01*
X133291033Y-35195000D01*
X133291032Y-35195000D01*
X133130002Y-35162969D01*
X132968972Y-35195000D01*
X108111025Y-35195000D01*
X107949999Y-35162970D01*
X107788973Y-35195000D01*
X107788969Y-35195000D01*
X107312055Y-35289864D01*
X106771231Y-35651231D01*
X106680014Y-35787747D01*
X99287748Y-43180014D01*
X99151232Y-43271231D01*
X99060016Y-43407746D01*
X99060015Y-43407747D01*
X98789865Y-43812055D01*
X98662969Y-44450000D01*
X98695001Y-44611034D01*
X98695000Y-51392761D01*
X95842762Y-54245000D01*
X92871031Y-54245000D01*
X92710000Y-54212969D01*
X92548969Y-54245000D01*
X92108775Y-54332560D01*
X90910000Y-54332560D01*
X90662235Y-54381843D01*
X90452191Y-54522191D01*
X90311843Y-54732235D01*
X90262560Y-54980000D01*
X90262560Y-56780000D01*
X90311843Y-57027765D01*
X90452191Y-57237809D01*
X90662235Y-57378157D01*
X90910000Y-57427440D01*
X91075001Y-57427440D01*
X91075000Y-60798969D01*
X91042969Y-60960000D01*
X91075001Y-61121036D01*
X91075000Y-63414983D01*
X90703327Y-63663327D01*
X90364062Y-64171073D01*
X90244928Y-64770000D01*
X90364062Y-65368927D01*
X90703327Y-65876673D01*
X91211073Y-66215938D01*
X91658818Y-66305000D01*
X92064368Y-66305000D01*
X92072055Y-66310136D01*
X92710000Y-66437031D01*
X93347944Y-66310136D01*
X93355631Y-66305000D01*
X93761182Y-66305000D01*
X94208927Y-66215938D01*
X94716673Y-65876673D01*
X95055938Y-65368927D01*
X95175072Y-64770000D01*
X95055938Y-64171073D01*
X94716673Y-63663327D01*
X94345000Y-63414983D01*
X94345000Y-62595000D01*
X97106261Y-62595000D01*
X97344425Y-62754136D01*
X97821339Y-62849000D01*
X97821343Y-62849000D01*
X97961470Y-62876873D01*
X97875680Y-62962663D01*
X97663000Y-63476119D01*
X97663000Y-64031881D01*
X97875680Y-64545337D01*
X98268663Y-64938320D01*
X98475513Y-65024000D01*
X98268663Y-65109680D01*
X97875680Y-65502663D01*
X97663000Y-66016119D01*
X97663000Y-66571881D01*
X97875680Y-67085337D01*
X98268663Y-67478320D01*
X98475513Y-67564000D01*
X98268663Y-67649680D01*
X97875680Y-68042663D01*
X97663000Y-68556119D01*
X97663000Y-69111881D01*
X97875680Y-69625337D01*
X98268663Y-70018320D01*
X98475513Y-70104000D01*
X98268663Y-70189680D01*
X97875680Y-70582663D01*
X97663000Y-71096119D01*
X97663000Y-71651881D01*
X97875680Y-72165337D01*
X98268663Y-72558320D01*
X98475513Y-72644000D01*
X98268663Y-72729680D01*
X97875680Y-73122663D01*
X97663000Y-73636119D01*
X97663000Y-74052924D01*
X97623165Y-74045000D01*
X97623161Y-74045000D01*
X97536000Y-74027663D01*
X97448839Y-74045000D01*
X94864790Y-74045000D01*
X94716673Y-73823327D01*
X94208927Y-73484062D01*
X93761182Y-73395000D01*
X91658818Y-73395000D01*
X91211073Y-73484062D01*
X90703327Y-73823327D01*
X90364062Y-74331073D01*
X90244928Y-74930000D01*
X90364062Y-75528927D01*
X90703327Y-76036673D01*
X91211073Y-76375938D01*
X91658818Y-76465000D01*
X93761182Y-76465000D01*
X94208927Y-76375938D01*
X94716673Y-76036673D01*
X94864790Y-75815000D01*
X97169422Y-75815000D01*
X97663000Y-76308578D01*
X97663000Y-76731881D01*
X97875680Y-77245337D01*
X98268663Y-77638320D01*
X98475513Y-77724000D01*
X98268663Y-77809680D01*
X97875680Y-78202663D01*
X97663000Y-78716119D01*
X97663000Y-79125000D01*
X94864790Y-79125000D01*
X94716673Y-78903327D01*
X94208927Y-78564062D01*
X93761182Y-78475000D01*
X91658818Y-78475000D01*
X91211073Y-78564062D01*
X90703327Y-78903327D01*
X90364062Y-79411073D01*
X90244928Y-80010000D01*
X90364062Y-80608927D01*
X90703327Y-81116673D01*
X91211073Y-81455938D01*
X91658818Y-81545000D01*
X93761182Y-81545000D01*
X94208927Y-81455938D01*
X94716673Y-81116673D01*
X94864790Y-80895000D01*
X97812580Y-80895000D01*
X97663000Y-81256119D01*
X97663000Y-81679421D01*
X95137422Y-84205000D01*
X94864790Y-84205000D01*
X94716673Y-83983327D01*
X94208927Y-83644062D01*
X93761182Y-83555000D01*
X91658818Y-83555000D01*
X91211073Y-83644062D01*
X90703327Y-83983327D01*
X90364062Y-84491073D01*
X90244928Y-85090000D01*
X90364062Y-85688927D01*
X90703327Y-86196673D01*
X91211073Y-86535938D01*
X91658818Y-86625000D01*
X93761182Y-86625000D01*
X94208927Y-86535938D01*
X94716673Y-86196673D01*
X94864790Y-85975000D01*
X95416839Y-85975000D01*
X95504000Y-85992337D01*
X95591161Y-85975000D01*
X95591165Y-85975000D01*
X95849310Y-85923652D01*
X96142049Y-85728049D01*
X96191425Y-85654153D01*
X97663000Y-84182578D01*
X97663000Y-84219422D01*
X97225845Y-84656577D01*
X97151952Y-84705951D01*
X97102578Y-84779844D01*
X97102576Y-84779846D01*
X96956348Y-84998691D01*
X96938651Y-85087663D01*
X96905000Y-85256835D01*
X96905000Y-85256839D01*
X96887663Y-85344000D01*
X96905000Y-85431161D01*
X96905000Y-85623421D01*
X93871482Y-88656940D01*
X93761182Y-88635000D01*
X91658818Y-88635000D01*
X91211073Y-88724062D01*
X90703327Y-89063327D01*
X90364062Y-89571073D01*
X90244928Y-90170000D01*
X90364062Y-90768927D01*
X90703327Y-91276673D01*
X91211073Y-91615938D01*
X91658818Y-91705000D01*
X93761182Y-91705000D01*
X94208927Y-91615938D01*
X94716673Y-91276673D01*
X95055938Y-90768927D01*
X95175072Y-90170000D01*
X95123060Y-89908518D01*
X95635001Y-89396577D01*
X95635000Y-93373421D01*
X94776122Y-94232299D01*
X94716673Y-94143327D01*
X94208927Y-93804062D01*
X93761182Y-93715000D01*
X91658818Y-93715000D01*
X91211073Y-93804062D01*
X90703327Y-94143327D01*
X90364062Y-94651073D01*
X90244928Y-95250000D01*
X90364062Y-95848927D01*
X90703327Y-96356673D01*
X91211073Y-96695938D01*
X91658818Y-96785000D01*
X93761182Y-96785000D01*
X94208927Y-96695938D01*
X94716673Y-96356673D01*
X94864790Y-96135000D01*
X94922839Y-96135000D01*
X95010000Y-96152337D01*
X95097161Y-96135000D01*
X95097165Y-96135000D01*
X95355310Y-96083652D01*
X95648049Y-95888049D01*
X95697425Y-95814153D01*
X96905000Y-94606578D01*
X96905000Y-97183421D01*
X95027259Y-99061163D01*
X94967809Y-98972191D01*
X94757765Y-98831843D01*
X94510000Y-98782560D01*
X90910000Y-98782560D01*
X90662235Y-98831843D01*
X90452191Y-98972191D01*
X90311843Y-99182235D01*
X90262560Y-99430000D01*
X90262560Y-100430323D01*
X89265000Y-99432764D01*
X89265000Y-70214740D01*
X90318964Y-70214740D01*
X90343244Y-70320086D01*
X90634788Y-70845606D01*
X91105248Y-71219554D01*
X91683000Y-71385000D01*
X92583000Y-71385000D01*
X92583000Y-69977000D01*
X92837000Y-69977000D01*
X92837000Y-71385000D01*
X93737000Y-71385000D01*
X94314752Y-71219554D01*
X94785212Y-70845606D01*
X95076756Y-70320086D01*
X95101036Y-70214740D01*
X94980378Y-69977000D01*
X92837000Y-69977000D01*
X92583000Y-69977000D01*
X90439622Y-69977000D01*
X90318964Y-70214740D01*
X89265000Y-70214740D01*
X89265000Y-69485260D01*
X90318964Y-69485260D01*
X90439622Y-69723000D01*
X92583000Y-69723000D01*
X92583000Y-68315000D01*
X92837000Y-68315000D01*
X92837000Y-69723000D01*
X94980378Y-69723000D01*
X95101036Y-69485260D01*
X95076756Y-69379914D01*
X94785212Y-68854394D01*
X94314752Y-68480446D01*
X93737000Y-68315000D01*
X92837000Y-68315000D01*
X92583000Y-68315000D01*
X91683000Y-68315000D01*
X91105248Y-68480446D01*
X90634788Y-68854394D01*
X90343244Y-69379914D01*
X90318964Y-69485260D01*
X89265000Y-69485260D01*
X89265000Y-51164740D01*
X90318964Y-51164740D01*
X90343244Y-51270086D01*
X90634788Y-51795606D01*
X91105248Y-52169554D01*
X91683000Y-52335000D01*
X92583000Y-52335000D01*
X92583000Y-50927000D01*
X92837000Y-50927000D01*
X92837000Y-52335000D01*
X93737000Y-52335000D01*
X94314752Y-52169554D01*
X94785212Y-51795606D01*
X95076756Y-51270086D01*
X95101036Y-51164740D01*
X94980378Y-50927000D01*
X92837000Y-50927000D01*
X92583000Y-50927000D01*
X90439622Y-50927000D01*
X90318964Y-51164740D01*
X89265000Y-51164740D01*
X89265000Y-50577238D01*
X89406978Y-50435260D01*
X90318964Y-50435260D01*
X90439622Y-50673000D01*
X92583000Y-50673000D01*
X92583000Y-49265000D01*
X92837000Y-49265000D01*
X92837000Y-50673000D01*
X94980378Y-50673000D01*
X95101036Y-50435260D01*
X95076756Y-50329914D01*
X94785212Y-49804394D01*
X94314752Y-49430446D01*
X93737000Y-49265000D01*
X92837000Y-49265000D01*
X92583000Y-49265000D01*
X91683000Y-49265000D01*
X91105248Y-49430446D01*
X90634788Y-49804394D01*
X90343244Y-50329914D01*
X90318964Y-50435260D01*
X89406978Y-50435260D01*
X92487239Y-47355000D01*
X92871031Y-47355000D01*
X93347945Y-47260136D01*
X93355632Y-47255000D01*
X93761182Y-47255000D01*
X94208927Y-47165938D01*
X94716673Y-46826673D01*
X95055938Y-46318927D01*
X95175072Y-45720000D01*
X95055938Y-45121073D01*
X94716673Y-44613327D01*
X94208927Y-44274062D01*
X93761182Y-44185000D01*
X93355632Y-44185000D01*
X93347945Y-44179864D01*
X92871031Y-44085000D01*
X91971031Y-44085000D01*
X91810000Y-44052969D01*
X91172054Y-44179864D01*
X91008766Y-44288970D01*
X90631231Y-44541231D01*
X90540014Y-44677747D01*
X86587748Y-48630014D01*
X86451232Y-48721231D01*
X86360015Y-48857747D01*
X86089865Y-49262055D01*
X85962969Y-49900000D01*
X85995001Y-50061035D01*
X85995000Y-99948972D01*
X85962969Y-100110002D01*
X85995000Y-100271032D01*
X86089864Y-100747946D01*
X86451231Y-101288771D01*
X86587750Y-101379990D01*
X88772759Y-103565000D01*
X88027769Y-103565000D01*
X86416097Y-104232577D01*
X85800000Y-104848674D01*
X85800000Y-41201326D01*
X86416097Y-41817423D01*
X88027769Y-42485000D01*
X89772231Y-42485000D01*
X91383903Y-41817423D01*
X92617423Y-40583903D01*
X93285000Y-38972231D01*
X93285000Y-37227769D01*
X92617423Y-35616097D01*
X92001326Y-35000000D01*
X136598674Y-35000000D01*
X135982577Y-35616097D01*
G04 #@! TD*
M02*
